%TF.GenerationSoftware,KiCad,Pcbnew,7.0.11-rc3*%
%TF.CreationDate,2026-02-10T16:16:17+08:00*%
%TF.ProjectId,front_dash_unit,66726f6e-745f-4646-9173-685f756e6974,rev?*%
%TF.SameCoordinates,Original*%
%TF.FileFunction,Paste,Top*%
%TF.FilePolarity,Positive*%
%FSLAX46Y46*%
G04 Gerber Fmt 4.6, Leading zero omitted, Abs format (unit mm)*
G04 Created by KiCad (PCBNEW 7.0.11-rc3) date 2026-02-10 16:16:17*
%MOMM*%
%LPD*%
G01*
G04 APERTURE LIST*
G04 Aperture macros list*
%AMRoundRect*
0 Rectangle with rounded corners*
0 $1 Rounding radius*
0 $2 $3 $4 $5 $6 $7 $8 $9 X,Y pos of 4 corners*
0 Add a 4 corners polygon primitive as box body*
4,1,4,$2,$3,$4,$5,$6,$7,$8,$9,$2,$3,0*
0 Add four circle primitives for the rounded corners*
1,1,$1+$1,$2,$3*
1,1,$1+$1,$4,$5*
1,1,$1+$1,$6,$7*
1,1,$1+$1,$8,$9*
0 Add four rect primitives between the rounded corners*
20,1,$1+$1,$2,$3,$4,$5,0*
20,1,$1+$1,$4,$5,$6,$7,0*
20,1,$1+$1,$6,$7,$8,$9,0*
20,1,$1+$1,$8,$9,$2,$3,0*%
G04 Aperture macros list end*
%ADD10R,5.500000X2.500000*%
%ADD11RoundRect,0.305575X-0.460025X-0.412525X0.460025X-0.412525X0.460025X0.412525X-0.460025X0.412525X0*%
%ADD12RoundRect,0.308511X-0.457089X-0.416489X0.457089X-0.416489X0.457089X0.416489X-0.457089X0.416489X0*%
%ADD13RoundRect,0.250000X-0.650000X1.500000X-0.650000X-1.500000X0.650000X-1.500000X0.650000X1.500000X0*%
%ADD14RoundRect,0.278125X0.389375X-0.474375X0.389375X0.474375X-0.389375X0.474375X-0.389375X-0.474375X0*%
%ADD15RoundRect,0.305575X0.412525X-0.460025X0.412525X0.460025X-0.412525X0.460025X-0.412525X-0.460025X0*%
%ADD16RoundRect,0.308511X0.416489X-0.457089X0.416489X0.457089X-0.416489X0.457089X-0.416489X-0.457089X0*%
%ADD17R,0.550000X2.000000*%
%ADD18R,2.000000X0.550000*%
%ADD19R,2.000000X0.525000*%
%ADD20R,2.000000X0.575000*%
%ADD21R,0.525000X2.000000*%
%ADD22RoundRect,0.305575X0.460025X0.412525X-0.460025X0.412525X-0.460025X-0.412525X0.460025X-0.412525X0*%
%ADD23RoundRect,0.308511X0.457089X0.416489X-0.457089X0.416489X-0.457089X-0.416489X0.457089X-0.416489X0*%
%ADD24RoundRect,0.100000X-0.687500X-0.100000X0.687500X-0.100000X0.687500X0.100000X-0.687500X0.100000X0*%
%ADD25RoundRect,0.100000X-0.687500X-0.099999X0.687500X-0.099999X0.687500X0.099999X-0.687500X0.099999X0*%
%ADD26RoundRect,0.278125X0.474375X0.389375X-0.474375X0.389375X-0.474375X-0.389375X0.474375X-0.389375X0*%
%ADD27R,1.500000X1.500000*%
%ADD28RoundRect,0.041300X1.103700X0.253700X-1.103700X0.253700X-1.103700X-0.253700X1.103700X-0.253700X0*%
%ADD29RoundRect,0.250001X-1.074999X0.462499X-1.074999X-0.462499X1.074999X-0.462499X1.074999X0.462499X0*%
%ADD30R,3.800000X3.600000*%
%ADD31RoundRect,0.278125X-0.474375X-0.389375X0.474375X-0.389375X0.474375X0.389375X-0.474375X0.389375X0*%
%ADD32RoundRect,0.304347X-0.570653X-0.395653X0.570653X-0.395653X0.570653X0.395653X-0.570653X0.395653X0*%
%ADD33RoundRect,0.250000X-0.300000X2.450000X-0.300000X-2.450000X0.300000X-2.450000X0.300000X2.450000X0*%
%ADD34RoundRect,0.238637X-0.286363X2.461363X-0.286363X-2.461363X0.286363X-2.461363X0.286363X2.461363X0*%
%ADD35RoundRect,0.250000X-2.375000X2.025000X-2.375000X-2.025000X2.375000X-2.025000X2.375000X2.025000X0*%
%ADD36RoundRect,0.305575X-0.412525X0.460025X-0.412525X-0.460025X0.412525X-0.460025X0.412525X0.460025X0*%
%ADD37RoundRect,0.308511X-0.416489X0.457089X-0.416489X-0.457089X0.416489X-0.457089X0.416489X0.457089X0*%
G04 APERTURE END LIST*
D10*
%TO.C,Y5*%
X128206719Y-85891762D03*
X119393282Y-85900000D03*
%TD*%
%TO.C,Y1*%
X128206719Y-103554262D03*
X119393282Y-103562500D03*
%TD*%
D11*
%TO.C,C4*%
X117408882Y-107655600D03*
D12*
X119840082Y-107662500D03*
%TD*%
D13*
%TO.C,D2*%
X179200000Y-102700000D03*
X179200000Y-107700000D03*
%TD*%
D14*
%TO.C,R2*%
X117867500Y-97915000D03*
X117867500Y-95610000D03*
%TD*%
D15*
%TO.C,C14*%
X180993100Y-116115600D03*
D16*
X181000000Y-113684400D03*
%TD*%
D17*
%TO.C,U1*%
X160800000Y-85550000D03*
X160000000Y-85550000D03*
X159200000Y-85550000D03*
X158400000Y-85550000D03*
X157600000Y-85550000D03*
X156800000Y-85550000D03*
X156000000Y-85550000D03*
X155200000Y-85550000D03*
D18*
X153550000Y-87200000D03*
D19*
X153550000Y-87987500D03*
D20*
X153550000Y-88812500D03*
D18*
X153550000Y-89600000D03*
X153550000Y-90400000D03*
X153550000Y-91200000D03*
X153550000Y-92000000D03*
X153550000Y-92800000D03*
D17*
X155200000Y-94450000D03*
X156000000Y-94450000D03*
X156800000Y-94450000D03*
D21*
X157612500Y-94450000D03*
D17*
X158400000Y-94450000D03*
X159200000Y-94450000D03*
X160000000Y-94450000D03*
X160800000Y-94450000D03*
D18*
X162450000Y-92800000D03*
X162450000Y-92000000D03*
X162450000Y-91200000D03*
X162450000Y-90400000D03*
X162450000Y-89600000D03*
X162450000Y-88800000D03*
X162450000Y-88000000D03*
X162450000Y-87200000D03*
%TD*%
D22*
%TO.C,C25*%
X130191119Y-90006900D03*
D23*
X127759919Y-90000000D03*
%TD*%
D24*
%TO.C,U3*%
X132987500Y-96437500D03*
X132987500Y-97087500D03*
X132987500Y-97737500D03*
D25*
X132987500Y-98387501D03*
D24*
X132987500Y-99037500D03*
X132987500Y-99687500D03*
X132987500Y-100337500D03*
X132987500Y-100987500D03*
X132987500Y-101637500D03*
X132987500Y-102287500D03*
X138812500Y-102287500D03*
X138812500Y-101637500D03*
X138812500Y-100987500D03*
X138812500Y-100337500D03*
X138812500Y-99687500D03*
X138812500Y-99037500D03*
X138812500Y-98387500D03*
D25*
X138812500Y-97737501D03*
X138812500Y-97087501D03*
X138812500Y-96437501D03*
%TD*%
D11*
%TO.C,C11*%
X143608882Y-72903700D03*
D12*
X146040082Y-72910600D03*
%TD*%
D26*
%TO.C,R4*%
X124952500Y-107696052D03*
X122647500Y-107696052D03*
%TD*%
D11*
%TO.C,C24*%
X117408882Y-89993100D03*
D12*
X119840082Y-90000000D03*
%TD*%
D27*
%TO.C,SW1*%
X184814117Y-96520849D03*
X192614117Y-96520849D03*
%TD*%
D22*
%TO.C,C10*%
X156391119Y-72917500D03*
D23*
X153959919Y-72910600D03*
%TD*%
D28*
%TO.C,U8*%
X128572500Y-81005000D03*
X128572500Y-79735000D03*
X128572500Y-78465000D03*
X128572500Y-77195000D03*
X122862500Y-77195000D03*
X122862500Y-78465000D03*
X122862500Y-79735000D03*
X122862500Y-81005000D03*
%TD*%
%TO.C,U2*%
X128572500Y-98667500D03*
X128572500Y-97397500D03*
X128572500Y-96127500D03*
X128572500Y-94857500D03*
X122862500Y-94857500D03*
X122862500Y-96127500D03*
X122862500Y-97397500D03*
X122862500Y-98667500D03*
%TD*%
D29*
%TO.C,F1*%
X149000000Y-115512500D03*
X149000000Y-118487500D03*
%TD*%
D30*
%TO.C,L1*%
X174000000Y-102700000D03*
X164600000Y-102700000D03*
%TD*%
D26*
%TO.C,R1*%
X192531017Y-101420849D03*
X190226017Y-101420849D03*
%TD*%
D31*
%TO.C,R3*%
X190247500Y-92523349D03*
X192552500Y-92523349D03*
%TD*%
D11*
%TO.C,C9*%
X184784400Y-92550000D03*
D12*
X187215600Y-92556900D03*
%TD*%
D32*
%TO.C,D1*%
X184667100Y-101420849D03*
X187317100Y-101420849D03*
%TD*%
D33*
%TO.C,U4*%
X172625000Y-112425000D03*
X170925000Y-112425000D03*
D34*
X169250000Y-112425000D03*
D35*
X172000000Y-119550000D03*
X166450000Y-119550000D03*
X172000000Y-124400000D03*
X166450000Y-124400000D03*
D33*
X167525000Y-112425000D03*
X165825000Y-112425000D03*
%TD*%
D24*
%TO.C,U9*%
X132987500Y-78775000D03*
X132987500Y-79425000D03*
X132987500Y-80075000D03*
D25*
X132987500Y-80725001D03*
D24*
X132987500Y-81375000D03*
X132987500Y-82025000D03*
X132987500Y-82675000D03*
X132987500Y-83325000D03*
X132987500Y-83975000D03*
X132987500Y-84625000D03*
X138812500Y-84625000D03*
X138812500Y-83975000D03*
X138812500Y-83325000D03*
X138812500Y-82675000D03*
X138812500Y-82025000D03*
X138812500Y-81375000D03*
X138812500Y-80725000D03*
D25*
X138812500Y-80075001D03*
X138812500Y-79425001D03*
X138812500Y-78775001D03*
%TD*%
D26*
%TO.C,R8*%
X124952500Y-90033552D03*
X122647500Y-90033552D03*
%TD*%
D14*
%TO.C,R7*%
X117867500Y-80252500D03*
X117867500Y-77947500D03*
%TD*%
D22*
%TO.C,C6*%
X130191119Y-107669400D03*
D23*
X127759919Y-107662500D03*
%TD*%
D10*
%TO.C,Y2*%
X145593282Y-78508238D03*
X154406719Y-78500000D03*
%TD*%
D31*
%TO.C,R86*%
X148858242Y-72885000D03*
X151163242Y-72885000D03*
%TD*%
D36*
%TO.C,C16*%
X149006900Y-122784400D03*
D37*
X149000000Y-125215600D03*
%TD*%
D31*
%TO.C,R5*%
X190189290Y-111767500D03*
X192494290Y-111767500D03*
%TD*%
D36*
%TO.C,C7*%
X161706900Y-77584400D03*
D37*
X161700000Y-80015600D03*
%TD*%
D36*
%TO.C,C8*%
X159106900Y-77584400D03*
D37*
X159100000Y-80015600D03*
%TD*%
D31*
%TO.C,R6*%
X190189290Y-106567500D03*
X192494290Y-106567500D03*
%TD*%
M02*
