M48
; DRILL file {KiCad 7.0.11-rc3} date Tue Feb 10 16:16:19 2026
; FORMAT={-:-/ absolute / inch / decimal}
; #@! TF.CreationDate,2026-02-10T16:16:19+08:00
; #@! TF.GenerationSoftware,Kicad,Pcbnew,7.0.11-rc3
; #@! TF.FileFunction,Plated,1,2,PTH
FMAT,2
INCH
; #@! TA.AperFunction,Plated,PTH,ViaDrill
T1C0.0157
; #@! TA.AperFunction,Plated,PTH,ComponentDrill
T2C0.0236
; #@! TA.AperFunction,Plated,PTH,ComponentDrill
T3C0.0374
; #@! TA.AperFunction,Plated,PTH,ComponentDrill
T4C0.0394
; #@! TA.AperFunction,Plated,PTH,ComponentDrill
T5C0.0400
; #@! TA.AperFunction,Plated,PTH,ComponentDrill
T6C0.0669
%
G90
G05
T1
X4.6224Y-3.543
X4.6224Y-4.2384
X4.6416Y-4.456
X4.6416Y-4.5544
X4.9495Y-3.0663
X4.9495Y-3.7617
X4.9498Y-3.162
X4.9498Y-3.8574
X5.1256Y-3.5436
X5.1256Y-4.239
X5.2362Y-3.3819
X5.2362Y-4.0669
X5.2854Y-2.9016
X5.3622Y-3.6929
X5.3627Y-3.2407
X5.3627Y-3.9361
X5.3635Y-3.1453
X5.3635Y-3.8406
X5.4528Y-4.4252
X5.4573Y-3.0472
X5.4573Y-3.7426
X5.5827Y-3.8465
X5.6181Y-3.874
X5.6575Y-3.9016
X5.7165Y-3.622
X5.7953Y-3.5591
X5.7953Y-3.625
X5.7953Y-3.6821
X5.8524Y-3.4961
X5.8976Y-3.4961
X5.9094Y-4.4075
X5.9094Y-4.4567
X5.9213Y-3.4606
X5.9685Y-3.4331
X5.9721Y-4.0531
X5.9743Y-4.0924
X6.1726Y-3.8228
X6.2362Y-3.6299
X6.2641Y-3.0545
X6.3307Y-3.5325
X6.3664Y-3.0545
X6.4685Y-3.2874
X6.4685Y-3.3661
X6.4685Y-3.4173
X6.4764Y-4.6457
X6.4764Y-4.685
X6.4764Y-4.7244
X6.4764Y-4.7638
X6.4764Y-4.8031
X6.4764Y-4.8425
X6.4764Y-4.8819
X6.4764Y-4.9213
X6.4764Y-4.9606
X6.4764Y-5.0
X6.4764Y-5.0394
X6.4764Y-5.0787
X6.5157Y-4.6457
X6.5157Y-4.685
X6.5157Y-4.7244
X6.5157Y-4.7638
X6.5157Y-4.8031
X6.5157Y-4.8425
X6.5157Y-4.8819
X6.5157Y-4.9213
X6.5157Y-4.9606
X6.5157Y-5.0
X6.5157Y-5.0394
X6.5157Y-5.0787
X6.5285Y-4.4262
X6.5551Y-4.6457
X6.5551Y-4.9213
X6.5551Y-4.9606
X6.5551Y-5.0
X6.5551Y-5.0394
X6.5551Y-5.0787
X6.5945Y-4.6457
X6.5945Y-4.9213
X6.5945Y-4.9606
X6.5945Y-5.0
X6.5945Y-5.0394
X6.5945Y-5.0787
X6.6093Y-3.4803
X6.6339Y-4.6457
X6.6339Y-4.9213
X6.6339Y-4.9606
X6.6339Y-5.0
X6.6339Y-5.0394
X6.6339Y-5.0787
X6.6732Y-4.6457
X6.6732Y-4.9213
X6.6732Y-4.9606
X6.6732Y-5.0
X6.6732Y-5.0394
X6.6732Y-5.0787
X6.7126Y-4.6457
X6.7126Y-4.9213
X6.7126Y-4.9606
X6.7126Y-5.0
X6.7126Y-5.0394
X6.7126Y-5.0787
X6.752Y-4.6457
X6.752Y-4.9213
X6.752Y-4.9606
X6.752Y-5.0
X6.752Y-5.0394
X6.752Y-5.0787
X6.7913Y-4.6457
X6.7913Y-4.9213
X6.7913Y-4.9606
X6.7913Y-5.0
X6.7913Y-5.0394
X6.7913Y-5.0787
X6.8307Y-4.6457
X6.8307Y-4.685
X6.8307Y-4.7244
X6.8307Y-4.7638
X6.8307Y-4.8031
X6.8307Y-4.8425
X6.8307Y-4.8819
X6.8307Y-4.9213
X6.8307Y-4.9606
X6.8307Y-5.0
X6.8307Y-5.0394
X6.8307Y-5.0787
X6.8701Y-4.6457
X6.8701Y-4.685
X6.8701Y-4.7244
X6.8701Y-4.7638
X6.8701Y-4.8031
X6.8701Y-4.8425
X6.8701Y-4.8819
X6.8701Y-4.9213
X6.8701Y-4.9606
X6.8701Y-5.0
X6.8701Y-5.0394
X6.8701Y-5.0787
X7.2704Y-3.9929
X7.275Y-3.6437
X7.2761Y-3.8
X7.4878Y-4.1956
X7.4878Y-4.4003
T2
X7.8656Y-3.2126
X7.905Y-3.1102
X7.905Y-3.315
T3
X4.3583Y-4.4528
X4.3583Y-4.5512
X4.3583Y-4.6496
X4.3583Y-4.748
X4.3652Y-3.1437
X4.3652Y-3.2421
X4.3652Y-3.3406
X4.3652Y-3.439
X4.3652Y-3.8406
X4.3652Y-3.939
X4.3652Y-4.0374
X4.3652Y-4.1358
X4.7618Y-4.9793
X4.8602Y-4.9793
X4.9587Y-4.9793
X5.0571Y-4.9793
X5.3248Y-4.9793
X5.4232Y-4.9793
X5.5217Y-4.9793
X5.6201Y-4.9793
X7.874Y-3.6811
X7.874Y-3.7795
X7.874Y-3.878
X7.874Y-3.9764
X7.874Y-4.252
X7.874Y-4.3504
X7.874Y-4.4488
X7.874Y-4.5472
T4
X4.7722Y-3.3819
X4.7722Y-4.0773
X4.9722Y-3.3819
X4.9722Y-4.0773
X5.6644Y-4.0955
X5.6644Y-4.1955
X5.6644Y-4.2955
X5.7644Y-4.0955
X5.7644Y-4.1955
X5.7644Y-4.2955
X5.8074Y-3.0906
X6.0074Y-3.0906
X6.1811Y-4.7887
X7.126Y-4.7887
T5
X6.8971Y-3.0795
X6.8971Y-3.1795
X6.8971Y-3.2795
X6.8971Y-3.3795
X6.8971Y-3.4795
T6
X7.4899Y-4.8996
X7.6458Y-4.8996
T4
G00X6.1811Y-4.9658
M15
G01X6.1811Y-5.0052
M16
G05
G00X7.126Y-4.9658
M15
G01X7.126Y-5.0052
M16
G05
M30
