%TF.GenerationSoftware,KiCad,Pcbnew,7.0.11-rc3*%
%TF.CreationDate,2026-02-10T16:16:17+08:00*%
%TF.ProjectId,front_dash_unit,66726f6e-745f-4646-9173-685f756e6974,rev?*%
%TF.SameCoordinates,Original*%
%TF.FileFunction,Copper,L2,Bot*%
%TF.FilePolarity,Positive*%
%FSLAX46Y46*%
G04 Gerber Fmt 4.6, Leading zero omitted, Abs format (unit mm)*
G04 Created by KiCad (PCBNEW 7.0.11-rc3) date 2026-02-10 16:16:17*
%MOMM*%
%LPD*%
G01*
G04 APERTURE LIST*
G04 Aperture macros list*
%AMRoundRect*
0 Rectangle with rounded corners*
0 $1 Rounding radius*
0 $2 $3 $4 $5 $6 $7 $8 $9 X,Y pos of 4 corners*
0 Add a 4 corners polygon primitive as box body*
4,1,4,$2,$3,$4,$5,$6,$7,$8,$9,$2,$3,0*
0 Add four circle primitives for the rounded corners*
1,1,$1+$1,$2,$3*
1,1,$1+$1,$4,$5*
1,1,$1+$1,$6,$7*
1,1,$1+$1,$8,$9*
0 Add four rect primitives between the rounded corners*
20,1,$1+$1,$2,$3,$4,$5,0*
20,1,$1+$1,$4,$5,$6,$7,0*
20,1,$1+$1,$6,$7,$8,$9,0*
20,1,$1+$1,$8,$9,$2,$3,0*%
G04 Aperture macros list end*
%TA.AperFunction,ComponentPad*%
%ADD10C,2.400000*%
%TD*%
%TA.AperFunction,ComponentPad*%
%ADD11R,2.000000X2.000000*%
%TD*%
%TA.AperFunction,ComponentPad*%
%ADD12O,2.000000X3.000000*%
%TD*%
%TA.AperFunction,ComponentPad*%
%ADD13RoundRect,0.250000X0.725000X-0.600000X0.725000X0.600000X-0.725000X0.600000X-0.725000X-0.600000X0*%
%TD*%
%TA.AperFunction,ComponentPad*%
%ADD14O,1.950000X1.700000*%
%TD*%
%TA.AperFunction,ComponentPad*%
%ADD15RoundRect,0.250000X-0.600000X-0.725000X0.600000X-0.725000X0.600000X0.725000X-0.600000X0.725000X0*%
%TD*%
%TA.AperFunction,ComponentPad*%
%ADD16O,1.700000X1.950000*%
%TD*%
%TA.AperFunction,ComponentPad*%
%ADD17RoundRect,0.250001X-1.099999X-1.099999X1.099999X-1.099999X1.099999X1.099999X-1.099999X1.099999X0*%
%TD*%
%TA.AperFunction,ComponentPad*%
%ADD18C,2.700000*%
%TD*%
%TA.AperFunction,ComponentPad*%
%ADD19RoundRect,0.250000X-0.725000X0.600000X-0.725000X-0.600000X0.725000X-0.600000X0.725000X0.600000X0*%
%TD*%
%TA.AperFunction,ComponentPad*%
%ADD20R,1.700000X1.700000*%
%TD*%
%TA.AperFunction,ComponentPad*%
%ADD21O,1.700000X1.700000*%
%TD*%
%TA.AperFunction,ComponentPad*%
%ADD22O,3.810000X1.905000*%
%TD*%
%TA.AperFunction,ComponentPad*%
%ADD23C,1.930400*%
%TD*%
%TA.AperFunction,ComponentPad*%
%ADD24O,3.860800X1.930400*%
%TD*%
%TA.AperFunction,SMDPad,CuDef*%
%ADD25RoundRect,0.305575X0.460025X0.412525X-0.460025X0.412525X-0.460025X-0.412525X0.460025X-0.412525X0*%
%TD*%
%TA.AperFunction,SMDPad,CuDef*%
%ADD26RoundRect,0.308511X0.457089X0.416489X-0.457089X0.416489X-0.457089X-0.416489X0.457089X-0.416489X0*%
%TD*%
%TA.AperFunction,SMDPad,CuDef*%
%ADD27RoundRect,0.305575X-0.460025X-0.412525X0.460025X-0.412525X0.460025X0.412525X-0.460025X0.412525X0*%
%TD*%
%TA.AperFunction,SMDPad,CuDef*%
%ADD28RoundRect,0.308511X-0.457089X-0.416489X0.457089X-0.416489X0.457089X0.416489X-0.457089X0.416489X0*%
%TD*%
%TA.AperFunction,SMDPad,CuDef*%
%ADD29RoundRect,0.278125X-0.474375X-0.389375X0.474375X-0.389375X0.474375X0.389375X-0.474375X0.389375X0*%
%TD*%
%TA.AperFunction,SMDPad,CuDef*%
%ADD30RoundRect,0.305575X0.412525X-0.460025X0.412525X0.460025X-0.412525X0.460025X-0.412525X-0.460025X0*%
%TD*%
%TA.AperFunction,SMDPad,CuDef*%
%ADD31RoundRect,0.308511X0.416489X-0.457089X0.416489X0.457089X-0.416489X0.457089X-0.416489X-0.457089X0*%
%TD*%
%TA.AperFunction,ViaPad*%
%ADD32C,0.800000*%
%TD*%
%TA.AperFunction,Conductor*%
%ADD33C,0.250000*%
%TD*%
%TA.AperFunction,Conductor*%
%ADD34C,1.000000*%
%TD*%
G04 APERTURE END LIST*
D10*
%TO.P,Y5,1,1*%
%TO.N,Net-(U9-OSC1)*%
X126293282Y-85900000D03*
%TO.P,Y5,2,2*%
%TO.N,Net-(U9-OSC2)*%
X121213282Y-85900000D03*
%TD*%
%TO.P,Y1,1,1*%
%TO.N,Net-(U3-OSC1)*%
X126293282Y-103562500D03*
%TO.P,Y1,2,2*%
%TO.N,Net-(U3-OSC2)*%
X121213282Y-103562500D03*
%TD*%
D11*
%TO.P,C17,1*%
%TO.N,Net-(U4-FB)*%
X157000000Y-121632323D03*
D12*
%TO.P,C17,2*%
%TO.N,GND*%
X157000000Y-126632323D03*
%TD*%
D13*
%TO.P,J3,1,Pin_1*%
%TO.N,GND*%
X200000000Y-115500000D03*
D14*
%TO.P,J3,2,Pin_2*%
%TO.N,+5V*%
X200000000Y-113000000D03*
%TO.P,J3,3,Pin_3*%
%TO.N,SDA*%
X200000000Y-110500000D03*
%TO.P,J3,4,Pin_4*%
%TO.N,SCL*%
X200000000Y-108000000D03*
%TD*%
D13*
%TO.P,J4,1,Pin_1*%
%TO.N,+5V*%
X200000000Y-101000000D03*
D14*
%TO.P,J4,2,Pin_2*%
%TO.N,GND*%
X200000000Y-98500000D03*
%TO.P,J4,3,Pin_3*%
%TO.N,TXD*%
X200000000Y-96000000D03*
%TO.P,J4,4,Pin_4*%
%TO.N,RXD*%
X200000000Y-93500000D03*
%TD*%
D11*
%TO.P,C15,1*%
%TO.N,+12V*%
X181000000Y-121632323D03*
D12*
%TO.P,C15,2*%
%TO.N,GND*%
X181000000Y-126632323D03*
%TD*%
D15*
%TO.P,J7,1,Pin_1*%
%TO.N,GPIO_1*%
X120950000Y-126475000D03*
D16*
%TO.P,J7,2,Pin_2*%
%TO.N,GPIO_2*%
X123450000Y-126475000D03*
%TO.P,J7,3,Pin_3*%
%TO.N,GPIO_3*%
X125950000Y-126475000D03*
%TO.P,J7,4,Pin_4*%
%TO.N,GPIO_4*%
X128450000Y-126475000D03*
%TD*%
D17*
%TO.P,J5,1,Pin_1*%
%TO.N,+12V*%
X190242500Y-124450000D03*
D18*
%TO.P,J5,2,Pin_2*%
%TO.N,GND*%
X194202500Y-124450000D03*
%TD*%
D19*
%TO.P,J1,1,Pin_1*%
%TO.N,CAN0L*%
X110875000Y-79850000D03*
D14*
%TO.P,J1,2,Pin_2*%
%TO.N,CAN0H*%
X110875000Y-82350000D03*
%TO.P,J1,3,Pin_3*%
%TO.N,GND*%
X110875000Y-84850000D03*
%TO.P,J1,4,Pin_4*%
%TO.N,+5V*%
X110875000Y-87350000D03*
%TD*%
D20*
%TO.P,AVR-ISP1,1,Pin_1*%
%TO.N,MISO*%
X143875000Y-104025000D03*
D21*
%TO.P,AVR-ISP1,2,Pin_2*%
%TO.N,+5V*%
X146415000Y-104025000D03*
%TO.P,AVR-ISP1,3,Pin_3*%
%TO.N,SCK*%
X143875000Y-106565000D03*
%TO.P,AVR-ISP1,4,Pin_4*%
%TO.N,MOSI*%
X146415000Y-106565000D03*
%TO.P,AVR-ISP1,5,Pin_5*%
%TO.N,RST*%
X143875000Y-109105000D03*
%TO.P,AVR-ISP1,6,Pin_6*%
%TO.N,GND*%
X146415000Y-109105000D03*
%TD*%
D19*
%TO.P,J6,1,Pin_1*%
%TO.N,ENC_A*%
X110700000Y-113100000D03*
D14*
%TO.P,J6,2,Pin_2*%
%TO.N,ENC_B*%
X110700000Y-115600000D03*
%TO.P,J6,3,Pin_3*%
%TO.N,GND*%
X110700000Y-118100000D03*
%TO.P,J6,4,Pin_4*%
X110700000Y-120600000D03*
%TD*%
D22*
%TO.P,M1,1,VCC*%
%TO.N,+5V*%
X175187300Y-78220000D03*
%TO.P,M1,2,GND*%
%TO.N,GND*%
X175187300Y-80760000D03*
%TO.P,M1,3,RXD*%
%TO.N,TXD*%
X175187300Y-83300000D03*
%TO.P,M1,4,TXD*%
%TO.N,RXD*%
X175187300Y-85840000D03*
%TO.P,M1,5,SET*%
%TO.N,HC12_SET*%
X175187300Y-88380000D03*
D23*
%TO.P,M1,ANT,ANT*%
%TO.N,unconnected-(M1-PadANT)*%
X199787300Y-81600000D03*
D24*
%TO.P,M1,GND,GND1*%
%TO.N,GND*%
X200787300Y-79000000D03*
%TO.P,M1,GND1,GND1*%
X200787300Y-84200000D03*
%TD*%
D10*
%TO.P,Y2,1,1*%
%TO.N,XTAL2*%
X147506719Y-78500000D03*
%TO.P,Y2,2,2*%
%TO.N,XTAL1*%
X152586719Y-78500000D03*
%TD*%
D19*
%TO.P,J2,1,Pin_1*%
%TO.N,CAN1L*%
X110875000Y-97550000D03*
D14*
%TO.P,J2,2,Pin_2*%
%TO.N,CAN1H*%
X110875000Y-100050000D03*
%TO.P,J2,3,Pin_3*%
%TO.N,GND*%
X110875000Y-102550000D03*
%TO.P,J2,4,Pin_4*%
%TO.N,+5V*%
X110875000Y-105050000D03*
%TD*%
D15*
%TO.P,J8,1,Pin_1*%
%TO.N,GPIO_5*%
X135250000Y-126475000D03*
D16*
%TO.P,J8,2,Pin_2*%
%TO.N,GPIO_6*%
X137750000Y-126475000D03*
%TO.P,J8,3,Pin_3*%
%TO.N,GPIO_7*%
X140250000Y-126475000D03*
%TO.P,J8,4,Pin_4*%
%TO.N,GPIO_8*%
X142750000Y-126475000D03*
%TD*%
D25*
%TO.P,C12,1*%
%TO.N,GND*%
X159215600Y-97093100D03*
D26*
%TO.P,C12,2*%
%TO.N,+5V*%
X156784400Y-97100000D03*
%TD*%
D27*
%TO.P,C3,1*%
%TO.N,GND*%
X136184400Y-95069400D03*
D28*
%TO.P,C3,2*%
%TO.N,+5V*%
X138615600Y-95062500D03*
%TD*%
D29*
%TO.P,R11,1*%
%TO.N,CAN0_CS*%
X136211359Y-82315000D03*
%TO.P,R11,2*%
%TO.N,+5V*%
X138516359Y-82315000D03*
%TD*%
D30*
%TO.P,C22,1*%
%TO.N,GND*%
X125724400Y-80315600D03*
D31*
%TO.P,C22,2*%
%TO.N,+5V*%
X125717500Y-77884400D03*
%TD*%
D27*
%TO.P,C23,1*%
%TO.N,GND*%
X136184400Y-77406900D03*
D28*
%TO.P,C23,2*%
%TO.N,+5V*%
X138615600Y-77400000D03*
%TD*%
D29*
%TO.P,R14,1*%
%TO.N,ENC_B*%
X117897500Y-115682500D03*
%TO.P,R14,2*%
%TO.N,+5V*%
X120202500Y-115682500D03*
%TD*%
D30*
%TO.P,C2,1*%
%TO.N,GND*%
X125724400Y-97978100D03*
D31*
%TO.P,C2,2*%
%TO.N,+5V*%
X125717500Y-95546900D03*
%TD*%
D29*
%TO.P,R12,1*%
%TO.N,CAN1_CS*%
X136211359Y-99977500D03*
%TO.P,R12,2*%
%TO.N,+5V*%
X138516359Y-99977500D03*
%TD*%
%TO.P,R13,1*%
%TO.N,ENC_A*%
X117897500Y-113182500D03*
%TO.P,R13,2*%
%TO.N,+5V*%
X120202500Y-113182500D03*
%TD*%
%TO.P,R10,1*%
%TO.N,Net-(U3-~{RESET})*%
X136232842Y-97552301D03*
%TO.P,R10,2*%
%TO.N,+5V*%
X138537842Y-97552301D03*
%TD*%
%TO.P,R9,1*%
%TO.N,Net-(U9-~{RESET})*%
X136232842Y-79889801D03*
%TO.P,R9,2*%
%TO.N,+5V*%
X138537842Y-79889801D03*
%TD*%
D32*
%TO.N,GND*%
X136200000Y-93800000D03*
X125724400Y-80315600D03*
X165825000Y-112425000D03*
X184667100Y-101420849D03*
X184784400Y-92550000D03*
X184814117Y-96520849D03*
X159106900Y-77584400D03*
X161706900Y-77584400D03*
X158400000Y-92200000D03*
X130191119Y-90006900D03*
X117408882Y-89993100D03*
X117408882Y-107655600D03*
X130191119Y-107669400D03*
X133000000Y-103300000D03*
X133000000Y-85900000D03*
%TO.N,+5V*%
X138615600Y-77400000D03*
X138615600Y-95062500D03*
%TO.N,GND*%
X170500000Y-128000000D03*
X168500000Y-128000000D03*
X169500000Y-128000000D03*
X167500000Y-128000000D03*
X166500000Y-128000000D03*
X165500000Y-128000000D03*
X165500000Y-127000000D03*
X166500000Y-127000000D03*
X167500000Y-127000000D03*
X168500000Y-127000000D03*
X169500000Y-127000000D03*
X170500000Y-127000000D03*
X171500000Y-127000000D03*
X171500000Y-128000000D03*
X172500000Y-128000000D03*
X172500000Y-127000000D03*
X173500000Y-128000000D03*
X173500000Y-127000000D03*
X174500000Y-127000000D03*
X174500000Y-128000000D03*
X174500000Y-129000000D03*
X173500000Y-129000000D03*
X172500000Y-129000000D03*
X171500000Y-129000000D03*
X170500000Y-129000000D03*
X169500000Y-129000000D03*
X168500000Y-129000000D03*
X167500000Y-129000000D03*
X166500000Y-129000000D03*
X165500000Y-129000000D03*
X164500000Y-129000000D03*
X164500000Y-128000000D03*
X164500000Y-127000000D03*
X173500000Y-124000000D03*
X173500000Y-123000000D03*
X173500000Y-122000000D03*
X173500000Y-121000000D03*
X173500000Y-119000000D03*
X173500000Y-120000000D03*
X165500000Y-119000000D03*
X165500000Y-120000000D03*
X165500000Y-121000000D03*
X165500000Y-122000000D03*
X165500000Y-123000000D03*
X165500000Y-124000000D03*
X173500000Y-125000000D03*
X172500000Y-125000000D03*
X171500000Y-125000000D03*
X170500000Y-125000000D03*
X169500000Y-125000000D03*
X168500000Y-125000000D03*
X167500000Y-125000000D03*
X166500000Y-125000000D03*
X165500000Y-125000000D03*
X164500000Y-125000000D03*
X164500000Y-124000000D03*
X164500000Y-123000000D03*
X164500000Y-122000000D03*
X164500000Y-121000000D03*
X164500000Y-120000000D03*
X164500000Y-119000000D03*
X164500000Y-118000000D03*
X165500000Y-118000000D03*
X166500000Y-118000000D03*
X167500000Y-118000000D03*
X168500000Y-118000000D03*
X169500000Y-118000000D03*
X170500000Y-118000000D03*
X171500000Y-118000000D03*
X172500000Y-118000000D03*
X173500000Y-118000000D03*
X174500000Y-118000000D03*
X174500000Y-119000000D03*
X174500000Y-120000000D03*
X174500000Y-121000000D03*
X174500000Y-122000000D03*
X174500000Y-123000000D03*
X174500000Y-124000000D03*
X174500000Y-125000000D03*
X174500000Y-126000000D03*
X173500000Y-126000000D03*
X172500000Y-126000000D03*
X171500000Y-126000000D03*
X170500000Y-126000000D03*
X169500000Y-126000000D03*
X168500000Y-126000000D03*
X167500000Y-126000000D03*
X166500000Y-126000000D03*
X165500000Y-126000000D03*
X164500000Y-126000000D03*
%TO.N,HC12_SET*%
X148650000Y-88800000D03*
X167875000Y-88400000D03*
%TO.N,+5V*%
X134250000Y-73700000D03*
X190189290Y-106567500D03*
X190189290Y-111767500D03*
%TO.N,ENC_A*%
X117897500Y-113182500D03*
%TO.N,ENC_B*%
X117897500Y-115682500D03*
X150100000Y-113200000D03*
%TO.N,ENC_A*%
X150100000Y-111950000D03*
%TO.N,+5V*%
X156784400Y-97100000D03*
%TO.N,RST*%
X160800000Y-89725000D03*
%TO.N,GPIO_8*%
X149800000Y-88800000D03*
%TO.N,GPIO_7*%
X150400000Y-87900000D03*
%TO.N,GPIO_6*%
X151600000Y-87200000D03*
%TO.N,GPIO_5*%
X164300000Y-83500000D03*
%TO.N,GPIO_4*%
X164300000Y-85500000D03*
%TO.N,GPIO_3*%
X164300000Y-86800000D03*
%TO.N,GPIO_2*%
X151746357Y-103946357D03*
%TO.N,GPIO_1*%
X151691666Y-102947851D03*
%TO.N,+5V*%
X138500000Y-112400000D03*
%TO.N,GND*%
X125724400Y-97978100D03*
%TO.N,+5V*%
X125717500Y-77884400D03*
X125717500Y-95546900D03*
%TO.N,MOSI*%
X143700000Y-99100000D03*
X147200000Y-93525000D03*
X147200000Y-92075000D03*
%TO.N,MISO*%
X145200000Y-92000000D03*
X142700000Y-98400000D03*
%TO.N,CAN1_CS*%
X136211359Y-99977500D03*
X141800000Y-97700000D03*
X147200000Y-90400000D03*
%TO.N,CAN0_CS*%
X136211359Y-82315000D03*
%TO.N,Net-(U9-~{RESET})*%
X136232842Y-79889801D03*
%TO.N,Net-(U3-~{RESET})*%
X136232842Y-97552301D03*
%TD*%
D33*
%TO.N,RXD*%
X195640000Y-85540000D02*
X175187300Y-85540000D01*
X196250000Y-86150000D02*
X195640000Y-85540000D01*
X197300000Y-93500000D02*
X196250000Y-92450000D01*
X196250000Y-92450000D02*
X196250000Y-86150000D01*
X200000000Y-93500000D02*
X197300000Y-93500000D01*
%TO.N,TXD*%
X177300000Y-83000000D02*
X175187300Y-83000000D01*
X179390000Y-85090000D02*
X177300000Y-83000000D01*
X195826396Y-85090000D02*
X179390000Y-85090000D01*
X196700000Y-90800000D02*
X196700000Y-85963604D01*
X197600000Y-91700000D02*
X196700000Y-90800000D01*
X202000000Y-92500000D02*
X201200000Y-91700000D01*
X201200000Y-91700000D02*
X197600000Y-91700000D01*
X202000000Y-95100000D02*
X202000000Y-92500000D01*
X196700000Y-85963604D02*
X195826396Y-85090000D01*
X200000000Y-96000000D02*
X201100000Y-96000000D01*
X201100000Y-96000000D02*
X202000000Y-95100000D01*
%TO.N,HC12_SET*%
X148650000Y-87377208D02*
X148650000Y-88800000D01*
X149913604Y-86113604D02*
X148650000Y-87377208D01*
X150527208Y-85500000D02*
X149913604Y-86113604D01*
X152409188Y-85500000D02*
X150527208Y-85500000D01*
X154054594Y-87145406D02*
X152409188Y-85500000D01*
X154559188Y-87650000D02*
X154054594Y-87145406D01*
X160940812Y-87650000D02*
X158550000Y-87650000D01*
X162045406Y-86545406D02*
X160940812Y-87650000D01*
X162045406Y-82670711D02*
X162045406Y-86545406D01*
X163402513Y-81313604D02*
X162045406Y-82670711D01*
X163666117Y-81050000D02*
X163402513Y-81313604D01*
X165922792Y-81050000D02*
X163666117Y-81050000D01*
X167875000Y-83002208D02*
X167336396Y-82463604D01*
X158550000Y-87650000D02*
X154559188Y-87650000D01*
X167336396Y-82463604D02*
X165922792Y-81050000D01*
X167875000Y-88400000D02*
X167875000Y-83002208D01*
D34*
%TO.N,+5V*%
X134250000Y-73700000D02*
X126700000Y-73700000D01*
X137700000Y-73700000D02*
X134250000Y-73700000D01*
X190189290Y-111767500D02*
X190189290Y-106567500D01*
X191421790Y-113000000D02*
X190189290Y-111767500D01*
X200000000Y-113000000D02*
X191421790Y-113000000D01*
D33*
%TO.N,ENC_A*%
X114850000Y-113100000D02*
X110700000Y-113100000D01*
X116136396Y-118100000D02*
X115250000Y-117213604D01*
X146963604Y-118100000D02*
X116136396Y-118100000D01*
X115250000Y-117213604D02*
X115250000Y-113500000D01*
X115250000Y-113500000D02*
X114850000Y-113100000D01*
X149375000Y-115688604D02*
X146963604Y-118100000D01*
X149375000Y-112675000D02*
X149375000Y-115688604D01*
X150100000Y-111950000D02*
X149375000Y-112675000D01*
%TO.N,ENC_B*%
X114450000Y-115600000D02*
X110700000Y-115600000D01*
X114800000Y-117400000D02*
X114800000Y-115950000D01*
X115950000Y-118550000D02*
X114800000Y-117400000D01*
X114800000Y-115950000D02*
X114450000Y-115600000D01*
X147150000Y-118550000D02*
X115950000Y-118550000D01*
X150100000Y-115600000D02*
X147150000Y-118550000D01*
X150100000Y-113200000D02*
X150100000Y-115600000D01*
%TO.N,GPIO_1*%
X147395228Y-120050000D02*
X122450000Y-120050000D01*
X151150000Y-105445228D02*
X151150000Y-116295228D01*
X120950000Y-121550000D02*
X120950000Y-126475000D01*
X151021357Y-103646052D02*
X151021357Y-105316585D01*
X122450000Y-120050000D02*
X120950000Y-121550000D01*
X151691666Y-102975743D02*
X151021357Y-103646052D01*
X151150000Y-116295228D02*
X147395228Y-120050000D01*
X151691666Y-102947851D02*
X151691666Y-102975743D01*
X151021357Y-105316585D02*
X151150000Y-105445228D01*
%TO.N,GPIO_2*%
X124850000Y-120500000D02*
X123450000Y-121900000D01*
X123450000Y-121900000D02*
X123450000Y-126475000D01*
X151600000Y-105592714D02*
X151600000Y-116481624D01*
X151746357Y-105446357D02*
X151600000Y-105592714D01*
X151600000Y-116481624D02*
X147581624Y-120500000D01*
X151746357Y-103946357D02*
X151746357Y-105446357D01*
X147581624Y-120500000D02*
X124850000Y-120500000D01*
%TO.N,GPIO_3*%
X125950000Y-122750000D02*
X125950000Y-126475000D01*
X127750000Y-120950000D02*
X125950000Y-122750000D01*
X152050000Y-105818020D02*
X152050000Y-116668020D01*
X152050000Y-116668020D02*
X147768020Y-120950000D01*
X154268020Y-103600000D02*
X152050000Y-105818020D01*
X157000000Y-103600000D02*
X154268020Y-103600000D01*
X164300000Y-96300000D02*
X157000000Y-103600000D01*
X164300000Y-86800000D02*
X164300000Y-96300000D01*
X147768020Y-120950000D02*
X127750000Y-120950000D01*
%TO.N,GPIO_4*%
X165200000Y-86400000D02*
X164300000Y-85500000D01*
X165200000Y-96036396D02*
X165200000Y-86400000D01*
X157186396Y-104050000D02*
X165200000Y-96036396D01*
X152500000Y-106004416D02*
X154454416Y-104050000D01*
X152500000Y-116854416D02*
X152500000Y-106004416D01*
X147954416Y-121400000D02*
X152500000Y-116854416D01*
X129900000Y-121400000D02*
X147954416Y-121400000D01*
X128450000Y-122850000D02*
X129900000Y-121400000D01*
X154454416Y-104050000D02*
X157186396Y-104050000D01*
X128450000Y-126475000D02*
X128450000Y-122850000D01*
%TO.N,GPIO_5*%
X135250000Y-123550000D02*
X135250000Y-126475000D01*
X136950000Y-121850000D02*
X135250000Y-123550000D01*
X148140812Y-121850000D02*
X136950000Y-121850000D01*
X152950000Y-106190812D02*
X152950000Y-117040812D01*
X154640812Y-104500000D02*
X152950000Y-106190812D01*
X165800000Y-96072792D02*
X157372792Y-104500000D01*
X157372792Y-104500000D02*
X154640812Y-104500000D01*
X165800000Y-85000000D02*
X165800000Y-96072792D01*
X152950000Y-117040812D02*
X148140812Y-121850000D01*
X164300000Y-83500000D02*
X165800000Y-85000000D01*
%TO.N,GPIO_6*%
X153400000Y-89000000D02*
X151600000Y-87200000D01*
X163575000Y-86925000D02*
X161500000Y-89000000D01*
X163575000Y-83050305D02*
X163575000Y-86925000D01*
X164225305Y-82400000D02*
X163575000Y-83050305D01*
X165363604Y-82400000D02*
X164225305Y-82400000D01*
X166250000Y-83286396D02*
X165363604Y-82400000D01*
X161500000Y-89000000D02*
X153400000Y-89000000D01*
X166250000Y-96259188D02*
X166250000Y-83286396D01*
X154827208Y-104950000D02*
X157559188Y-104950000D01*
X157559188Y-104950000D02*
X166250000Y-96259188D01*
X153400000Y-106377208D02*
X154827208Y-104950000D01*
X153400000Y-117227208D02*
X153400000Y-106377208D01*
X137750000Y-123750000D02*
X139200000Y-122300000D01*
X148327208Y-122300000D02*
X153400000Y-117227208D01*
X139200000Y-122300000D02*
X148327208Y-122300000D01*
X137750000Y-126475000D02*
X137750000Y-123750000D01*
%TO.N,GPIO_7*%
X150900000Y-86400000D02*
X150400000Y-86900000D01*
X152036396Y-86400000D02*
X150900000Y-86400000D01*
X154186396Y-88550000D02*
X152036396Y-86400000D01*
X161313604Y-88550000D02*
X154186396Y-88550000D01*
X163125000Y-86738604D02*
X161313604Y-88550000D01*
X163125000Y-82863909D02*
X163125000Y-86738604D01*
X164038909Y-81950000D02*
X163125000Y-82863909D01*
X165550000Y-81950000D02*
X164038909Y-81950000D01*
X166700000Y-83100000D02*
X165550000Y-81950000D01*
X150400000Y-86900000D02*
X150400000Y-87900000D01*
X166700000Y-96445584D02*
X166700000Y-83100000D01*
X153850000Y-117413604D02*
X153850000Y-106563604D01*
X153850000Y-106563604D02*
X155013604Y-105400000D01*
X155013604Y-105400000D02*
X157745584Y-105400000D01*
X148513604Y-122750000D02*
X153850000Y-117413604D01*
X157745584Y-105400000D02*
X166700000Y-96445584D01*
X141150000Y-122750000D02*
X148513604Y-122750000D01*
X140250000Y-123650000D02*
X141150000Y-122750000D01*
X140250000Y-126475000D02*
X140250000Y-123650000D01*
%TO.N,GPIO_8*%
X142750000Y-123950000D02*
X142750000Y-126475000D01*
X143500000Y-123200000D02*
X142750000Y-123950000D01*
X148700000Y-123200000D02*
X143500000Y-123200000D01*
X154300000Y-117600000D02*
X148700000Y-123200000D01*
X154300000Y-106750000D02*
X154300000Y-117600000D01*
X155200000Y-105850000D02*
X154300000Y-106750000D01*
X157931980Y-105850000D02*
X155200000Y-105850000D01*
X167150000Y-96631980D02*
X157931980Y-105850000D01*
X167150000Y-82913604D02*
X167150000Y-96631980D01*
X163852513Y-81500000D02*
X165736396Y-81500000D01*
X162675000Y-82677513D02*
X163852513Y-81500000D01*
X162675000Y-86552208D02*
X162675000Y-82677513D01*
X161127208Y-88100000D02*
X162675000Y-86552208D01*
X154372792Y-88100000D02*
X161127208Y-88100000D01*
X152222792Y-85950000D02*
X154372792Y-88100000D01*
X149675000Y-86988604D02*
X150713604Y-85950000D01*
X165736396Y-81500000D02*
X167150000Y-82913604D01*
X149675000Y-88675000D02*
X149675000Y-86988604D01*
X150713604Y-85950000D02*
X152222792Y-85950000D01*
X149800000Y-88800000D02*
X149675000Y-88675000D01*
%TO.N,RST*%
X143875000Y-110975000D02*
X143875000Y-109105000D01*
X149400000Y-110300000D02*
X148400000Y-111300000D01*
X144200000Y-111300000D02*
X143875000Y-110975000D01*
X149400000Y-103800000D02*
X149400000Y-110300000D01*
X148400000Y-111300000D02*
X144200000Y-111300000D01*
X160800000Y-99163604D02*
X157963604Y-102000000D01*
X157963604Y-102000000D02*
X151200000Y-102000000D01*
X151200000Y-102000000D02*
X149400000Y-103800000D01*
X160800000Y-89725000D02*
X160800000Y-99163604D01*
%TO.N,MOSI*%
X147200000Y-93525000D02*
X147200000Y-101500000D01*
X147200000Y-101500000D02*
X148200000Y-101500000D01*
X144100000Y-101500000D02*
X147200000Y-101500000D01*
D34*
%TO.N,+5V*%
X126700000Y-73700000D02*
X125717500Y-74682500D01*
X138615600Y-74615600D02*
X137700000Y-73700000D01*
X138615600Y-77400000D02*
X138615600Y-74615600D01*
X125717500Y-74682500D02*
X125717500Y-77884400D01*
X138516359Y-77499241D02*
X138615600Y-77400000D01*
X138516359Y-82315000D02*
X138516359Y-77499241D01*
X138615600Y-82414241D02*
X138516359Y-82315000D01*
X138615600Y-95062500D02*
X138615600Y-82414241D01*
X138615600Y-93215600D02*
X138615600Y-95062500D01*
X137900000Y-92500000D02*
X138615600Y-93215600D01*
X126800000Y-92500000D02*
X137900000Y-92500000D01*
X125717500Y-93582500D02*
X126800000Y-92500000D01*
X125717500Y-95546900D02*
X125717500Y-93582500D01*
X107400000Y-103700000D02*
X108750000Y-105050000D01*
X107400000Y-90300000D02*
X107400000Y-103700000D01*
X110350000Y-87350000D02*
X107400000Y-90300000D01*
X108750000Y-105050000D02*
X110875000Y-105050000D01*
X110875000Y-87350000D02*
X110350000Y-87350000D01*
X119200000Y-110200000D02*
X120202500Y-111202500D01*
X113000000Y-110200000D02*
X119200000Y-110200000D01*
X120202500Y-111202500D02*
X120202500Y-113182500D01*
X110875000Y-108075000D02*
X113000000Y-110200000D01*
X110875000Y-105050000D02*
X110875000Y-108075000D01*
X120202500Y-115682500D02*
X120202500Y-113182500D01*
X137717500Y-113182500D02*
X138500000Y-112400000D01*
X120202500Y-113182500D02*
X137717500Y-113182500D01*
X138516359Y-112383641D02*
X138516359Y-99977500D01*
X138500000Y-112400000D02*
X138516359Y-112383641D01*
X138516359Y-95161741D02*
X138615600Y-95062500D01*
X138516359Y-99977500D02*
X138516359Y-95161741D01*
D33*
%TO.N,MOSI*%
X143700000Y-99100000D02*
X143700000Y-101100000D01*
X143700000Y-101100000D02*
X144100000Y-101500000D01*
X148135000Y-106565000D02*
X146415000Y-106565000D01*
X148800000Y-105900000D02*
X148135000Y-106565000D01*
X148800000Y-102100000D02*
X148800000Y-105900000D01*
X147200000Y-93525000D02*
X147200000Y-92075000D01*
X148200000Y-101500000D02*
X148800000Y-102100000D01*
%TO.N,MISO*%
X142700000Y-98400000D02*
X142700000Y-92700000D01*
X142700000Y-92700000D02*
X143400000Y-92000000D01*
X143400000Y-92000000D02*
X145200000Y-92000000D01*
X142700000Y-102700000D02*
X143875000Y-103875000D01*
X142700000Y-98400000D02*
X142700000Y-102700000D01*
X143875000Y-103875000D02*
X143875000Y-104025000D01*
%TO.N,CAN1_CS*%
X143300000Y-90400000D02*
X141800000Y-91900000D01*
X141800000Y-91900000D02*
X141800000Y-97700000D01*
X147200000Y-90400000D02*
X143300000Y-90400000D01*
%TD*%
%TA.AperFunction,Conductor*%
%TO.N,GND*%
G36*
X110950000Y-120191981D02*
G01*
X110835199Y-120139554D01*
X110733975Y-120125000D01*
X110666025Y-120125000D01*
X110564801Y-120139554D01*
X110450000Y-120191981D01*
X110450000Y-118508018D01*
X110564801Y-118560446D01*
X110666025Y-118575000D01*
X110733975Y-118575000D01*
X110835199Y-118560446D01*
X110950000Y-118508018D01*
X110950000Y-120191981D01*
G37*
%TD.AperFunction*%
%TA.AperFunction,Conductor*%
G36*
X148993834Y-106269005D02*
G01*
X149049767Y-106310877D01*
X149074184Y-106376341D01*
X149074500Y-106385187D01*
X149074500Y-110113812D01*
X149054815Y-110180851D01*
X149038181Y-110201493D01*
X148301493Y-110938181D01*
X148240170Y-110971666D01*
X148213812Y-110974500D01*
X144386189Y-110974500D01*
X144319150Y-110954815D01*
X144298508Y-110938181D01*
X144236819Y-110876492D01*
X144203334Y-110815169D01*
X144200500Y-110788811D01*
X144200500Y-110195583D01*
X144220185Y-110128544D01*
X144272989Y-110082789D01*
X144277049Y-110081021D01*
X144278945Y-110080234D01*
X144278954Y-110080232D01*
X144461450Y-109982685D01*
X144621410Y-109851410D01*
X144752685Y-109691450D01*
X144850232Y-109508954D01*
X144870406Y-109442446D01*
X144908702Y-109384010D01*
X144972514Y-109355553D01*
X145041581Y-109366112D01*
X145093975Y-109412336D01*
X145108841Y-109446349D01*
X145141567Y-109568486D01*
X145141570Y-109568492D01*
X145241399Y-109782578D01*
X145376894Y-109976082D01*
X145543917Y-110143105D01*
X145737421Y-110278600D01*
X145951507Y-110378429D01*
X145951516Y-110378433D01*
X146165000Y-110435634D01*
X146165000Y-109540501D01*
X146272685Y-109589680D01*
X146379237Y-109605000D01*
X146450763Y-109605000D01*
X146557315Y-109589680D01*
X146665000Y-109540501D01*
X146665000Y-110435633D01*
X146878483Y-110378433D01*
X146878492Y-110378429D01*
X147092578Y-110278600D01*
X147286082Y-110143105D01*
X147453105Y-109976082D01*
X147588600Y-109782578D01*
X147688429Y-109568492D01*
X147688432Y-109568486D01*
X147745636Y-109355000D01*
X146848686Y-109355000D01*
X146874493Y-109314844D01*
X146915000Y-109176889D01*
X146915000Y-109033111D01*
X146874493Y-108895156D01*
X146848686Y-108855000D01*
X147745636Y-108855000D01*
X147745635Y-108854999D01*
X147688432Y-108641513D01*
X147688429Y-108641507D01*
X147588600Y-108427422D01*
X147588599Y-108427420D01*
X147453113Y-108233926D01*
X147453108Y-108233920D01*
X147286082Y-108066894D01*
X147092578Y-107931399D01*
X146878492Y-107831570D01*
X146878486Y-107831567D01*
X146756349Y-107798841D01*
X146696689Y-107762476D01*
X146666160Y-107699629D01*
X146674455Y-107630253D01*
X146718940Y-107576375D01*
X146752444Y-107560407D01*
X146818954Y-107540232D01*
X147001450Y-107442685D01*
X147161410Y-107311410D01*
X147292685Y-107151450D01*
X147390232Y-106968954D01*
X147390234Y-106968945D01*
X147391021Y-106967049D01*
X147391701Y-106966203D01*
X147393104Y-106963581D01*
X147393601Y-106963846D01*
X147434862Y-106912645D01*
X147501156Y-106890579D01*
X147505583Y-106890500D01*
X148115372Y-106890500D01*
X148126180Y-106890971D01*
X148163807Y-106894264D01*
X148200319Y-106884479D01*
X148210830Y-106882149D01*
X148248045Y-106875588D01*
X148248050Y-106875584D01*
X148253099Y-106873747D01*
X148269824Y-106866819D01*
X148274681Y-106864554D01*
X148274684Y-106864554D01*
X148305625Y-106842887D01*
X148314744Y-106837079D01*
X148347455Y-106818194D01*
X148347457Y-106818192D01*
X148371736Y-106789256D01*
X148379036Y-106781288D01*
X148862819Y-106297506D01*
X148924142Y-106264021D01*
X148993834Y-106269005D01*
G37*
%TD.AperFunction*%
%TA.AperFunction,Conductor*%
G36*
X204942539Y-69020185D02*
G01*
X204988294Y-69072989D01*
X204999500Y-69124500D01*
X204999500Y-131875500D01*
X204979815Y-131942539D01*
X204927011Y-131988294D01*
X204875500Y-131999500D01*
X104124500Y-131999500D01*
X104057461Y-131979815D01*
X104011706Y-131927011D01*
X104000500Y-131875500D01*
X104000500Y-128067763D01*
X106145787Y-128067763D01*
X106175413Y-128337013D01*
X106175415Y-128337024D01*
X106243926Y-128599082D01*
X106243928Y-128599088D01*
X106349870Y-128848390D01*
X106421998Y-128966575D01*
X106490979Y-129079605D01*
X106490986Y-129079615D01*
X106664253Y-129287819D01*
X106664259Y-129287824D01*
X106865998Y-129468582D01*
X107091910Y-129618044D01*
X107337176Y-129733020D01*
X107337183Y-129733022D01*
X107337185Y-129733023D01*
X107596557Y-129811057D01*
X107596564Y-129811058D01*
X107596569Y-129811060D01*
X107864561Y-129850500D01*
X107864566Y-129850500D01*
X108067629Y-129850500D01*
X108067631Y-129850500D01*
X108067636Y-129850499D01*
X108067648Y-129850499D01*
X108105191Y-129847750D01*
X108270156Y-129835677D01*
X108382758Y-129810593D01*
X108534546Y-129776782D01*
X108534548Y-129776781D01*
X108534553Y-129776780D01*
X108787558Y-129680014D01*
X109023777Y-129547441D01*
X109238177Y-129381888D01*
X109426186Y-129186881D01*
X109583799Y-128966579D01*
X109657787Y-128822669D01*
X109707649Y-128725690D01*
X109707651Y-128725684D01*
X109707656Y-128725675D01*
X109795118Y-128469305D01*
X109844319Y-128202933D01*
X109854212Y-127932235D01*
X109824586Y-127662982D01*
X109756072Y-127400912D01*
X109650130Y-127151610D01*
X109509018Y-126920390D01*
X109419747Y-126813119D01*
X109335746Y-126712180D01*
X109335740Y-126712175D01*
X109134002Y-126531418D01*
X108908092Y-126381957D01*
X108908090Y-126381956D01*
X108662824Y-126266980D01*
X108662819Y-126266978D01*
X108662814Y-126266976D01*
X108403442Y-126188942D01*
X108403428Y-126188939D01*
X108287791Y-126171921D01*
X108135439Y-126149500D01*
X107932369Y-126149500D01*
X107932351Y-126149500D01*
X107729844Y-126164323D01*
X107729831Y-126164325D01*
X107465453Y-126223217D01*
X107465446Y-126223220D01*
X107212439Y-126319987D01*
X106976226Y-126452557D01*
X106761822Y-126618112D01*
X106573822Y-126813109D01*
X106573816Y-126813116D01*
X106416202Y-127033419D01*
X106416199Y-127033424D01*
X106292350Y-127274309D01*
X106292343Y-127274327D01*
X106204884Y-127530685D01*
X106204881Y-127530699D01*
X106155681Y-127797068D01*
X106155680Y-127797075D01*
X106145787Y-128067763D01*
X104000500Y-128067763D01*
X104000500Y-120850000D01*
X109244364Y-120850000D01*
X109301567Y-121063486D01*
X109301570Y-121063492D01*
X109401399Y-121277577D01*
X109401400Y-121277579D01*
X109536886Y-121471073D01*
X109536891Y-121471079D01*
X109703920Y-121638108D01*
X109703926Y-121638113D01*
X109897420Y-121773599D01*
X109897422Y-121773600D01*
X110111507Y-121873429D01*
X110111516Y-121873433D01*
X110339678Y-121934568D01*
X110450000Y-121944219D01*
X110450000Y-121008018D01*
X110564801Y-121060446D01*
X110666025Y-121075000D01*
X110733975Y-121075000D01*
X110835199Y-121060446D01*
X110950000Y-121008018D01*
X110950000Y-121944219D01*
X111060320Y-121934568D01*
X111060323Y-121934568D01*
X111288483Y-121873433D01*
X111288492Y-121873429D01*
X111502577Y-121773600D01*
X111502579Y-121773599D01*
X111696073Y-121638113D01*
X111696079Y-121638108D01*
X111863105Y-121471082D01*
X111998600Y-121277578D01*
X112098429Y-121063492D01*
X112098432Y-121063486D01*
X112155636Y-120850000D01*
X111103969Y-120850000D01*
X111136519Y-120799351D01*
X111175000Y-120668295D01*
X111175000Y-120531705D01*
X111136519Y-120400649D01*
X111103969Y-120350000D01*
X112155636Y-120350000D01*
X112155635Y-120349999D01*
X112098432Y-120136513D01*
X112098429Y-120136507D01*
X111998600Y-119922422D01*
X111998599Y-119922420D01*
X111863113Y-119728926D01*
X111863108Y-119728920D01*
X111696079Y-119561891D01*
X111696073Y-119561886D01*
X111538532Y-119451575D01*
X111494907Y-119396998D01*
X111487713Y-119327500D01*
X111519236Y-119265145D01*
X111538532Y-119248425D01*
X111696073Y-119138113D01*
X111696079Y-119138108D01*
X111863105Y-118971082D01*
X111998600Y-118777578D01*
X112098429Y-118563492D01*
X112098432Y-118563486D01*
X112155636Y-118350000D01*
X111103969Y-118350000D01*
X111136519Y-118299351D01*
X111175000Y-118168295D01*
X111175000Y-118031705D01*
X111136519Y-117900649D01*
X111103969Y-117850000D01*
X112155636Y-117850000D01*
X112155635Y-117849999D01*
X112098432Y-117636513D01*
X112098429Y-117636507D01*
X111998600Y-117422422D01*
X111998599Y-117422420D01*
X111863113Y-117228926D01*
X111863108Y-117228920D01*
X111696079Y-117061891D01*
X111696073Y-117061886D01*
X111502579Y-116926400D01*
X111502577Y-116926399D01*
X111288492Y-116826570D01*
X111288486Y-116826567D01*
X111236366Y-116812602D01*
X111176706Y-116776237D01*
X111146177Y-116713390D01*
X111154472Y-116644014D01*
X111198957Y-116590136D01*
X111223662Y-116578364D01*
X111223330Y-116577562D01*
X111228948Y-116575234D01*
X111228948Y-116575233D01*
X111228954Y-116575232D01*
X111411450Y-116477685D01*
X111571410Y-116346410D01*
X111702685Y-116186450D01*
X111800232Y-116003954D01*
X111800234Y-116003945D01*
X111801021Y-116002049D01*
X111801701Y-116001203D01*
X111803104Y-115998581D01*
X111803601Y-115998846D01*
X111844862Y-115947645D01*
X111911156Y-115925579D01*
X111915583Y-115925500D01*
X114263812Y-115925500D01*
X114330851Y-115945185D01*
X114351493Y-115961819D01*
X114438181Y-116048507D01*
X114471666Y-116109830D01*
X114474500Y-116136188D01*
X114474500Y-117380372D01*
X114474028Y-117391181D01*
X114470735Y-117428808D01*
X114480512Y-117465298D01*
X114482852Y-117475852D01*
X114489411Y-117513042D01*
X114491235Y-117518055D01*
X114498197Y-117534861D01*
X114500446Y-117539684D01*
X114522104Y-117570616D01*
X114527914Y-117579734D01*
X114546806Y-117612455D01*
X114566294Y-117628807D01*
X114575743Y-117636736D01*
X114583718Y-117644044D01*
X115705950Y-118766276D01*
X115713257Y-118774250D01*
X115737541Y-118803190D01*
X115737543Y-118803191D01*
X115737545Y-118803194D01*
X115737547Y-118803195D01*
X115737548Y-118803196D01*
X115770256Y-118822080D01*
X115779379Y-118827892D01*
X115810316Y-118849554D01*
X115810319Y-118849554D01*
X115815176Y-118851820D01*
X115831933Y-118858760D01*
X115836953Y-118860587D01*
X115836955Y-118860588D01*
X115874143Y-118867145D01*
X115884706Y-118869487D01*
X115921193Y-118879264D01*
X115958823Y-118875971D01*
X115969630Y-118875500D01*
X147130372Y-118875500D01*
X147141180Y-118875971D01*
X147178807Y-118879264D01*
X147215319Y-118869479D01*
X147225830Y-118867149D01*
X147263045Y-118860588D01*
X147263050Y-118860584D01*
X147268099Y-118858747D01*
X147284824Y-118851819D01*
X147289681Y-118849554D01*
X147289684Y-118849554D01*
X147320625Y-118827887D01*
X147329739Y-118822082D01*
X147362455Y-118803194D01*
X147362459Y-118803190D01*
X147383949Y-118777578D01*
X147386741Y-118774250D01*
X147394036Y-118766288D01*
X150316290Y-115844034D01*
X150324243Y-115836746D01*
X150353194Y-115812455D01*
X150372082Y-115779739D01*
X150377887Y-115770625D01*
X150399554Y-115739684D01*
X150399554Y-115739681D01*
X150401819Y-115734824D01*
X150408747Y-115718099D01*
X150410584Y-115713050D01*
X150410588Y-115713045D01*
X150417149Y-115675830D01*
X150419479Y-115665319D01*
X150429264Y-115628807D01*
X150425971Y-115591180D01*
X150425500Y-115580372D01*
X150425500Y-113768298D01*
X150445185Y-113701259D01*
X150474010Y-113669925D01*
X150528282Y-113628282D01*
X150602124Y-113532049D01*
X150658552Y-113490846D01*
X150728298Y-113486691D01*
X150789218Y-113520903D01*
X150821971Y-113582621D01*
X150824500Y-113607535D01*
X150824500Y-116109039D01*
X150804815Y-116176078D01*
X150788181Y-116196720D01*
X147296721Y-119688181D01*
X147235398Y-119721666D01*
X147209040Y-119724500D01*
X122469617Y-119724500D01*
X122458808Y-119724028D01*
X122421192Y-119720736D01*
X122421191Y-119720736D01*
X122384711Y-119730511D01*
X122374156Y-119732852D01*
X122336954Y-119739412D01*
X122331962Y-119741229D01*
X122315117Y-119748206D01*
X122310313Y-119750446D01*
X122279378Y-119772107D01*
X122270261Y-119777916D01*
X122237548Y-119796804D01*
X122237545Y-119796806D01*
X122237543Y-119796807D01*
X122237542Y-119796809D01*
X122213261Y-119825744D01*
X122205956Y-119833715D01*
X120733715Y-121305957D01*
X120725742Y-121313264D01*
X120696805Y-121337545D01*
X120677914Y-121370264D01*
X120672105Y-121379381D01*
X120650446Y-121410313D01*
X120648206Y-121415117D01*
X120641229Y-121431961D01*
X120639410Y-121436960D01*
X120632852Y-121474148D01*
X120630512Y-121484703D01*
X120620735Y-121521191D01*
X120620735Y-121521192D01*
X120624028Y-121558817D01*
X120624500Y-121569626D01*
X120624500Y-125175500D01*
X120604815Y-125242539D01*
X120552011Y-125288294D01*
X120500500Y-125299500D01*
X120295730Y-125299500D01*
X120265300Y-125302353D01*
X120265298Y-125302353D01*
X120137119Y-125347206D01*
X120137117Y-125347207D01*
X120027850Y-125427850D01*
X119947207Y-125537117D01*
X119947206Y-125537119D01*
X119902353Y-125665298D01*
X119902353Y-125665300D01*
X119899500Y-125695730D01*
X119899500Y-127254269D01*
X119902353Y-127284699D01*
X119902353Y-127284701D01*
X119943020Y-127400917D01*
X119947207Y-127412882D01*
X120027850Y-127522150D01*
X120137118Y-127602793D01*
X120179845Y-127617744D01*
X120265299Y-127647646D01*
X120295730Y-127650500D01*
X120295734Y-127650500D01*
X121604270Y-127650500D01*
X121634699Y-127647646D01*
X121634701Y-127647646D01*
X121698790Y-127625219D01*
X121762882Y-127602793D01*
X121872150Y-127522150D01*
X121952793Y-127412882D01*
X121976052Y-127346410D01*
X121997646Y-127284701D01*
X121997646Y-127284699D01*
X122000500Y-127254269D01*
X122000500Y-125695730D01*
X121997646Y-125665300D01*
X121997646Y-125665298D01*
X121952793Y-125537119D01*
X121952792Y-125537117D01*
X121872150Y-125427850D01*
X121762882Y-125347207D01*
X121762880Y-125347206D01*
X121634700Y-125302353D01*
X121604270Y-125299500D01*
X121604266Y-125299500D01*
X121399500Y-125299500D01*
X121332461Y-125279815D01*
X121286706Y-125227011D01*
X121275500Y-125175500D01*
X121275500Y-121736188D01*
X121295185Y-121669149D01*
X121311819Y-121648507D01*
X122548508Y-120411819D01*
X122609831Y-120378334D01*
X122636189Y-120375500D01*
X124214812Y-120375500D01*
X124281851Y-120395185D01*
X124327606Y-120447989D01*
X124337550Y-120517147D01*
X124308525Y-120580703D01*
X124302493Y-120587181D01*
X123233715Y-121655957D01*
X123225742Y-121663264D01*
X123196805Y-121687545D01*
X123177914Y-121720264D01*
X123172105Y-121729381D01*
X123150446Y-121760313D01*
X123148206Y-121765117D01*
X123141229Y-121781961D01*
X123139410Y-121786960D01*
X123132852Y-121824148D01*
X123130512Y-121834703D01*
X123120735Y-121871191D01*
X123120735Y-121871192D01*
X123124028Y-121908817D01*
X123124500Y-121919626D01*
X123124500Y-125259417D01*
X123104815Y-125326456D01*
X123052011Y-125372211D01*
X123047951Y-125373979D01*
X123046045Y-125374768D01*
X122968991Y-125415955D01*
X122863550Y-125472315D01*
X122863548Y-125472316D01*
X122863547Y-125472317D01*
X122703589Y-125603589D01*
X122572317Y-125763547D01*
X122474769Y-125946043D01*
X122414699Y-126144067D01*
X122399500Y-126298395D01*
X122399500Y-126651604D01*
X122414699Y-126805932D01*
X122437872Y-126882323D01*
X122474768Y-127003954D01*
X122572315Y-127186450D01*
X122606969Y-127228677D01*
X122703589Y-127346410D01*
X122744584Y-127380053D01*
X122863550Y-127477685D01*
X123046046Y-127575232D01*
X123244066Y-127635300D01*
X123244065Y-127635300D01*
X123262529Y-127637118D01*
X123450000Y-127655583D01*
X123655934Y-127635300D01*
X123853954Y-127575232D01*
X124036450Y-127477685D01*
X124196410Y-127346410D01*
X124327685Y-127186450D01*
X124425232Y-127003954D01*
X124485300Y-126805934D01*
X124500500Y-126651608D01*
X124500500Y-126298392D01*
X124485300Y-126144066D01*
X124425232Y-125946046D01*
X124327685Y-125763550D01*
X124272027Y-125695730D01*
X124196410Y-125603589D01*
X124036452Y-125472317D01*
X124036453Y-125472317D01*
X124036450Y-125472315D01*
X123853954Y-125374768D01*
X123852049Y-125373979D01*
X123851203Y-125373298D01*
X123848581Y-125371896D01*
X123848846Y-125371398D01*
X123797645Y-125330138D01*
X123775579Y-125263844D01*
X123775500Y-125259417D01*
X123775500Y-122086188D01*
X123795185Y-122019149D01*
X123811819Y-121998507D01*
X124948507Y-120861819D01*
X125009830Y-120828334D01*
X125036188Y-120825500D01*
X127114811Y-120825500D01*
X127181850Y-120845185D01*
X127227605Y-120897989D01*
X127237549Y-120967147D01*
X127208524Y-121030703D01*
X127202492Y-121037181D01*
X125733715Y-122505957D01*
X125725742Y-122513264D01*
X125696805Y-122537545D01*
X125677914Y-122570264D01*
X125672105Y-122579381D01*
X125650446Y-122610313D01*
X125648206Y-122615117D01*
X125641229Y-122631961D01*
X125639410Y-122636960D01*
X125632852Y-122674148D01*
X125630512Y-122684703D01*
X125620735Y-122721191D01*
X125620735Y-122721192D01*
X125624028Y-122758817D01*
X125624500Y-122769626D01*
X125624500Y-125259417D01*
X125604815Y-125326456D01*
X125552011Y-125372211D01*
X125547951Y-125373979D01*
X125546045Y-125374768D01*
X125468991Y-125415955D01*
X125363550Y-125472315D01*
X125363548Y-125472316D01*
X125363547Y-125472317D01*
X125203589Y-125603589D01*
X125072317Y-125763547D01*
X124974769Y-125946043D01*
X124914699Y-126144067D01*
X124899500Y-126298395D01*
X124899500Y-126651604D01*
X124914699Y-126805932D01*
X124937872Y-126882323D01*
X124974768Y-127003954D01*
X125072315Y-127186450D01*
X125106969Y-127228677D01*
X125203589Y-127346410D01*
X125244584Y-127380053D01*
X125363550Y-127477685D01*
X125546046Y-127575232D01*
X125744066Y-127635300D01*
X125744065Y-127635300D01*
X125762529Y-127637118D01*
X125950000Y-127655583D01*
X126155934Y-127635300D01*
X126353954Y-127575232D01*
X126536450Y-127477685D01*
X126696410Y-127346410D01*
X126827685Y-127186450D01*
X126925232Y-127003954D01*
X126985300Y-126805934D01*
X127000500Y-126651608D01*
X127000500Y-126298392D01*
X126985300Y-126144066D01*
X126925232Y-125946046D01*
X126827685Y-125763550D01*
X126772027Y-125695730D01*
X126696410Y-125603589D01*
X126536452Y-125472317D01*
X126536453Y-125472317D01*
X126536450Y-125472315D01*
X126353954Y-125374768D01*
X126352049Y-125373979D01*
X126351203Y-125373298D01*
X126348581Y-125371896D01*
X126348846Y-125371398D01*
X126297645Y-125330138D01*
X126275579Y-125263844D01*
X126275500Y-125259417D01*
X126275500Y-122936188D01*
X126295185Y-122869149D01*
X126311819Y-122848507D01*
X127848508Y-121311819D01*
X127909831Y-121278334D01*
X127936189Y-121275500D01*
X129264812Y-121275500D01*
X129331851Y-121295185D01*
X129377606Y-121347989D01*
X129387550Y-121417147D01*
X129358525Y-121480703D01*
X129352493Y-121487181D01*
X128233715Y-122605957D01*
X128225742Y-122613264D01*
X128196805Y-122637545D01*
X128177914Y-122670264D01*
X128172105Y-122679381D01*
X128150446Y-122710313D01*
X128148206Y-122715117D01*
X128141229Y-122731961D01*
X128139410Y-122736960D01*
X128132852Y-122774148D01*
X128130512Y-122784703D01*
X128120735Y-122821191D01*
X128120735Y-122821192D01*
X128124028Y-122858817D01*
X128124500Y-122869626D01*
X128124500Y-125259417D01*
X128104815Y-125326456D01*
X128052011Y-125372211D01*
X128047951Y-125373979D01*
X128046045Y-125374768D01*
X127968991Y-125415955D01*
X127863550Y-125472315D01*
X127863548Y-125472316D01*
X127863547Y-125472317D01*
X127703589Y-125603589D01*
X127572317Y-125763547D01*
X127474769Y-125946043D01*
X127414699Y-126144067D01*
X127399500Y-126298395D01*
X127399500Y-126651604D01*
X127414699Y-126805932D01*
X127437872Y-126882323D01*
X127474768Y-127003954D01*
X127572315Y-127186450D01*
X127606969Y-127228677D01*
X127703589Y-127346410D01*
X127744584Y-127380053D01*
X127863550Y-127477685D01*
X128046046Y-127575232D01*
X128244066Y-127635300D01*
X128244065Y-127635300D01*
X128262529Y-127637118D01*
X128450000Y-127655583D01*
X128655934Y-127635300D01*
X128853954Y-127575232D01*
X129036450Y-127477685D01*
X129196410Y-127346410D01*
X129327685Y-127186450D01*
X129425232Y-127003954D01*
X129485300Y-126805934D01*
X129500500Y-126651608D01*
X129500500Y-126298392D01*
X129485300Y-126144066D01*
X129425232Y-125946046D01*
X129327685Y-125763550D01*
X129272027Y-125695730D01*
X129196410Y-125603589D01*
X129036452Y-125472317D01*
X129036453Y-125472317D01*
X129036450Y-125472315D01*
X128853954Y-125374768D01*
X128852049Y-125373979D01*
X128851203Y-125373298D01*
X128848581Y-125371896D01*
X128848846Y-125371398D01*
X128797645Y-125330138D01*
X128775579Y-125263844D01*
X128775500Y-125259417D01*
X128775500Y-123036188D01*
X128795185Y-122969149D01*
X128811819Y-122948507D01*
X129998507Y-121761819D01*
X130059830Y-121728334D01*
X130086188Y-121725500D01*
X136314812Y-121725500D01*
X136381851Y-121745185D01*
X136427606Y-121797989D01*
X136437550Y-121867147D01*
X136408525Y-121930703D01*
X136402493Y-121937181D01*
X135033715Y-123305957D01*
X135025742Y-123313264D01*
X134996805Y-123337545D01*
X134977914Y-123370264D01*
X134972105Y-123379381D01*
X134950446Y-123410313D01*
X134948206Y-123415117D01*
X134941229Y-123431961D01*
X134939410Y-123436960D01*
X134932852Y-123474148D01*
X134930512Y-123484703D01*
X134920735Y-123521191D01*
X134920735Y-123521192D01*
X134924028Y-123558817D01*
X134924500Y-123569626D01*
X134924500Y-125175500D01*
X134904815Y-125242539D01*
X134852011Y-125288294D01*
X134800500Y-125299500D01*
X134595730Y-125299500D01*
X134565300Y-125302353D01*
X134565298Y-125302353D01*
X134437119Y-125347206D01*
X134437117Y-125347207D01*
X134327850Y-125427850D01*
X134247207Y-125537117D01*
X134247206Y-125537119D01*
X134202353Y-125665298D01*
X134202353Y-125665300D01*
X134199500Y-125695730D01*
X134199500Y-127254269D01*
X134202353Y-127284699D01*
X134202353Y-127284701D01*
X134243020Y-127400917D01*
X134247207Y-127412882D01*
X134327850Y-127522150D01*
X134437118Y-127602793D01*
X134479845Y-127617744D01*
X134565299Y-127647646D01*
X134595730Y-127650500D01*
X134595734Y-127650500D01*
X135904270Y-127650500D01*
X135934699Y-127647646D01*
X135934701Y-127647646D01*
X135998790Y-127625219D01*
X136062882Y-127602793D01*
X136172150Y-127522150D01*
X136252793Y-127412882D01*
X136276052Y-127346410D01*
X136297646Y-127284701D01*
X136297646Y-127284699D01*
X136300500Y-127254269D01*
X136300500Y-125695730D01*
X136297646Y-125665300D01*
X136297646Y-125665298D01*
X136252793Y-125537119D01*
X136252792Y-125537117D01*
X136172150Y-125427850D01*
X136062882Y-125347207D01*
X136062880Y-125347206D01*
X135934700Y-125302353D01*
X135904270Y-125299500D01*
X135904266Y-125299500D01*
X135699500Y-125299500D01*
X135632461Y-125279815D01*
X135586706Y-125227011D01*
X135575500Y-125175500D01*
X135575500Y-123736188D01*
X135595185Y-123669149D01*
X135611819Y-123648507D01*
X137048507Y-122211819D01*
X137109830Y-122178334D01*
X137136188Y-122175500D01*
X138564812Y-122175500D01*
X138631851Y-122195185D01*
X138677606Y-122247989D01*
X138687550Y-122317147D01*
X138658525Y-122380703D01*
X138652493Y-122387181D01*
X137533715Y-123505957D01*
X137525742Y-123513264D01*
X137496805Y-123537545D01*
X137477914Y-123570264D01*
X137472105Y-123579381D01*
X137450446Y-123610313D01*
X137448206Y-123615117D01*
X137441229Y-123631961D01*
X137439410Y-123636960D01*
X137432852Y-123674148D01*
X137430512Y-123684703D01*
X137420735Y-123721191D01*
X137420735Y-123721192D01*
X137424028Y-123758817D01*
X137424500Y-123769626D01*
X137424500Y-125259417D01*
X137404815Y-125326456D01*
X137352011Y-125372211D01*
X137347951Y-125373979D01*
X137346045Y-125374768D01*
X137268991Y-125415955D01*
X137163550Y-125472315D01*
X137163548Y-125472316D01*
X137163547Y-125472317D01*
X137003589Y-125603589D01*
X136872317Y-125763547D01*
X136774769Y-125946043D01*
X136714699Y-126144067D01*
X136699500Y-126298395D01*
X136699500Y-126651604D01*
X136714699Y-126805932D01*
X136737872Y-126882323D01*
X136774768Y-127003954D01*
X136872315Y-127186450D01*
X136906969Y-127228677D01*
X137003589Y-127346410D01*
X137044584Y-127380053D01*
X137163550Y-127477685D01*
X137346046Y-127575232D01*
X137544066Y-127635300D01*
X137544065Y-127635300D01*
X137562529Y-127637118D01*
X137750000Y-127655583D01*
X137955934Y-127635300D01*
X138153954Y-127575232D01*
X138336450Y-127477685D01*
X138496410Y-127346410D01*
X138627685Y-127186450D01*
X138725232Y-127003954D01*
X138785300Y-126805934D01*
X138800500Y-126651608D01*
X138800500Y-126298392D01*
X138785300Y-126144066D01*
X138725232Y-125946046D01*
X138627685Y-125763550D01*
X138572027Y-125695730D01*
X138496410Y-125603589D01*
X138336452Y-125472317D01*
X138336453Y-125472317D01*
X138336450Y-125472315D01*
X138153954Y-125374768D01*
X138152049Y-125373979D01*
X138151203Y-125373298D01*
X138148581Y-125371896D01*
X138148846Y-125371398D01*
X138097645Y-125330138D01*
X138075579Y-125263844D01*
X138075500Y-125259417D01*
X138075500Y-123936188D01*
X138095185Y-123869149D01*
X138111819Y-123848507D01*
X139298507Y-122661819D01*
X139359830Y-122628334D01*
X139386188Y-122625500D01*
X140514811Y-122625500D01*
X140581850Y-122645185D01*
X140627605Y-122697989D01*
X140637549Y-122767147D01*
X140608524Y-122830703D01*
X140602492Y-122837181D01*
X140033715Y-123405957D01*
X140025742Y-123413264D01*
X139996805Y-123437545D01*
X139977914Y-123470264D01*
X139972105Y-123479381D01*
X139950446Y-123510313D01*
X139948206Y-123515117D01*
X139941229Y-123531961D01*
X139939410Y-123536960D01*
X139932852Y-123574148D01*
X139930512Y-123584703D01*
X139920735Y-123621191D01*
X139920735Y-123621192D01*
X139924028Y-123658817D01*
X139924500Y-123669626D01*
X139924500Y-125259417D01*
X139904815Y-125326456D01*
X139852011Y-125372211D01*
X139847951Y-125373979D01*
X139846045Y-125374768D01*
X139768991Y-125415955D01*
X139663550Y-125472315D01*
X139663548Y-125472316D01*
X139663547Y-125472317D01*
X139503589Y-125603589D01*
X139372317Y-125763547D01*
X139274769Y-125946043D01*
X139214699Y-126144067D01*
X139199500Y-126298395D01*
X139199500Y-126651604D01*
X139214699Y-126805932D01*
X139237872Y-126882323D01*
X139274768Y-127003954D01*
X139372315Y-127186450D01*
X139406969Y-127228677D01*
X139503589Y-127346410D01*
X139544584Y-127380053D01*
X139663550Y-127477685D01*
X139846046Y-127575232D01*
X140044066Y-127635300D01*
X140044065Y-127635300D01*
X140062529Y-127637118D01*
X140250000Y-127655583D01*
X140455934Y-127635300D01*
X140653954Y-127575232D01*
X140836450Y-127477685D01*
X140996410Y-127346410D01*
X141127685Y-127186450D01*
X141225232Y-127003954D01*
X141285300Y-126805934D01*
X141300500Y-126651608D01*
X141300500Y-126298392D01*
X141285300Y-126144066D01*
X141225232Y-125946046D01*
X141127685Y-125763550D01*
X141072027Y-125695730D01*
X140996410Y-125603589D01*
X140836452Y-125472317D01*
X140836453Y-125472317D01*
X140836450Y-125472315D01*
X140653954Y-125374768D01*
X140652049Y-125373979D01*
X140651203Y-125373298D01*
X140648581Y-125371896D01*
X140648846Y-125371398D01*
X140597645Y-125330138D01*
X140575579Y-125263844D01*
X140575500Y-125259417D01*
X140575500Y-123836188D01*
X140595185Y-123769149D01*
X140611819Y-123748507D01*
X141248508Y-123111819D01*
X141309831Y-123078334D01*
X141336189Y-123075500D01*
X142864811Y-123075500D01*
X142931850Y-123095185D01*
X142977605Y-123147989D01*
X142987549Y-123217147D01*
X142958524Y-123280703D01*
X142952492Y-123287181D01*
X142533715Y-123705957D01*
X142525742Y-123713264D01*
X142496805Y-123737545D01*
X142477914Y-123770264D01*
X142472105Y-123779381D01*
X142450446Y-123810313D01*
X142448206Y-123815117D01*
X142441229Y-123831961D01*
X142439410Y-123836960D01*
X142432852Y-123874148D01*
X142430512Y-123884703D01*
X142420735Y-123921191D01*
X142420735Y-123921192D01*
X142424028Y-123958817D01*
X142424500Y-123969626D01*
X142424500Y-125259417D01*
X142404815Y-125326456D01*
X142352011Y-125372211D01*
X142347951Y-125373979D01*
X142346045Y-125374768D01*
X142268991Y-125415955D01*
X142163550Y-125472315D01*
X142163548Y-125472316D01*
X142163547Y-125472317D01*
X142003589Y-125603589D01*
X141872317Y-125763547D01*
X141774769Y-125946043D01*
X141714699Y-126144067D01*
X141699500Y-126298395D01*
X141699500Y-126651604D01*
X141714699Y-126805932D01*
X141737872Y-126882323D01*
X141774768Y-127003954D01*
X141872315Y-127186450D01*
X141906969Y-127228677D01*
X142003589Y-127346410D01*
X142044584Y-127380053D01*
X142163550Y-127477685D01*
X142346046Y-127575232D01*
X142544066Y-127635300D01*
X142544065Y-127635300D01*
X142562529Y-127637118D01*
X142750000Y-127655583D01*
X142955934Y-127635300D01*
X143153954Y-127575232D01*
X143336450Y-127477685D01*
X143496410Y-127346410D01*
X143621180Y-127194377D01*
X155500000Y-127194377D01*
X155515385Y-127380053D01*
X155515387Y-127380061D01*
X155576412Y-127621040D01*
X155676267Y-127848690D01*
X155812232Y-128056801D01*
X155980592Y-128239687D01*
X155980602Y-128239696D01*
X156176762Y-128392374D01*
X156176771Y-128392380D01*
X156395385Y-128510687D01*
X156395396Y-128510692D01*
X156630507Y-128591406D01*
X156749999Y-128611346D01*
X156750000Y-128611345D01*
X156750000Y-127566009D01*
X156790156Y-127591816D01*
X156928111Y-127632323D01*
X157071889Y-127632323D01*
X157209844Y-127591816D01*
X157250000Y-127566009D01*
X157250000Y-128611346D01*
X157369492Y-128591406D01*
X157604603Y-128510692D01*
X157604614Y-128510687D01*
X157823228Y-128392380D01*
X157823237Y-128392374D01*
X158019397Y-128239696D01*
X158019407Y-128239687D01*
X158187767Y-128056801D01*
X158323732Y-127848690D01*
X158423587Y-127621040D01*
X158484612Y-127380061D01*
X158484614Y-127380053D01*
X158499999Y-127194377D01*
X179500000Y-127194377D01*
X179515385Y-127380053D01*
X179515387Y-127380061D01*
X179576412Y-127621040D01*
X179676267Y-127848690D01*
X179812232Y-128056801D01*
X179980592Y-128239687D01*
X179980602Y-128239696D01*
X180176762Y-128392374D01*
X180176771Y-128392380D01*
X180395385Y-128510687D01*
X180395396Y-128510692D01*
X180630507Y-128591406D01*
X180749999Y-128611346D01*
X180750000Y-128611345D01*
X180750000Y-127566009D01*
X180790156Y-127591816D01*
X180928111Y-127632323D01*
X181071889Y-127632323D01*
X181209844Y-127591816D01*
X181250000Y-127566009D01*
X181250000Y-128611346D01*
X181369492Y-128591406D01*
X181604603Y-128510692D01*
X181604614Y-128510687D01*
X181823228Y-128392380D01*
X181823237Y-128392374D01*
X182019397Y-128239696D01*
X182019407Y-128239687D01*
X182177676Y-128067763D01*
X199145787Y-128067763D01*
X199175413Y-128337013D01*
X199175415Y-128337024D01*
X199243926Y-128599082D01*
X199243928Y-128599088D01*
X199349870Y-128848390D01*
X199421998Y-128966575D01*
X199490979Y-129079605D01*
X199490986Y-129079615D01*
X199664253Y-129287819D01*
X199664259Y-129287824D01*
X199865998Y-129468582D01*
X200091910Y-129618044D01*
X200337176Y-129733020D01*
X200337183Y-129733022D01*
X200337185Y-129733023D01*
X200596557Y-129811057D01*
X200596564Y-129811058D01*
X200596569Y-129811060D01*
X200864561Y-129850500D01*
X200864566Y-129850500D01*
X201067629Y-129850500D01*
X201067631Y-129850500D01*
X201067636Y-129850499D01*
X201067648Y-129850499D01*
X201105191Y-129847750D01*
X201270156Y-129835677D01*
X201382758Y-129810593D01*
X201534546Y-129776782D01*
X201534548Y-129776781D01*
X201534553Y-129776780D01*
X201787558Y-129680014D01*
X202023777Y-129547441D01*
X202238177Y-129381888D01*
X202426186Y-129186881D01*
X202583799Y-128966579D01*
X202657787Y-128822669D01*
X202707649Y-128725690D01*
X202707651Y-128725684D01*
X202707656Y-128725675D01*
X202795118Y-128469305D01*
X202844319Y-128202933D01*
X202854212Y-127932235D01*
X202824586Y-127662982D01*
X202756072Y-127400912D01*
X202650130Y-127151610D01*
X202509018Y-126920390D01*
X202419747Y-126813119D01*
X202335746Y-126712180D01*
X202335740Y-126712175D01*
X202134002Y-126531418D01*
X201908092Y-126381957D01*
X201908090Y-126381956D01*
X201662824Y-126266980D01*
X201662819Y-126266978D01*
X201662814Y-126266976D01*
X201403442Y-126188942D01*
X201403428Y-126188939D01*
X201287791Y-126171921D01*
X201135439Y-126149500D01*
X200932369Y-126149500D01*
X200932351Y-126149500D01*
X200729844Y-126164323D01*
X200729831Y-126164325D01*
X200465453Y-126223217D01*
X200465446Y-126223220D01*
X200212439Y-126319987D01*
X199976226Y-126452557D01*
X199761822Y-126618112D01*
X199573822Y-126813109D01*
X199573816Y-126813116D01*
X199416202Y-127033419D01*
X199416199Y-127033424D01*
X199292350Y-127274309D01*
X199292343Y-127274327D01*
X199204884Y-127530685D01*
X199204881Y-127530699D01*
X199155681Y-127797068D01*
X199155680Y-127797075D01*
X199145787Y-128067763D01*
X182177676Y-128067763D01*
X182187767Y-128056801D01*
X182323732Y-127848690D01*
X182423587Y-127621040D01*
X182484612Y-127380061D01*
X182484614Y-127380053D01*
X182499999Y-127194377D01*
X182500000Y-127194362D01*
X182500000Y-126882323D01*
X181500000Y-126882323D01*
X181500000Y-126382323D01*
X182500000Y-126382323D01*
X182500000Y-126070284D01*
X182499999Y-126070268D01*
X182484614Y-125884592D01*
X182484612Y-125884584D01*
X182423587Y-125643605D01*
X182406328Y-125604258D01*
X188692000Y-125604258D01*
X188694854Y-125634698D01*
X188694854Y-125634699D01*
X188739706Y-125762881D01*
X188739707Y-125762882D01*
X188820350Y-125872150D01*
X188929618Y-125952793D01*
X189057802Y-125997646D01*
X189057801Y-125997646D01*
X189061771Y-125998018D01*
X189088235Y-126000500D01*
X191396764Y-126000499D01*
X191427198Y-125997646D01*
X191555382Y-125952793D01*
X191664650Y-125872150D01*
X191745293Y-125762882D01*
X191790146Y-125634698D01*
X191793000Y-125604265D01*
X191793000Y-124450001D01*
X192347774Y-124450001D01*
X192366652Y-124713960D01*
X192422900Y-124972528D01*
X192515384Y-125220487D01*
X192642201Y-125452735D01*
X192642206Y-125452743D01*
X192729538Y-125569406D01*
X192729539Y-125569406D01*
X193451266Y-124847679D01*
X193494816Y-124929822D01*
X193614509Y-125070735D01*
X193761695Y-125182623D01*
X193803902Y-125202150D01*
X193083092Y-125922959D01*
X193083093Y-125922960D01*
X193199756Y-126010293D01*
X193199764Y-126010298D01*
X193432013Y-126137115D01*
X193432012Y-126137115D01*
X193679971Y-126229599D01*
X193938539Y-126285847D01*
X194202499Y-126304726D01*
X194202501Y-126304726D01*
X194466460Y-126285847D01*
X194725028Y-126229599D01*
X194972987Y-126137115D01*
X195205235Y-126010298D01*
X195205236Y-126010297D01*
X195321906Y-125922959D01*
X194601109Y-125202161D01*
X194719931Y-125130669D01*
X194854158Y-125003523D01*
X194957361Y-124851308D01*
X195675459Y-125569406D01*
X195762797Y-125452736D01*
X195762798Y-125452735D01*
X195889615Y-125220487D01*
X195982099Y-124972528D01*
X196038347Y-124713960D01*
X196057226Y-124450001D01*
X196057226Y-124449998D01*
X196038347Y-124186039D01*
X195982099Y-123927471D01*
X195889615Y-123679512D01*
X195762798Y-123447264D01*
X195762793Y-123447256D01*
X195675460Y-123330593D01*
X195675459Y-123330592D01*
X194953732Y-124052319D01*
X194910184Y-123970178D01*
X194790491Y-123829265D01*
X194643305Y-123717377D01*
X194601096Y-123697849D01*
X195321906Y-122977039D01*
X195321906Y-122977038D01*
X195205243Y-122889706D01*
X195205235Y-122889701D01*
X194972986Y-122762884D01*
X194972987Y-122762884D01*
X194725028Y-122670400D01*
X194466460Y-122614152D01*
X194202501Y-122595274D01*
X194202499Y-122595274D01*
X193938539Y-122614152D01*
X193679971Y-122670400D01*
X193432012Y-122762884D01*
X193199764Y-122889701D01*
X193083093Y-122977039D01*
X193803891Y-123697837D01*
X193685069Y-123769331D01*
X193550842Y-123896477D01*
X193447638Y-124048691D01*
X192729539Y-123330593D01*
X192642201Y-123447264D01*
X192515384Y-123679512D01*
X192422900Y-123927471D01*
X192366652Y-124186039D01*
X192347774Y-124449998D01*
X192347774Y-124450001D01*
X191793000Y-124450001D01*
X191792999Y-123295736D01*
X191790146Y-123265302D01*
X191745293Y-123137118D01*
X191664650Y-123027850D01*
X191584006Y-122968332D01*
X191555381Y-122947206D01*
X191427195Y-122902353D01*
X191427198Y-122902353D01*
X191396768Y-122899500D01*
X189088241Y-122899500D01*
X189057801Y-122902354D01*
X189057800Y-122902354D01*
X188929618Y-122947206D01*
X188820350Y-123027850D01*
X188739706Y-123137118D01*
X188694853Y-123265302D01*
X188692000Y-123295731D01*
X188692000Y-125604258D01*
X182406328Y-125604258D01*
X182323732Y-125415955D01*
X182187767Y-125207844D01*
X182019407Y-125024958D01*
X182019397Y-125024949D01*
X181823237Y-124872271D01*
X181823228Y-124872265D01*
X181604614Y-124753958D01*
X181604603Y-124753953D01*
X181369492Y-124673239D01*
X181250000Y-124653299D01*
X181250000Y-125698636D01*
X181209844Y-125672830D01*
X181071889Y-125632323D01*
X180928111Y-125632323D01*
X180790156Y-125672830D01*
X180750000Y-125698636D01*
X180750000Y-124653299D01*
X180749999Y-124653299D01*
X180630507Y-124673239D01*
X180395396Y-124753953D01*
X180395385Y-124753958D01*
X180176771Y-124872265D01*
X180176762Y-124872271D01*
X179980602Y-125024949D01*
X179980592Y-125024958D01*
X179812232Y-125207844D01*
X179676267Y-125415955D01*
X179576412Y-125643605D01*
X179515387Y-125884584D01*
X179515385Y-125884592D01*
X179500000Y-126070268D01*
X179500000Y-126382323D01*
X180500000Y-126382323D01*
X180500000Y-126882323D01*
X179500000Y-126882323D01*
X179500000Y-127194377D01*
X158499999Y-127194377D01*
X158500000Y-127194362D01*
X158500000Y-126882323D01*
X157500000Y-126882323D01*
X157500000Y-126382323D01*
X158500000Y-126382323D01*
X158500000Y-126070284D01*
X158499999Y-126070268D01*
X158484614Y-125884592D01*
X158484612Y-125884584D01*
X158423587Y-125643605D01*
X158323732Y-125415955D01*
X158187767Y-125207844D01*
X158019407Y-125024958D01*
X158019397Y-125024949D01*
X157823237Y-124872271D01*
X157823228Y-124872265D01*
X157604614Y-124753958D01*
X157604603Y-124753953D01*
X157369492Y-124673239D01*
X157250000Y-124653299D01*
X157250000Y-125698636D01*
X157209844Y-125672830D01*
X157071889Y-125632323D01*
X156928111Y-125632323D01*
X156790156Y-125672830D01*
X156750000Y-125698636D01*
X156750000Y-124653299D01*
X156749999Y-124653299D01*
X156630507Y-124673239D01*
X156395396Y-124753953D01*
X156395385Y-124753958D01*
X156176771Y-124872265D01*
X156176762Y-124872271D01*
X155980602Y-125024949D01*
X155980592Y-125024958D01*
X155812232Y-125207844D01*
X155676267Y-125415955D01*
X155576412Y-125643605D01*
X155515387Y-125884584D01*
X155515385Y-125884592D01*
X155500000Y-126070268D01*
X155500000Y-126382323D01*
X156500000Y-126382323D01*
X156500000Y-126882323D01*
X155500000Y-126882323D01*
X155500000Y-127194377D01*
X143621180Y-127194377D01*
X143627685Y-127186450D01*
X143725232Y-127003954D01*
X143785300Y-126805934D01*
X143800500Y-126651608D01*
X143800500Y-126298392D01*
X143785300Y-126144066D01*
X143725232Y-125946046D01*
X143627685Y-125763550D01*
X143572027Y-125695730D01*
X143496410Y-125603589D01*
X143336452Y-125472317D01*
X143336453Y-125472317D01*
X143336450Y-125472315D01*
X143153954Y-125374768D01*
X143152049Y-125373979D01*
X143151203Y-125373298D01*
X143148581Y-125371896D01*
X143148846Y-125371398D01*
X143097645Y-125330138D01*
X143075579Y-125263844D01*
X143075500Y-125259417D01*
X143075500Y-124136188D01*
X143095185Y-124069149D01*
X143111819Y-124048507D01*
X143598508Y-123561819D01*
X143659831Y-123528334D01*
X143686189Y-123525500D01*
X148680372Y-123525500D01*
X148691180Y-123525971D01*
X148728807Y-123529264D01*
X148765319Y-123519479D01*
X148775830Y-123517149D01*
X148813045Y-123510588D01*
X148813050Y-123510584D01*
X148818099Y-123508747D01*
X148834824Y-123501819D01*
X148839681Y-123499554D01*
X148839684Y-123499554D01*
X148870625Y-123477887D01*
X148879744Y-123472079D01*
X148912455Y-123453194D01*
X148912457Y-123453192D01*
X148936736Y-123424256D01*
X148944036Y-123416288D01*
X149708249Y-122652075D01*
X155799500Y-122652075D01*
X155811131Y-122710552D01*
X155811132Y-122710553D01*
X155855447Y-122776875D01*
X155921769Y-122821190D01*
X155921770Y-122821191D01*
X155980247Y-122832822D01*
X155980250Y-122832823D01*
X155980252Y-122832823D01*
X158019750Y-122832823D01*
X158019751Y-122832822D01*
X158034568Y-122829875D01*
X158078229Y-122821191D01*
X158078229Y-122821190D01*
X158078231Y-122821190D01*
X158144552Y-122776875D01*
X158188867Y-122710554D01*
X158188867Y-122710552D01*
X158188868Y-122710552D01*
X158200499Y-122652075D01*
X179799500Y-122652075D01*
X179811131Y-122710552D01*
X179811132Y-122710553D01*
X179855447Y-122776875D01*
X179921769Y-122821190D01*
X179921770Y-122821191D01*
X179980247Y-122832822D01*
X179980250Y-122832823D01*
X179980252Y-122832823D01*
X182019750Y-122832823D01*
X182019751Y-122832822D01*
X182034568Y-122829875D01*
X182078229Y-122821191D01*
X182078229Y-122821190D01*
X182078231Y-122821190D01*
X182144552Y-122776875D01*
X182188867Y-122710554D01*
X182188867Y-122710552D01*
X182188868Y-122710552D01*
X182200499Y-122652075D01*
X182200500Y-122652073D01*
X182200500Y-120612572D01*
X182200499Y-120612570D01*
X182188868Y-120554093D01*
X182188867Y-120554092D01*
X182144552Y-120487770D01*
X182078230Y-120443455D01*
X182078229Y-120443454D01*
X182019752Y-120431823D01*
X182019748Y-120431823D01*
X179980252Y-120431823D01*
X179980247Y-120431823D01*
X179921770Y-120443454D01*
X179921769Y-120443455D01*
X179855447Y-120487770D01*
X179811132Y-120554092D01*
X179811131Y-120554093D01*
X179799500Y-120612570D01*
X179799500Y-122652075D01*
X158200499Y-122652075D01*
X158200500Y-122652073D01*
X158200500Y-120612572D01*
X158200499Y-120612570D01*
X158188868Y-120554093D01*
X158188867Y-120554092D01*
X158144552Y-120487770D01*
X158078230Y-120443455D01*
X158078229Y-120443454D01*
X158019752Y-120431823D01*
X158019748Y-120431823D01*
X155980252Y-120431823D01*
X155980247Y-120431823D01*
X155921770Y-120443454D01*
X155921769Y-120443455D01*
X155855447Y-120487770D01*
X155811132Y-120554092D01*
X155811131Y-120554093D01*
X155799500Y-120612570D01*
X155799500Y-122652075D01*
X149708249Y-122652075D01*
X154516290Y-117844034D01*
X154524243Y-117836746D01*
X154553194Y-117812455D01*
X154572082Y-117779739D01*
X154577887Y-117770625D01*
X154599554Y-117739684D01*
X154599554Y-117739681D01*
X154601819Y-117734824D01*
X154608747Y-117718099D01*
X154610584Y-117713050D01*
X154610588Y-117713045D01*
X154617149Y-117675830D01*
X154619479Y-117665319D01*
X154629264Y-117628807D01*
X154625971Y-117591180D01*
X154625500Y-117580372D01*
X154625500Y-111810105D01*
X189484932Y-111810105D01*
X189495773Y-111869270D01*
X189496900Y-111876671D01*
X189504149Y-111936371D01*
X189504150Y-111936374D01*
X189507741Y-111945843D01*
X189513764Y-111967446D01*
X189515594Y-111977430D01*
X189515595Y-111977432D01*
X189536899Y-112024769D01*
X189540281Y-112032282D01*
X189543144Y-112039194D01*
X189564472Y-112095430D01*
X189564473Y-112095431D01*
X189570226Y-112103766D01*
X189581251Y-112123313D01*
X189585410Y-112132555D01*
X189585414Y-112132560D01*
X189622505Y-112179903D01*
X189626945Y-112185938D01*
X189661102Y-112235424D01*
X189661106Y-112235429D01*
X189706118Y-112275305D01*
X189711573Y-112280440D01*
X190908848Y-113477715D01*
X190913968Y-113483153D01*
X190953861Y-113528183D01*
X190953863Y-113528185D01*
X191003353Y-113562345D01*
X191009359Y-113566763D01*
X191056733Y-113603878D01*
X191064859Y-113607535D01*
X191065970Y-113608035D01*
X191085516Y-113619058D01*
X191093860Y-113624818D01*
X191150107Y-113646149D01*
X191157013Y-113649010D01*
X191211858Y-113673694D01*
X191221820Y-113675519D01*
X191243441Y-113681546D01*
X191252915Y-113685139D01*
X191252918Y-113685140D01*
X191297024Y-113690495D01*
X191312620Y-113692389D01*
X191320025Y-113693516D01*
X191341190Y-113697394D01*
X191379184Y-113704357D01*
X191439213Y-113700726D01*
X191446700Y-113700500D01*
X199032265Y-113700500D01*
X199099304Y-113720185D01*
X199124119Y-113742274D01*
X199124287Y-113742107D01*
X199127165Y-113744985D01*
X199128115Y-113745831D01*
X199128591Y-113746411D01*
X199288548Y-113877684D01*
X199288550Y-113877685D01*
X199361435Y-113916643D01*
X199411278Y-113965604D01*
X199426739Y-114033742D01*
X199402908Y-114099421D01*
X199347350Y-114141790D01*
X199302983Y-114150000D01*
X199225029Y-114150000D01*
X199225012Y-114150001D01*
X199122302Y-114160494D01*
X198955880Y-114215641D01*
X198955875Y-114215643D01*
X198806654Y-114307684D01*
X198682684Y-114431654D01*
X198590643Y-114580875D01*
X198590641Y-114580880D01*
X198535494Y-114747302D01*
X198535493Y-114747309D01*
X198525000Y-114850013D01*
X198525000Y-115250000D01*
X199596031Y-115250000D01*
X199563481Y-115300649D01*
X199525000Y-115431705D01*
X199525000Y-115568295D01*
X199563481Y-115699351D01*
X199596031Y-115750000D01*
X198525001Y-115750000D01*
X198525001Y-116149986D01*
X198535494Y-116252697D01*
X198590641Y-116419119D01*
X198590643Y-116419124D01*
X198682684Y-116568345D01*
X198806654Y-116692315D01*
X198955875Y-116784356D01*
X198955880Y-116784358D01*
X199122302Y-116839505D01*
X199122309Y-116839506D01*
X199225019Y-116849999D01*
X199749999Y-116849999D01*
X199750000Y-116849998D01*
X199750000Y-115908018D01*
X199864801Y-115960446D01*
X199966025Y-115975000D01*
X200033975Y-115975000D01*
X200135199Y-115960446D01*
X200250000Y-115908018D01*
X200250000Y-116849999D01*
X200774972Y-116849999D01*
X200774986Y-116849998D01*
X200877697Y-116839505D01*
X201044119Y-116784358D01*
X201044124Y-116784356D01*
X201193345Y-116692315D01*
X201317315Y-116568345D01*
X201409356Y-116419124D01*
X201409358Y-116419119D01*
X201464505Y-116252697D01*
X201464506Y-116252690D01*
X201474999Y-116149986D01*
X201475000Y-116149973D01*
X201475000Y-115750000D01*
X200403969Y-115750000D01*
X200436519Y-115699351D01*
X200475000Y-115568295D01*
X200475000Y-115431705D01*
X200436519Y-115300649D01*
X200403969Y-115250000D01*
X201474999Y-115250000D01*
X201474999Y-114850028D01*
X201474998Y-114850013D01*
X201464505Y-114747302D01*
X201409358Y-114580880D01*
X201409356Y-114580875D01*
X201317315Y-114431654D01*
X201193345Y-114307684D01*
X201044124Y-114215643D01*
X201044119Y-114215641D01*
X200877697Y-114160494D01*
X200877690Y-114160493D01*
X200774986Y-114150000D01*
X200697020Y-114150000D01*
X200629981Y-114130315D01*
X200584226Y-114077511D01*
X200574282Y-114008353D01*
X200603307Y-113944797D01*
X200638563Y-113916643D01*
X200711450Y-113877685D01*
X200871410Y-113746410D01*
X201002685Y-113586450D01*
X201100232Y-113403954D01*
X201160300Y-113205934D01*
X201180583Y-113000000D01*
X201160300Y-112794066D01*
X201100232Y-112596046D01*
X201002685Y-112413550D01*
X200926427Y-112320629D01*
X200871410Y-112253589D01*
X200753677Y-112156969D01*
X200711450Y-112122315D01*
X200528954Y-112024768D01*
X200330934Y-111964700D01*
X200330932Y-111964699D01*
X200330934Y-111964699D01*
X200211805Y-111952966D01*
X200176608Y-111949500D01*
X199823392Y-111949500D01*
X199785298Y-111953251D01*
X199669067Y-111964699D01*
X199471043Y-112024769D01*
X199370624Y-112078445D01*
X199288550Y-112122315D01*
X199288548Y-112122316D01*
X199288547Y-112122317D01*
X199128591Y-112253588D01*
X199128115Y-112254169D01*
X199127787Y-112254391D01*
X199124287Y-112257893D01*
X199123622Y-112257228D01*
X199070368Y-112293501D01*
X199032265Y-112299500D01*
X191763309Y-112299500D01*
X191696270Y-112279815D01*
X191675628Y-112263181D01*
X190926109Y-111513662D01*
X190892624Y-111452339D01*
X190889790Y-111425981D01*
X190889790Y-110500000D01*
X198819417Y-110500000D01*
X198839699Y-110705932D01*
X198863400Y-110784065D01*
X198899768Y-110903954D01*
X198997315Y-111086450D01*
X198997317Y-111086452D01*
X199128589Y-111246410D01*
X199225209Y-111325702D01*
X199288550Y-111377685D01*
X199471046Y-111475232D01*
X199669066Y-111535300D01*
X199669065Y-111535300D01*
X199707647Y-111539100D01*
X199823392Y-111550500D01*
X199823395Y-111550500D01*
X200176605Y-111550500D01*
X200176608Y-111550500D01*
X200330934Y-111535300D01*
X200528954Y-111475232D01*
X200711450Y-111377685D01*
X200871410Y-111246410D01*
X201002685Y-111086450D01*
X201100232Y-110903954D01*
X201160300Y-110705934D01*
X201180583Y-110500000D01*
X201160300Y-110294066D01*
X201100232Y-110096046D01*
X201002685Y-109913550D01*
X200895200Y-109782578D01*
X200871410Y-109753589D01*
X200727544Y-109635523D01*
X200711450Y-109622315D01*
X200541554Y-109531502D01*
X200528956Y-109524769D01*
X200528955Y-109524768D01*
X200528954Y-109524768D01*
X200330934Y-109464700D01*
X200330932Y-109464699D01*
X200330934Y-109464699D01*
X200211805Y-109452966D01*
X200176608Y-109449500D01*
X199823392Y-109449500D01*
X199785298Y-109453251D01*
X199669067Y-109464699D01*
X199471043Y-109524769D01*
X199389256Y-109568486D01*
X199288550Y-109622315D01*
X199288548Y-109622316D01*
X199288547Y-109622317D01*
X199128589Y-109753589D01*
X198997317Y-109913547D01*
X198899769Y-110096043D01*
X198839699Y-110294067D01*
X198819417Y-110500000D01*
X190889790Y-110500000D01*
X190889790Y-108000000D01*
X198819417Y-108000000D01*
X198839699Y-108205932D01*
X198846186Y-108227317D01*
X198899768Y-108403954D01*
X198997315Y-108586450D01*
X198997317Y-108586452D01*
X199128589Y-108746410D01*
X199195180Y-108801059D01*
X199288550Y-108877685D01*
X199471046Y-108975232D01*
X199669066Y-109035300D01*
X199669065Y-109035300D01*
X199707647Y-109039100D01*
X199823392Y-109050500D01*
X199823395Y-109050500D01*
X200176605Y-109050500D01*
X200176608Y-109050500D01*
X200330934Y-109035300D01*
X200528954Y-108975232D01*
X200711450Y-108877685D01*
X200871410Y-108746410D01*
X201002685Y-108586450D01*
X201100232Y-108403954D01*
X201160300Y-108205934D01*
X201180583Y-108000000D01*
X201160300Y-107794066D01*
X201100232Y-107596046D01*
X201002685Y-107413550D01*
X200950702Y-107350209D01*
X200871410Y-107253589D01*
X200711452Y-107122317D01*
X200711453Y-107122317D01*
X200711450Y-107122315D01*
X200528954Y-107024768D01*
X200330934Y-106964700D01*
X200330932Y-106964699D01*
X200330934Y-106964699D01*
X200211805Y-106952966D01*
X200176608Y-106949500D01*
X199823392Y-106949500D01*
X199785298Y-106953251D01*
X199669067Y-106964699D01*
X199471043Y-107024769D01*
X199360898Y-107083643D01*
X199288550Y-107122315D01*
X199288548Y-107122316D01*
X199288547Y-107122317D01*
X199128589Y-107253589D01*
X198997317Y-107413547D01*
X198997315Y-107413550D01*
X198981742Y-107442685D01*
X198899769Y-107596043D01*
X198839699Y-107794067D01*
X198819417Y-108000000D01*
X190889790Y-108000000D01*
X190889790Y-106525125D01*
X190874430Y-106398631D01*
X190874429Y-106398625D01*
X190814107Y-106239568D01*
X190772481Y-106179263D01*
X190717473Y-106099571D01*
X190622606Y-106015526D01*
X190590139Y-105986763D01*
X190439516Y-105907710D01*
X190274346Y-105867000D01*
X190104234Y-105867000D01*
X189939063Y-105907710D01*
X189788440Y-105986763D01*
X189661106Y-106099572D01*
X189564472Y-106239568D01*
X189504150Y-106398625D01*
X189504149Y-106398631D01*
X189488790Y-106525125D01*
X189488790Y-111742578D01*
X189488564Y-111750066D01*
X189484932Y-111810103D01*
X189484932Y-111810105D01*
X154625500Y-111810105D01*
X154625500Y-106936188D01*
X154645185Y-106869149D01*
X154661819Y-106848507D01*
X155298508Y-106211819D01*
X155359831Y-106178334D01*
X155386189Y-106175500D01*
X157912352Y-106175500D01*
X157923160Y-106175971D01*
X157960787Y-106179264D01*
X157997299Y-106169479D01*
X158007810Y-106167149D01*
X158045025Y-106160588D01*
X158045030Y-106160584D01*
X158050079Y-106158747D01*
X158066804Y-106151819D01*
X158071661Y-106149554D01*
X158071664Y-106149554D01*
X158102605Y-106127887D01*
X158111724Y-106122079D01*
X158144435Y-106103194D01*
X158144437Y-106103192D01*
X158159712Y-106084986D01*
X158168718Y-106074253D01*
X158176016Y-106066288D01*
X167366290Y-96876014D01*
X167374243Y-96868726D01*
X167403194Y-96844435D01*
X167422082Y-96811719D01*
X167427887Y-96802605D01*
X167449554Y-96771664D01*
X167449554Y-96771661D01*
X167451819Y-96766804D01*
X167458747Y-96750079D01*
X167460584Y-96745030D01*
X167460588Y-96745025D01*
X167467149Y-96707810D01*
X167469479Y-96697299D01*
X167479264Y-96660787D01*
X167475971Y-96623160D01*
X167475500Y-96612352D01*
X167475500Y-89070077D01*
X167495185Y-89003038D01*
X167547989Y-88957283D01*
X167617147Y-88947339D01*
X167646947Y-88955514D01*
X167718238Y-88985044D01*
X167796619Y-88995363D01*
X167874999Y-89005682D01*
X167875000Y-89005682D01*
X167875001Y-89005682D01*
X167927254Y-88998802D01*
X168031762Y-88985044D01*
X168177841Y-88924536D01*
X168303282Y-88828282D01*
X168399536Y-88702841D01*
X168460044Y-88556762D01*
X168474652Y-88445803D01*
X168480682Y-88400001D01*
X168480682Y-88399998D01*
X168460044Y-88243239D01*
X168460044Y-88243238D01*
X168399536Y-88097159D01*
X168303282Y-87971718D01*
X168303280Y-87971716D01*
X168303279Y-87971715D01*
X168249012Y-87930074D01*
X168207810Y-87873646D01*
X168200500Y-87831699D01*
X168200500Y-83021834D01*
X168200972Y-83011025D01*
X168204264Y-82973401D01*
X168201761Y-82964061D01*
X168194478Y-82936883D01*
X168192150Y-82926381D01*
X168185588Y-82889163D01*
X168185585Y-82889157D01*
X168183760Y-82884141D01*
X168176820Y-82867384D01*
X168174554Y-82862527D01*
X168174554Y-82862524D01*
X168152892Y-82831587D01*
X168147080Y-82822464D01*
X168128196Y-82789756D01*
X168128191Y-82789750D01*
X168099255Y-82765470D01*
X168091280Y-82758162D01*
X166343118Y-81010000D01*
X172803933Y-81010000D01*
X172821919Y-81117791D01*
X172900078Y-81345454D01*
X172900084Y-81345468D01*
X173014644Y-81557159D01*
X173014650Y-81557168D01*
X173162493Y-81747116D01*
X173162502Y-81747126D01*
X173339589Y-81910148D01*
X173339600Y-81910156D01*
X173541117Y-82041814D01*
X173635384Y-82083163D01*
X173688870Y-82128118D01*
X173709561Y-82194854D01*
X173690887Y-82262182D01*
X173640850Y-82307718D01*
X173625225Y-82315498D01*
X173625220Y-82315501D01*
X173454698Y-82444273D01*
X173310744Y-82602184D01*
X173310742Y-82602186D01*
X173198256Y-82783858D01*
X173198253Y-82783864D01*
X173124827Y-82973401D01*
X173121064Y-82983115D01*
X173081800Y-83193159D01*
X173081800Y-83406841D01*
X173121064Y-83616885D01*
X173133119Y-83648002D01*
X173198253Y-83816135D01*
X173198256Y-83816141D01*
X173310742Y-83997813D01*
X173310744Y-83997815D01*
X173454698Y-84155726D01*
X173625220Y-84284498D01*
X173625228Y-84284503D01*
X173816493Y-84379742D01*
X173816497Y-84379743D01*
X173816504Y-84379747D01*
X174022029Y-84438224D01*
X174111656Y-84446529D01*
X174176593Y-84472315D01*
X174217281Y-84529115D01*
X174220801Y-84598896D01*
X174186036Y-84659503D01*
X174124023Y-84691693D01*
X174111657Y-84693470D01*
X174104779Y-84694108D01*
X174022029Y-84701775D01*
X174022027Y-84701776D01*
X173816508Y-84760251D01*
X173816493Y-84760257D01*
X173625228Y-84855496D01*
X173625220Y-84855501D01*
X173454698Y-84984273D01*
X173310744Y-85142184D01*
X173310742Y-85142186D01*
X173198256Y-85323858D01*
X173198253Y-85323864D01*
X173130019Y-85500000D01*
X173121064Y-85523115D01*
X173081800Y-85733159D01*
X173081800Y-85946841D01*
X173121064Y-86156885D01*
X173121065Y-86156887D01*
X173198253Y-86356135D01*
X173198256Y-86356141D01*
X173310742Y-86537813D01*
X173310744Y-86537815D01*
X173454698Y-86695726D01*
X173625220Y-86824498D01*
X173625228Y-86824503D01*
X173816493Y-86919742D01*
X173816497Y-86919743D01*
X173816504Y-86919747D01*
X174022029Y-86978224D01*
X174111656Y-86986529D01*
X174176593Y-87012315D01*
X174217281Y-87069115D01*
X174220801Y-87138896D01*
X174186036Y-87199503D01*
X174124023Y-87231693D01*
X174111657Y-87233470D01*
X174104779Y-87234108D01*
X174022029Y-87241775D01*
X174022027Y-87241776D01*
X173816508Y-87300251D01*
X173816493Y-87300257D01*
X173625228Y-87395496D01*
X173625220Y-87395501D01*
X173454698Y-87524273D01*
X173310744Y-87682184D01*
X173310742Y-87682186D01*
X173198256Y-87863858D01*
X173198253Y-87863864D01*
X173156471Y-87971718D01*
X173121064Y-88063115D01*
X173081800Y-88273159D01*
X173081800Y-88486841D01*
X173121064Y-88696885D01*
X173137417Y-88739097D01*
X173198253Y-88896135D01*
X173198256Y-88896141D01*
X173310742Y-89077813D01*
X173310744Y-89077815D01*
X173454698Y-89235726D01*
X173625220Y-89364498D01*
X173625228Y-89364503D01*
X173816493Y-89459742D01*
X173816497Y-89459743D01*
X173816504Y-89459747D01*
X174022029Y-89518224D01*
X174181489Y-89533000D01*
X174181492Y-89533000D01*
X176193108Y-89533000D01*
X176193111Y-89533000D01*
X176352571Y-89518224D01*
X176558096Y-89459747D01*
X176749377Y-89364500D01*
X176919899Y-89235728D01*
X177063856Y-89077815D01*
X177176345Y-88896138D01*
X177253536Y-88696885D01*
X177292800Y-88486841D01*
X177292800Y-88273159D01*
X177253536Y-88063115D01*
X177187575Y-87892850D01*
X177176346Y-87863864D01*
X177176343Y-87863858D01*
X177063857Y-87682186D01*
X177063855Y-87682184D01*
X176919901Y-87524273D01*
X176749379Y-87395501D01*
X176749371Y-87395496D01*
X176558106Y-87300257D01*
X176558091Y-87300251D01*
X176352572Y-87241776D01*
X176352570Y-87241775D01*
X176277487Y-87234818D01*
X176262942Y-87233470D01*
X176198006Y-87207685D01*
X176157318Y-87150885D01*
X176153798Y-87081104D01*
X176188563Y-87020497D01*
X176250576Y-86988307D01*
X176262939Y-86986529D01*
X176352571Y-86978224D01*
X176558096Y-86919747D01*
X176749377Y-86824500D01*
X176919899Y-86695728D01*
X177063856Y-86537815D01*
X177176345Y-86356138D01*
X177253536Y-86156885D01*
X177289085Y-85966715D01*
X177320753Y-85904434D01*
X177381066Y-85869161D01*
X177410974Y-85865500D01*
X195453812Y-85865500D01*
X195520851Y-85885185D01*
X195541493Y-85901819D01*
X195888181Y-86248507D01*
X195921666Y-86309830D01*
X195924500Y-86336188D01*
X195924500Y-92430372D01*
X195924028Y-92441181D01*
X195920735Y-92478808D01*
X195930512Y-92515298D01*
X195932852Y-92525852D01*
X195939411Y-92563042D01*
X195941235Y-92568055D01*
X195948197Y-92584861D01*
X195950446Y-92589684D01*
X195972104Y-92620616D01*
X195977914Y-92629734D01*
X195996806Y-92662455D01*
X196013715Y-92676643D01*
X196025743Y-92686736D01*
X196033718Y-92694044D01*
X197055955Y-93716282D01*
X197063262Y-93724256D01*
X197087541Y-93753190D01*
X197087543Y-93753191D01*
X197087545Y-93753194D01*
X197087547Y-93753195D01*
X197087548Y-93753196D01*
X197120253Y-93772078D01*
X197129376Y-93777890D01*
X197160316Y-93799554D01*
X197160319Y-93799554D01*
X197165176Y-93801820D01*
X197181933Y-93808760D01*
X197186952Y-93810586D01*
X197186955Y-93810588D01*
X197224141Y-93817144D01*
X197234704Y-93819486D01*
X197252933Y-93824370D01*
X197271193Y-93829263D01*
X197308811Y-93825971D01*
X197319618Y-93825500D01*
X198784417Y-93825500D01*
X198851456Y-93845185D01*
X198897211Y-93897989D01*
X198898979Y-93902049D01*
X198899768Y-93903954D01*
X198997315Y-94086450D01*
X198997317Y-94086452D01*
X199128589Y-94246410D01*
X199200152Y-94305139D01*
X199288550Y-94377685D01*
X199471046Y-94475232D01*
X199669066Y-94535300D01*
X199669065Y-94535300D01*
X199683280Y-94536700D01*
X199823392Y-94550500D01*
X199823395Y-94550500D01*
X200176605Y-94550500D01*
X200176608Y-94550500D01*
X200330934Y-94535300D01*
X200528954Y-94475232D01*
X200711450Y-94377685D01*
X200871410Y-94246410D01*
X201002685Y-94086450D01*
X201100232Y-93903954D01*
X201160300Y-93705934D01*
X201180583Y-93500000D01*
X201160300Y-93294066D01*
X201100232Y-93096046D01*
X201002685Y-92913550D01*
X200925213Y-92819149D01*
X200871410Y-92753589D01*
X200720173Y-92629474D01*
X200711450Y-92622315D01*
X200528954Y-92524768D01*
X200330934Y-92464700D01*
X200330932Y-92464699D01*
X200330934Y-92464699D01*
X200211805Y-92452966D01*
X200176608Y-92449500D01*
X199823392Y-92449500D01*
X199785298Y-92453251D01*
X199669067Y-92464699D01*
X199502265Y-92515298D01*
X199485034Y-92520525D01*
X199471043Y-92524769D01*
X199374714Y-92576259D01*
X199288550Y-92622315D01*
X199288548Y-92622316D01*
X199288547Y-92622317D01*
X199128589Y-92753589D01*
X198997317Y-92913547D01*
X198899768Y-93096045D01*
X198898979Y-93097951D01*
X198898298Y-93098796D01*
X198896896Y-93101419D01*
X198896398Y-93101153D01*
X198855138Y-93152355D01*
X198788844Y-93174421D01*
X198784417Y-93174500D01*
X197486189Y-93174500D01*
X197419150Y-93154815D01*
X197398508Y-93138181D01*
X196611819Y-92351492D01*
X196578334Y-92290169D01*
X196575500Y-92263811D01*
X196575500Y-91435188D01*
X196595185Y-91368149D01*
X196647989Y-91322394D01*
X196717147Y-91312450D01*
X196780703Y-91341475D01*
X196787177Y-91347503D01*
X197086391Y-91646718D01*
X197355955Y-91916282D01*
X197363262Y-91924256D01*
X197387541Y-91953190D01*
X197387543Y-91953191D01*
X197387545Y-91953194D01*
X197387547Y-91953195D01*
X197387548Y-91953196D01*
X197420253Y-91972078D01*
X197429376Y-91977890D01*
X197460316Y-91999554D01*
X197460319Y-91999554D01*
X197465176Y-92001820D01*
X197481933Y-92008760D01*
X197486952Y-92010586D01*
X197486955Y-92010588D01*
X197524141Y-92017144D01*
X197534704Y-92019486D01*
X197552933Y-92024370D01*
X197571193Y-92029263D01*
X197608811Y-92025971D01*
X197619618Y-92025500D01*
X201013812Y-92025500D01*
X201080851Y-92045185D01*
X201101493Y-92061819D01*
X201638181Y-92598507D01*
X201671666Y-92659830D01*
X201674500Y-92686188D01*
X201674500Y-94913811D01*
X201654815Y-94980850D01*
X201638181Y-95001492D01*
X201198738Y-95440934D01*
X201137415Y-95474419D01*
X201067723Y-95469435D01*
X201011790Y-95427563D01*
X201006084Y-95418597D01*
X201006066Y-95418610D01*
X201002685Y-95413550D01*
X200871410Y-95253589D01*
X200753677Y-95156969D01*
X200711450Y-95122315D01*
X200528954Y-95024768D01*
X200330934Y-94964700D01*
X200330932Y-94964699D01*
X200330934Y-94964699D01*
X200211805Y-94952966D01*
X200176608Y-94949500D01*
X199823392Y-94949500D01*
X199785298Y-94953251D01*
X199669067Y-94964699D01*
X199471043Y-95024769D01*
X199367004Y-95080380D01*
X199288550Y-95122315D01*
X199288548Y-95122316D01*
X199288547Y-95122317D01*
X199128589Y-95253589D01*
X198997317Y-95413547D01*
X198997315Y-95413550D01*
X198989825Y-95427563D01*
X198899769Y-95596043D01*
X198839699Y-95794067D01*
X198819417Y-96000000D01*
X198839699Y-96205932D01*
X198864442Y-96287498D01*
X198899768Y-96403954D01*
X198997315Y-96586450D01*
X199009253Y-96600996D01*
X199128589Y-96746410D01*
X199197053Y-96802596D01*
X199288550Y-96877685D01*
X199471046Y-96975232D01*
X199471048Y-96975232D01*
X199471051Y-96975234D01*
X199476670Y-96977562D01*
X199475825Y-96979601D01*
X199525968Y-97012458D01*
X199554428Y-97076268D01*
X199543872Y-97145336D01*
X199497651Y-97197732D01*
X199463633Y-97212602D01*
X199411514Y-97226567D01*
X199411507Y-97226570D01*
X199197422Y-97326399D01*
X199197420Y-97326400D01*
X199003926Y-97461886D01*
X199003920Y-97461891D01*
X198836894Y-97628917D01*
X198701399Y-97822421D01*
X198601570Y-98036507D01*
X198601567Y-98036513D01*
X198544364Y-98249999D01*
X198544364Y-98250000D01*
X199596031Y-98250000D01*
X199563481Y-98300649D01*
X199525000Y-98431705D01*
X199525000Y-98568295D01*
X199563481Y-98699351D01*
X199596031Y-98750000D01*
X198544364Y-98750000D01*
X198601567Y-98963486D01*
X198601570Y-98963492D01*
X198701399Y-99177577D01*
X198701400Y-99177579D01*
X198836886Y-99371073D01*
X198836891Y-99371079D01*
X199003920Y-99538108D01*
X199003926Y-99538113D01*
X199197420Y-99673599D01*
X199197422Y-99673600D01*
X199282168Y-99713118D01*
X199334607Y-99759290D01*
X199353759Y-99826484D01*
X199333543Y-99893365D01*
X199280378Y-99938700D01*
X199229763Y-99949500D01*
X199220730Y-99949500D01*
X199190300Y-99952353D01*
X199190298Y-99952353D01*
X199062119Y-99997206D01*
X199062117Y-99997207D01*
X198952850Y-100077850D01*
X198872207Y-100187117D01*
X198872206Y-100187119D01*
X198827353Y-100315298D01*
X198827353Y-100315300D01*
X198824500Y-100345730D01*
X198824500Y-101654269D01*
X198827353Y-101684699D01*
X198827353Y-101684701D01*
X198870766Y-101808765D01*
X198872207Y-101812882D01*
X198952850Y-101922150D01*
X199062118Y-102002793D01*
X199104845Y-102017744D01*
X199190299Y-102047646D01*
X199220730Y-102050500D01*
X199220734Y-102050500D01*
X200779270Y-102050500D01*
X200809699Y-102047646D01*
X200809701Y-102047646D01*
X200876878Y-102024139D01*
X200937882Y-102002793D01*
X201047150Y-101922150D01*
X201127793Y-101812882D01*
X201158470Y-101725212D01*
X201172646Y-101684701D01*
X201172646Y-101684699D01*
X201175500Y-101654269D01*
X201175500Y-100345730D01*
X201172646Y-100315300D01*
X201172646Y-100315298D01*
X201127793Y-100187119D01*
X201127792Y-100187117D01*
X201047150Y-100077850D01*
X200937882Y-99997207D01*
X200937880Y-99997206D01*
X200809700Y-99952353D01*
X200779270Y-99949500D01*
X200779266Y-99949500D01*
X200770237Y-99949500D01*
X200703198Y-99929815D01*
X200657443Y-99877011D01*
X200647499Y-99807853D01*
X200676524Y-99744297D01*
X200717832Y-99713118D01*
X200802577Y-99673600D01*
X200802579Y-99673599D01*
X200996073Y-99538113D01*
X200996079Y-99538108D01*
X201163105Y-99371082D01*
X201298600Y-99177578D01*
X201398429Y-98963492D01*
X201398432Y-98963486D01*
X201455636Y-98750000D01*
X200403969Y-98750000D01*
X200436519Y-98699351D01*
X200475000Y-98568295D01*
X200475000Y-98431705D01*
X200436519Y-98300649D01*
X200403969Y-98250000D01*
X201455636Y-98250000D01*
X201455635Y-98249999D01*
X201398432Y-98036513D01*
X201398429Y-98036507D01*
X201298600Y-97822422D01*
X201298599Y-97822420D01*
X201163113Y-97628926D01*
X201163108Y-97628920D01*
X200996079Y-97461891D01*
X200996073Y-97461886D01*
X200802579Y-97326400D01*
X200802577Y-97326399D01*
X200588492Y-97226570D01*
X200588486Y-97226567D01*
X200536366Y-97212602D01*
X200476706Y-97176237D01*
X200446177Y-97113390D01*
X200454472Y-97044014D01*
X200498957Y-96990136D01*
X200523662Y-96978364D01*
X200523330Y-96977562D01*
X200528948Y-96975234D01*
X200528948Y-96975233D01*
X200528954Y-96975232D01*
X200711450Y-96877685D01*
X200871410Y-96746410D01*
X201002685Y-96586450D01*
X201100232Y-96403954D01*
X201101665Y-96399227D01*
X201139957Y-96340789D01*
X201198794Y-96313100D01*
X201213045Y-96310588D01*
X201213050Y-96310584D01*
X201218099Y-96308747D01*
X201234824Y-96301819D01*
X201239681Y-96299554D01*
X201239684Y-96299554D01*
X201270625Y-96277887D01*
X201279744Y-96272079D01*
X201312455Y-96253194D01*
X201312457Y-96253192D01*
X201336736Y-96224256D01*
X201344036Y-96216288D01*
X202216296Y-95344029D01*
X202224249Y-95336741D01*
X202253194Y-95312455D01*
X202272082Y-95279738D01*
X202277881Y-95270635D01*
X202299554Y-95239684D01*
X202299554Y-95239681D01*
X202301819Y-95234824D01*
X202308747Y-95218099D01*
X202310587Y-95213046D01*
X202310588Y-95213045D01*
X202317150Y-95175822D01*
X202319479Y-95165316D01*
X202329263Y-95128807D01*
X202325972Y-95091188D01*
X202325500Y-95080380D01*
X202325500Y-92519626D01*
X202325972Y-92508817D01*
X202329264Y-92471193D01*
X202325181Y-92455957D01*
X202319478Y-92434675D01*
X202317150Y-92424173D01*
X202310588Y-92386955D01*
X202310585Y-92386949D01*
X202308760Y-92381933D01*
X202301820Y-92365176D01*
X202299554Y-92360319D01*
X202299554Y-92360316D01*
X202299552Y-92360313D01*
X202277892Y-92329379D01*
X202272080Y-92320256D01*
X202253196Y-92287548D01*
X202253191Y-92287542D01*
X202224255Y-92263262D01*
X202216280Y-92255954D01*
X201444044Y-91483718D01*
X201436734Y-91475741D01*
X201412456Y-91446807D01*
X201412455Y-91446806D01*
X201379734Y-91427914D01*
X201370616Y-91422104D01*
X201339684Y-91400446D01*
X201334861Y-91398197D01*
X201318055Y-91391235D01*
X201313042Y-91389411D01*
X201275852Y-91382852D01*
X201265298Y-91380512D01*
X201228808Y-91370735D01*
X201191181Y-91374028D01*
X201180372Y-91374500D01*
X197786189Y-91374500D01*
X197719150Y-91354815D01*
X197698508Y-91338181D01*
X197061819Y-90701492D01*
X197028334Y-90640169D01*
X197025500Y-90613811D01*
X197025500Y-85983230D01*
X197025972Y-85972421D01*
X197029264Y-85934797D01*
X197019478Y-85898279D01*
X197017150Y-85887777D01*
X197010588Y-85850559D01*
X197010585Y-85850553D01*
X197008760Y-85845537D01*
X197001820Y-85828780D01*
X196999554Y-85823923D01*
X196999554Y-85823920D01*
X196977892Y-85792983D01*
X196972080Y-85783860D01*
X196953196Y-85751152D01*
X196953191Y-85751146D01*
X196924255Y-85726866D01*
X196916280Y-85719558D01*
X196070440Y-84873718D01*
X196063130Y-84865741D01*
X196038852Y-84836807D01*
X196038851Y-84836806D01*
X196006130Y-84817914D01*
X195997012Y-84812104D01*
X195966080Y-84790446D01*
X195961257Y-84788197D01*
X195944451Y-84781235D01*
X195939438Y-84779411D01*
X195902248Y-84772852D01*
X195891694Y-84770512D01*
X195855204Y-84760735D01*
X195817577Y-84764028D01*
X195806768Y-84764500D01*
X179576189Y-84764500D01*
X179509150Y-84744815D01*
X179488508Y-84728181D01*
X179210327Y-84450000D01*
X198378357Y-84450000D01*
X198396865Y-84560919D01*
X198475707Y-84790573D01*
X198475713Y-84790587D01*
X198591275Y-85004129D01*
X198591281Y-85004138D01*
X198740417Y-85195747D01*
X198740426Y-85195757D01*
X198919062Y-85360205D01*
X198919073Y-85360213D01*
X199122350Y-85493021D01*
X199344722Y-85590561D01*
X199344721Y-85590561D01*
X199580105Y-85650169D01*
X199580116Y-85650171D01*
X199761483Y-85665199D01*
X199761498Y-85665200D01*
X200537300Y-85665200D01*
X200537300Y-84450000D01*
X198378357Y-84450000D01*
X179210327Y-84450000D01*
X178932167Y-84171840D01*
X200483405Y-84171840D01*
X200493754Y-84283521D01*
X200543748Y-84383922D01*
X200626634Y-84459484D01*
X200731220Y-84500000D01*
X200815102Y-84500000D01*
X200897550Y-84484588D01*
X200953411Y-84450000D01*
X201037300Y-84450000D01*
X201037300Y-85665200D01*
X201813102Y-85665200D01*
X201813116Y-85665199D01*
X201994483Y-85650171D01*
X201994494Y-85650169D01*
X202229878Y-85590561D01*
X202452249Y-85493021D01*
X202655526Y-85360213D01*
X202655537Y-85360205D01*
X202834173Y-85195757D01*
X202834182Y-85195747D01*
X202983318Y-85004138D01*
X202983324Y-85004129D01*
X203098886Y-84790587D01*
X203098892Y-84790573D01*
X203177734Y-84560919D01*
X203196243Y-84450000D01*
X201037300Y-84450000D01*
X200953411Y-84450000D01*
X200992910Y-84425543D01*
X201060501Y-84336038D01*
X201091195Y-84228160D01*
X201080846Y-84116479D01*
X201030852Y-84016078D01*
X200947966Y-83940516D01*
X200843380Y-83900000D01*
X200759498Y-83900000D01*
X200677050Y-83915412D01*
X200581690Y-83974457D01*
X200514099Y-84063962D01*
X200483405Y-84171840D01*
X178932167Y-84171840D01*
X177544044Y-82783718D01*
X177536734Y-82775741D01*
X177512456Y-82746807D01*
X177512455Y-82746806D01*
X177479734Y-82727914D01*
X177470616Y-82722104D01*
X177439684Y-82700446D01*
X177434861Y-82698197D01*
X177418055Y-82691235D01*
X177413042Y-82689411D01*
X177375852Y-82682852D01*
X177365298Y-82680512D01*
X177328808Y-82670735D01*
X177291181Y-82674028D01*
X177280372Y-82674500D01*
X177177699Y-82674500D01*
X177110660Y-82654815D01*
X177072273Y-82615779D01*
X177065855Y-82605414D01*
X177063856Y-82602185D01*
X177063853Y-82602181D01*
X177063852Y-82602180D01*
X176919901Y-82444273D01*
X176749379Y-82315501D01*
X176749375Y-82315499D01*
X176733751Y-82307719D01*
X176682515Y-82260215D01*
X176665094Y-82192552D01*
X176687020Y-82126212D01*
X176739215Y-82083162D01*
X176833487Y-82041811D01*
X177034999Y-81910156D01*
X177035010Y-81910148D01*
X177212097Y-81747126D01*
X177212106Y-81747116D01*
X177359949Y-81557168D01*
X177359955Y-81557159D01*
X177474515Y-81345468D01*
X177474521Y-81345454D01*
X177552680Y-81117791D01*
X177570667Y-81010000D01*
X175630496Y-81010000D01*
X175654145Y-80973201D01*
X175695300Y-80833039D01*
X175695300Y-80686961D01*
X175654145Y-80546799D01*
X175630496Y-80510000D01*
X177570666Y-80510000D01*
X177570666Y-80509999D01*
X177552680Y-80402208D01*
X177474521Y-80174545D01*
X177474515Y-80174531D01*
X177359955Y-79962840D01*
X177359949Y-79962831D01*
X177212106Y-79772883D01*
X177212097Y-79772873D01*
X177035010Y-79609851D01*
X177034999Y-79609843D01*
X176833484Y-79478186D01*
X176739215Y-79436836D01*
X176685729Y-79391880D01*
X176665039Y-79325144D01*
X176683714Y-79257816D01*
X176692303Y-79250000D01*
X198378357Y-79250000D01*
X198396865Y-79360919D01*
X198475707Y-79590573D01*
X198475713Y-79590587D01*
X198591275Y-79804129D01*
X198591281Y-79804138D01*
X198740417Y-79995747D01*
X198740426Y-79995757D01*
X198919062Y-80160205D01*
X198919073Y-80160213D01*
X199122350Y-80293021D01*
X199234919Y-80342398D01*
X199288405Y-80387354D01*
X199309095Y-80454089D01*
X199290421Y-80521417D01*
X199250387Y-80561381D01*
X199081800Y-80665765D01*
X198922146Y-80811309D01*
X198791957Y-80983706D01*
X198791952Y-80983714D01*
X198695660Y-81177095D01*
X198695657Y-81177101D01*
X198636539Y-81384883D01*
X198636538Y-81384886D01*
X198616606Y-81599999D01*
X198616606Y-81600000D01*
X198636538Y-81815113D01*
X198636539Y-81815116D01*
X198695657Y-82022898D01*
X198695660Y-82022904D01*
X198791952Y-82216285D01*
X198791957Y-82216293D01*
X198922146Y-82388690D01*
X198922147Y-82388691D01*
X199081799Y-82534234D01*
X199081801Y-82534235D01*
X199081802Y-82534236D01*
X199250386Y-82638618D01*
X199297022Y-82690645D01*
X199308126Y-82759627D01*
X199280173Y-82823662D01*
X199234919Y-82857601D01*
X199122350Y-82906978D01*
X198919073Y-83039786D01*
X198919062Y-83039794D01*
X198740426Y-83204242D01*
X198740417Y-83204252D01*
X198591281Y-83395861D01*
X198591275Y-83395870D01*
X198475713Y-83609412D01*
X198475707Y-83609426D01*
X198396865Y-83839080D01*
X198378357Y-83949999D01*
X198378358Y-83950000D01*
X200537300Y-83950000D01*
X200537300Y-82734800D01*
X201037300Y-82734800D01*
X201037300Y-83950000D01*
X203196242Y-83950000D01*
X203196242Y-83949999D01*
X203177734Y-83839080D01*
X203098892Y-83609426D01*
X203098886Y-83609412D01*
X202983324Y-83395870D01*
X202983318Y-83395861D01*
X202834182Y-83204252D01*
X202834173Y-83204242D01*
X202655537Y-83039794D01*
X202655526Y-83039786D01*
X202452249Y-82906978D01*
X202229877Y-82809438D01*
X202229878Y-82809438D01*
X201994494Y-82749830D01*
X201994483Y-82749828D01*
X201813116Y-82734800D01*
X201037300Y-82734800D01*
X200537300Y-82734800D01*
X200502988Y-82700488D01*
X200469503Y-82639165D01*
X200474487Y-82569473D01*
X200507131Y-82521170D01*
X200530253Y-82500092D01*
X200607267Y-82429882D01*
X200652451Y-82388693D01*
X200652454Y-82388690D01*
X200782644Y-82216291D01*
X200878940Y-82022903D01*
X200878940Y-82022900D01*
X200878942Y-82022898D01*
X200919643Y-81879846D01*
X200938061Y-81815114D01*
X200957994Y-81600000D01*
X200949285Y-81506019D01*
X200938061Y-81384886D01*
X200938060Y-81384883D01*
X200878942Y-81177101D01*
X200878939Y-81177095D01*
X200782647Y-80983714D01*
X200782642Y-80983706D01*
X200652453Y-80811309D01*
X200593757Y-80757800D01*
X200507129Y-80678828D01*
X200470849Y-80619117D01*
X200472610Y-80549270D01*
X200502988Y-80499510D01*
X200537300Y-80465198D01*
X200537300Y-79250000D01*
X198378357Y-79250000D01*
X176692303Y-79250000D01*
X176733755Y-79212279D01*
X176737174Y-79210575D01*
X176749377Y-79204500D01*
X176919899Y-79075728D01*
X177014606Y-78971840D01*
X200483405Y-78971840D01*
X200493754Y-79083521D01*
X200543748Y-79183922D01*
X200626634Y-79259484D01*
X200731220Y-79300000D01*
X200815102Y-79300000D01*
X200897550Y-79284588D01*
X200953411Y-79250000D01*
X201037300Y-79250000D01*
X201037300Y-80465200D01*
X201813102Y-80465200D01*
X201813116Y-80465199D01*
X201994483Y-80450171D01*
X201994494Y-80450169D01*
X202229878Y-80390561D01*
X202452249Y-80293021D01*
X202655526Y-80160213D01*
X202655537Y-80160205D01*
X202834173Y-79995757D01*
X202834182Y-79995747D01*
X202983318Y-79804138D01*
X202983324Y-79804129D01*
X203098886Y-79590587D01*
X203098892Y-79590573D01*
X203177734Y-79360919D01*
X203196243Y-79250000D01*
X201037300Y-79250000D01*
X200953411Y-79250000D01*
X200992910Y-79225543D01*
X201060501Y-79136038D01*
X201091195Y-79028160D01*
X201080846Y-78916479D01*
X201030852Y-78816078D01*
X200947966Y-78740516D01*
X200843380Y-78700000D01*
X200759498Y-78700000D01*
X200677050Y-78715412D01*
X200581690Y-78774457D01*
X200514099Y-78863962D01*
X200483405Y-78971840D01*
X177014606Y-78971840D01*
X177063856Y-78917815D01*
X177167763Y-78749999D01*
X198378357Y-78749999D01*
X198378358Y-78750000D01*
X200537300Y-78750000D01*
X200537300Y-77534800D01*
X201037300Y-77534800D01*
X201037300Y-78750000D01*
X203196242Y-78750000D01*
X203196242Y-78749999D01*
X203177734Y-78639080D01*
X203098892Y-78409426D01*
X203098886Y-78409412D01*
X202983324Y-78195870D01*
X202983318Y-78195861D01*
X202834182Y-78004252D01*
X202834173Y-78004242D01*
X202655537Y-77839794D01*
X202655526Y-77839786D01*
X202452249Y-77706978D01*
X202229877Y-77609438D01*
X202229878Y-77609438D01*
X201994494Y-77549830D01*
X201994483Y-77549828D01*
X201813116Y-77534800D01*
X201037300Y-77534800D01*
X200537300Y-77534800D01*
X199761483Y-77534800D01*
X199580116Y-77549828D01*
X199580105Y-77549830D01*
X199344721Y-77609438D01*
X199122350Y-77706978D01*
X198919073Y-77839786D01*
X198919062Y-77839794D01*
X198740426Y-78004242D01*
X198740417Y-78004252D01*
X198591281Y-78195861D01*
X198591275Y-78195870D01*
X198475713Y-78409412D01*
X198475707Y-78409426D01*
X198396865Y-78639080D01*
X198378357Y-78749999D01*
X177167763Y-78749999D01*
X177176345Y-78736138D01*
X177253536Y-78536885D01*
X177292800Y-78326841D01*
X177292800Y-78113159D01*
X177253536Y-77903115D01*
X177176345Y-77703862D01*
X177134854Y-77636852D01*
X177063857Y-77522186D01*
X177063855Y-77522184D01*
X176919901Y-77364273D01*
X176749379Y-77235501D01*
X176749371Y-77235496D01*
X176558106Y-77140257D01*
X176558091Y-77140251D01*
X176352572Y-77081776D01*
X176352570Y-77081775D01*
X176230505Y-77070465D01*
X176193111Y-77067000D01*
X174181489Y-77067000D01*
X174146805Y-77070213D01*
X174022029Y-77081775D01*
X174022027Y-77081776D01*
X173816508Y-77140251D01*
X173816493Y-77140257D01*
X173625228Y-77235496D01*
X173625220Y-77235501D01*
X173454698Y-77364273D01*
X173310744Y-77522184D01*
X173310742Y-77522186D01*
X173198256Y-77703858D01*
X173198253Y-77703864D01*
X173123487Y-77896861D01*
X173121064Y-77903115D01*
X173081800Y-78113159D01*
X173081800Y-78326841D01*
X173121064Y-78536885D01*
X173126075Y-78549819D01*
X173198253Y-78736135D01*
X173198256Y-78736141D01*
X173310742Y-78917813D01*
X173310744Y-78917815D01*
X173454698Y-79075726D01*
X173613610Y-79195730D01*
X173625223Y-79204500D01*
X173637391Y-79210559D01*
X173640847Y-79212280D01*
X173692083Y-79259784D01*
X173709504Y-79327447D01*
X173687578Y-79393787D01*
X173635385Y-79436836D01*
X173541113Y-79478187D01*
X173339600Y-79609843D01*
X173339589Y-79609851D01*
X173162502Y-79772873D01*
X173162493Y-79772883D01*
X173014650Y-79962831D01*
X173014644Y-79962840D01*
X172900084Y-80174531D01*
X172900078Y-80174545D01*
X172821919Y-80402208D01*
X172803933Y-80509999D01*
X172803934Y-80510000D01*
X174744104Y-80510000D01*
X174720455Y-80546799D01*
X174679300Y-80686961D01*
X174679300Y-80833039D01*
X174720455Y-80973201D01*
X174744104Y-81010000D01*
X172803933Y-81010000D01*
X166343118Y-81010000D01*
X166166836Y-80833718D01*
X166159526Y-80825741D01*
X166135248Y-80796807D01*
X166135247Y-80796806D01*
X166102526Y-80777914D01*
X166093408Y-80772104D01*
X166062476Y-80750446D01*
X166057653Y-80748197D01*
X166040847Y-80741235D01*
X166035834Y-80739411D01*
X165998644Y-80732852D01*
X165988090Y-80730512D01*
X165951600Y-80720735D01*
X165913973Y-80724028D01*
X165903164Y-80724500D01*
X163685734Y-80724500D01*
X163674925Y-80724028D01*
X163637309Y-80720736D01*
X163637308Y-80720736D01*
X163600828Y-80730511D01*
X163590273Y-80732852D01*
X163553071Y-80739412D01*
X163548079Y-80741229D01*
X163531234Y-80748206D01*
X163526430Y-80750446D01*
X163495495Y-80772107D01*
X163486378Y-80777916D01*
X163453662Y-80796805D01*
X163429383Y-80825740D01*
X163422076Y-80833713D01*
X163192485Y-81063306D01*
X161829121Y-82426668D01*
X161821148Y-82433975D01*
X161792211Y-82458256D01*
X161773320Y-82490975D01*
X161767511Y-82500092D01*
X161745852Y-82531024D01*
X161743612Y-82535828D01*
X161736635Y-82552672D01*
X161734816Y-82557671D01*
X161728258Y-82594859D01*
X161725918Y-82605414D01*
X161716141Y-82641902D01*
X161716141Y-82641903D01*
X161719434Y-82679528D01*
X161719906Y-82690337D01*
X161719906Y-86359218D01*
X161700221Y-86426257D01*
X161683587Y-86446899D01*
X160842305Y-87288181D01*
X160780982Y-87321666D01*
X160754624Y-87324500D01*
X154745376Y-87324500D01*
X154678337Y-87304815D01*
X154657695Y-87288181D01*
X154309232Y-86939718D01*
X154309212Y-86939696D01*
X152653232Y-85283718D01*
X152645922Y-85275741D01*
X152621644Y-85246807D01*
X152621643Y-85246806D01*
X152588922Y-85227914D01*
X152579804Y-85222104D01*
X152548872Y-85200446D01*
X152544049Y-85198197D01*
X152527243Y-85191235D01*
X152522230Y-85189411D01*
X152485040Y-85182852D01*
X152474486Y-85180512D01*
X152437996Y-85170735D01*
X152400369Y-85174028D01*
X152389560Y-85174500D01*
X150546827Y-85174500D01*
X150536020Y-85174028D01*
X150533732Y-85173827D01*
X150498400Y-85170736D01*
X150498399Y-85170736D01*
X150461919Y-85180511D01*
X150451364Y-85182852D01*
X150414162Y-85189412D01*
X150409170Y-85191229D01*
X150392325Y-85198206D01*
X150387521Y-85200446D01*
X150356589Y-85222105D01*
X150347472Y-85227914D01*
X150314756Y-85246804D01*
X150314748Y-85246810D01*
X150290470Y-85275743D01*
X150283164Y-85283716D01*
X149703576Y-85863306D01*
X148433715Y-87133165D01*
X148425742Y-87140472D01*
X148396805Y-87164753D01*
X148377914Y-87197472D01*
X148372105Y-87206589D01*
X148350446Y-87237521D01*
X148348206Y-87242325D01*
X148341229Y-87259169D01*
X148339410Y-87264168D01*
X148332852Y-87301356D01*
X148330512Y-87311911D01*
X148320735Y-87348399D01*
X148320735Y-87348400D01*
X148324028Y-87386025D01*
X148324500Y-87396834D01*
X148324500Y-88231699D01*
X148304815Y-88298738D01*
X148275988Y-88330074D01*
X148221720Y-88371715D01*
X148125463Y-88497160D01*
X148064956Y-88643237D01*
X148064955Y-88643239D01*
X148044318Y-88799998D01*
X148044318Y-88800001D01*
X148064955Y-88956760D01*
X148064956Y-88956762D01*
X148125464Y-89102841D01*
X148221718Y-89228282D01*
X148347159Y-89324536D01*
X148493238Y-89385044D01*
X148571619Y-89395363D01*
X148649999Y-89405682D01*
X148650000Y-89405682D01*
X148650001Y-89405682D01*
X148708434Y-89397989D01*
X148806762Y-89385044D01*
X148952841Y-89324536D01*
X149078282Y-89228282D01*
X149126624Y-89165280D01*
X149183052Y-89124078D01*
X149252798Y-89119923D01*
X149313718Y-89154135D01*
X149323376Y-89165281D01*
X149368628Y-89224256D01*
X149371718Y-89228282D01*
X149497159Y-89324536D01*
X149643238Y-89385044D01*
X149721619Y-89395363D01*
X149799999Y-89405682D01*
X149800000Y-89405682D01*
X149800001Y-89405682D01*
X149858434Y-89397989D01*
X149956762Y-89385044D01*
X150102841Y-89324536D01*
X150228282Y-89228282D01*
X150324536Y-89102841D01*
X150385044Y-88956762D01*
X150405682Y-88800000D01*
X150385044Y-88643238D01*
X150385043Y-88643237D01*
X150383983Y-88635180D01*
X150386885Y-88634797D01*
X150388201Y-88579024D01*
X150427350Y-88521152D01*
X150490134Y-88493815D01*
X150556762Y-88485044D01*
X150702841Y-88424536D01*
X150828282Y-88328282D01*
X150924536Y-88202841D01*
X150985044Y-88056762D01*
X151005682Y-87900000D01*
X150986306Y-87752826D01*
X150997071Y-87683793D01*
X151043451Y-87631537D01*
X151110720Y-87612652D01*
X151177521Y-87633132D01*
X151184714Y-87638254D01*
X151297159Y-87724536D01*
X151443238Y-87785044D01*
X151471548Y-87788771D01*
X151599999Y-87805682D01*
X151600000Y-87805682D01*
X151600001Y-87805682D01*
X151635708Y-87800980D01*
X151667818Y-87796753D01*
X151736853Y-87807518D01*
X151771684Y-87832010D01*
X152496433Y-88556760D01*
X153155955Y-89216282D01*
X153163262Y-89224256D01*
X153187542Y-89253190D01*
X153187545Y-89253194D01*
X153220261Y-89272082D01*
X153229366Y-89277882D01*
X153260316Y-89299553D01*
X153260318Y-89299553D01*
X153260319Y-89299554D01*
X153265168Y-89301815D01*
X153281947Y-89308765D01*
X153286952Y-89310587D01*
X153286953Y-89310587D01*
X153286955Y-89310588D01*
X153324162Y-89317148D01*
X153334701Y-89319484D01*
X153371193Y-89329263D01*
X153408811Y-89325971D01*
X153419618Y-89325500D01*
X160129922Y-89325500D01*
X160196961Y-89345185D01*
X160242716Y-89397989D01*
X160252660Y-89467147D01*
X160244483Y-89496952D01*
X160214957Y-89568234D01*
X160214955Y-89568239D01*
X160194318Y-89724998D01*
X160194318Y-89725001D01*
X160214955Y-89881760D01*
X160214956Y-89881762D01*
X160274695Y-90025986D01*
X160275464Y-90027841D01*
X160371718Y-90153282D01*
X160425987Y-90194924D01*
X160467189Y-90251349D01*
X160474500Y-90293298D01*
X160474500Y-96040833D01*
X160454815Y-96107872D01*
X160402011Y-96153627D01*
X160332853Y-96163571D01*
X160269297Y-96134546D01*
X160262819Y-96128514D01*
X160181071Y-96046766D01*
X160027360Y-95950184D01*
X160027358Y-95950183D01*
X159856010Y-95890226D01*
X159720869Y-95875000D01*
X159465600Y-95875000D01*
X159465600Y-98311199D01*
X159720865Y-98311199D01*
X159720870Y-98311198D01*
X159856010Y-98295973D01*
X159856023Y-98295970D01*
X160027353Y-98236019D01*
X160027360Y-98236015D01*
X160181071Y-98139433D01*
X160262819Y-98057686D01*
X160324142Y-98024201D01*
X160393834Y-98029185D01*
X160449767Y-98071057D01*
X160474184Y-98136521D01*
X160474500Y-98145367D01*
X160474500Y-98977416D01*
X160454815Y-99044455D01*
X160438181Y-99065097D01*
X157865097Y-101638181D01*
X157803774Y-101671666D01*
X157777416Y-101674500D01*
X151219616Y-101674500D01*
X151208807Y-101674028D01*
X151171192Y-101670736D01*
X151134717Y-101680510D01*
X151124161Y-101682850D01*
X151086958Y-101689411D01*
X151081983Y-101691221D01*
X151065118Y-101698207D01*
X151060313Y-101700447D01*
X151029376Y-101722108D01*
X151020262Y-101727915D01*
X150987545Y-101746805D01*
X150963261Y-101775744D01*
X150955956Y-101783715D01*
X149337181Y-103402491D01*
X149275858Y-103435976D01*
X149206166Y-103430992D01*
X149150233Y-103389120D01*
X149125816Y-103323656D01*
X149125500Y-103314810D01*
X149125500Y-102119618D01*
X149125972Y-102108810D01*
X149129263Y-102071191D01*
X149119486Y-102034704D01*
X149117144Y-102024139D01*
X149113380Y-102002792D01*
X149110588Y-101986955D01*
X149110586Y-101986952D01*
X149108760Y-101981933D01*
X149101820Y-101965176D01*
X149099554Y-101960319D01*
X149099554Y-101960316D01*
X149077892Y-101929379D01*
X149072080Y-101920256D01*
X149053196Y-101887548D01*
X149053191Y-101887542D01*
X149024255Y-101863262D01*
X149016280Y-101855954D01*
X148444044Y-101283718D01*
X148436734Y-101275741D01*
X148412456Y-101246807D01*
X148412455Y-101246806D01*
X148379734Y-101227914D01*
X148370616Y-101222104D01*
X148339684Y-101200446D01*
X148334861Y-101198197D01*
X148318055Y-101191235D01*
X148313042Y-101189411D01*
X148275852Y-101182852D01*
X148265298Y-101180512D01*
X148228808Y-101170735D01*
X148191181Y-101174028D01*
X148180372Y-101174500D01*
X147649500Y-101174500D01*
X147582461Y-101154815D01*
X147536706Y-101102011D01*
X147525500Y-101050500D01*
X147525500Y-97565169D01*
X155818300Y-97565169D01*
X155818301Y-97565175D01*
X155824818Y-97625802D01*
X155875968Y-97762939D01*
X155898020Y-97792398D01*
X155963685Y-97880115D01*
X156080860Y-97967831D01*
X156218000Y-98018982D01*
X156278627Y-98025500D01*
X157290172Y-98025499D01*
X157350800Y-98018982D01*
X157487940Y-97967831D01*
X157605115Y-97880115D01*
X157692831Y-97762940D01*
X157727867Y-97669005D01*
X157769736Y-97613074D01*
X157835201Y-97588657D01*
X157903474Y-97603509D01*
X157952879Y-97652914D01*
X157964938Y-97684748D01*
X157965228Y-97686019D01*
X158025180Y-97857353D01*
X158025184Y-97857360D01*
X158121766Y-98011071D01*
X158250128Y-98139433D01*
X158403839Y-98236015D01*
X158403841Y-98236016D01*
X158575189Y-98295973D01*
X158710332Y-98311199D01*
X158965599Y-98311199D01*
X158965600Y-98311198D01*
X158965600Y-95875000D01*
X158710335Y-95875000D01*
X158710329Y-95875001D01*
X158575189Y-95890226D01*
X158575176Y-95890229D01*
X158403846Y-95950180D01*
X158403839Y-95950184D01*
X158250128Y-96046766D01*
X158121766Y-96175128D01*
X158025184Y-96328839D01*
X158025183Y-96328841D01*
X157965225Y-96500192D01*
X157963676Y-96506980D01*
X157961600Y-96506506D01*
X157938512Y-96561445D01*
X157880914Y-96600996D01*
X157811077Y-96603129D01*
X157751173Y-96567167D01*
X157726182Y-96526475D01*
X157692831Y-96437060D01*
X157692829Y-96437057D01*
X157605115Y-96319885D01*
X157516026Y-96253194D01*
X157487942Y-96232170D01*
X157487940Y-96232169D01*
X157350800Y-96181018D01*
X157350798Y-96181017D01*
X157350796Y-96181017D01*
X157290180Y-96174500D01*
X156278630Y-96174500D01*
X156278624Y-96174501D01*
X156217997Y-96181018D01*
X156080860Y-96232168D01*
X155963685Y-96319885D01*
X155875970Y-96437057D01*
X155875969Y-96437060D01*
X155829576Y-96561445D01*
X155824817Y-96574203D01*
X155818300Y-96634810D01*
X155818300Y-97565169D01*
X147525500Y-97565169D01*
X147525500Y-94093298D01*
X147545185Y-94026259D01*
X147574010Y-93994925D01*
X147628282Y-93953282D01*
X147724536Y-93827841D01*
X147785044Y-93681762D01*
X147798802Y-93577254D01*
X147805682Y-93525001D01*
X147805682Y-93524998D01*
X147785044Y-93368239D01*
X147785044Y-93368238D01*
X147724536Y-93222159D01*
X147628282Y-93096718D01*
X147628280Y-93096716D01*
X147628279Y-93096715D01*
X147574012Y-93055074D01*
X147532810Y-92998646D01*
X147525500Y-92956699D01*
X147525500Y-92643298D01*
X147545185Y-92576259D01*
X147574010Y-92544925D01*
X147628282Y-92503282D01*
X147724536Y-92377841D01*
X147785044Y-92231762D01*
X147805682Y-92075000D01*
X147799227Y-92025972D01*
X147785836Y-91924256D01*
X147785044Y-91918238D01*
X147724536Y-91772159D01*
X147628282Y-91646718D01*
X147502841Y-91550464D01*
X147356762Y-91489956D01*
X147356760Y-91489955D01*
X147200001Y-91469318D01*
X147199999Y-91469318D01*
X147043239Y-91489955D01*
X147043237Y-91489956D01*
X146897160Y-91550463D01*
X146771718Y-91646718D01*
X146675463Y-91772160D01*
X146614956Y-91918237D01*
X146614955Y-91918239D01*
X146594318Y-92074998D01*
X146594318Y-92075001D01*
X146614955Y-92231760D01*
X146614956Y-92231762D01*
X146675464Y-92377841D01*
X146771718Y-92503282D01*
X146825987Y-92544924D01*
X146867189Y-92601349D01*
X146874500Y-92643298D01*
X146874500Y-92956699D01*
X146854815Y-93023738D01*
X146825988Y-93055074D01*
X146771720Y-93096715D01*
X146675463Y-93222160D01*
X146614956Y-93368237D01*
X146614955Y-93368239D01*
X146594318Y-93524998D01*
X146594318Y-93525001D01*
X146614955Y-93681760D01*
X146614956Y-93681762D01*
X146668317Y-93810588D01*
X146675464Y-93827841D01*
X146771718Y-93953282D01*
X146825987Y-93994924D01*
X146867189Y-94051349D01*
X146874500Y-94093298D01*
X146874500Y-101050500D01*
X146854815Y-101117539D01*
X146802011Y-101163294D01*
X146750500Y-101174500D01*
X144286189Y-101174500D01*
X144219150Y-101154815D01*
X144198508Y-101138181D01*
X144061819Y-101001492D01*
X144028334Y-100940169D01*
X144025500Y-100913811D01*
X144025500Y-99668298D01*
X144045185Y-99601259D01*
X144074010Y-99569925D01*
X144128282Y-99528282D01*
X144224536Y-99402841D01*
X144285044Y-99256762D01*
X144303624Y-99115630D01*
X144305682Y-99100001D01*
X144305682Y-99099998D01*
X144289544Y-98977416D01*
X144285044Y-98943238D01*
X144224536Y-98797159D01*
X144128282Y-98671718D01*
X144002841Y-98575464D01*
X143957690Y-98556762D01*
X143856762Y-98514956D01*
X143856760Y-98514955D01*
X143700001Y-98494318D01*
X143699999Y-98494318D01*
X143543239Y-98514955D01*
X143543234Y-98514957D01*
X143474397Y-98543470D01*
X143404927Y-98550939D01*
X143342448Y-98519663D01*
X143306797Y-98459574D01*
X143304007Y-98412721D01*
X143305682Y-98400000D01*
X143300795Y-98362882D01*
X143285044Y-98243239D01*
X143285044Y-98243238D01*
X143224536Y-98097159D01*
X143128282Y-97971718D01*
X143128280Y-97971716D01*
X143128279Y-97971715D01*
X143074012Y-97930074D01*
X143032810Y-97873646D01*
X143025500Y-97831699D01*
X143025500Y-92886188D01*
X143045185Y-92819149D01*
X143061819Y-92798507D01*
X143498508Y-92361819D01*
X143559831Y-92328334D01*
X143586189Y-92325500D01*
X144631701Y-92325500D01*
X144698740Y-92345185D01*
X144730076Y-92374013D01*
X144736153Y-92381933D01*
X144768539Y-92424140D01*
X144771718Y-92428282D01*
X144897159Y-92524536D01*
X145043238Y-92585044D01*
X145121619Y-92595363D01*
X145199999Y-92605682D01*
X145200000Y-92605682D01*
X145200001Y-92605682D01*
X145254500Y-92598507D01*
X145356762Y-92585044D01*
X145502841Y-92524536D01*
X145628282Y-92428282D01*
X145724536Y-92302841D01*
X145785044Y-92156762D01*
X145801097Y-92034826D01*
X145805682Y-92000001D01*
X145805682Y-91999998D01*
X145785044Y-91843239D01*
X145785044Y-91843238D01*
X145724536Y-91697159D01*
X145628282Y-91571718D01*
X145502841Y-91475464D01*
X145488003Y-91469318D01*
X145356762Y-91414956D01*
X145356760Y-91414955D01*
X145200001Y-91394318D01*
X145199999Y-91394318D01*
X145043239Y-91414955D01*
X145043237Y-91414956D01*
X144897160Y-91475463D01*
X144771716Y-91571719D01*
X144730077Y-91625986D01*
X144673649Y-91667189D01*
X144631701Y-91674500D01*
X143419616Y-91674500D01*
X143408807Y-91674028D01*
X143371192Y-91670736D01*
X143334717Y-91680510D01*
X143324161Y-91682850D01*
X143286958Y-91689411D01*
X143281983Y-91691221D01*
X143265118Y-91698207D01*
X143260313Y-91700447D01*
X143229376Y-91722108D01*
X143220262Y-91727915D01*
X143187545Y-91746805D01*
X143163261Y-91775744D01*
X143155956Y-91783715D01*
X142483715Y-92455957D01*
X142475742Y-92463264D01*
X142446805Y-92487545D01*
X142427914Y-92520264D01*
X142422105Y-92529381D01*
X142400446Y-92560313D01*
X142398206Y-92565117D01*
X142391229Y-92581961D01*
X142389410Y-92586960D01*
X142382852Y-92624148D01*
X142380512Y-92634703D01*
X142369275Y-92676643D01*
X142369152Y-92676843D01*
X142373028Y-92697389D01*
X142374028Y-92708817D01*
X142374500Y-92719626D01*
X142374500Y-97132467D01*
X142354815Y-97199506D01*
X142302011Y-97245261D01*
X142232853Y-97255205D01*
X142174972Y-97230811D01*
X142173972Y-97230043D01*
X142132793Y-97173598D01*
X142125500Y-97131699D01*
X142125500Y-92708198D01*
X142134806Y-92676505D01*
X142125535Y-92647505D01*
X142125500Y-92644552D01*
X142125500Y-92086188D01*
X142145185Y-92019149D01*
X142161819Y-91998507D01*
X143398508Y-90761819D01*
X143459831Y-90728334D01*
X143486189Y-90725500D01*
X146631701Y-90725500D01*
X146698740Y-90745185D01*
X146730076Y-90774013D01*
X146771718Y-90828282D01*
X146897159Y-90924536D01*
X147043238Y-90985044D01*
X147121619Y-90995363D01*
X147199999Y-91005682D01*
X147200000Y-91005682D01*
X147200001Y-91005682D01*
X147252254Y-90998802D01*
X147356762Y-90985044D01*
X147502841Y-90924536D01*
X147628282Y-90828282D01*
X147724536Y-90702841D01*
X147785044Y-90556762D01*
X147805682Y-90400000D01*
X147785044Y-90243238D01*
X147724536Y-90097159D01*
X147628282Y-89971718D01*
X147502841Y-89875464D01*
X147356762Y-89814956D01*
X147356760Y-89814955D01*
X147200001Y-89794318D01*
X147199999Y-89794318D01*
X147043239Y-89814955D01*
X147043237Y-89814956D01*
X146897160Y-89875463D01*
X146771716Y-89971719D01*
X146730077Y-90025986D01*
X146673649Y-90067189D01*
X146631701Y-90074500D01*
X143319617Y-90074500D01*
X143308808Y-90074028D01*
X143271192Y-90070736D01*
X143271191Y-90070736D01*
X143234711Y-90080511D01*
X143224156Y-90082852D01*
X143186954Y-90089412D01*
X143181962Y-90091229D01*
X143165117Y-90098206D01*
X143160313Y-90100446D01*
X143129378Y-90122107D01*
X143120261Y-90127916D01*
X143087548Y-90146804D01*
X143087545Y-90146806D01*
X143087543Y-90146807D01*
X143087542Y-90146809D01*
X143063261Y-90175744D01*
X143055956Y-90183715D01*
X141583715Y-91655957D01*
X141575742Y-91663264D01*
X141546805Y-91687545D01*
X141527914Y-91720264D01*
X141522105Y-91729381D01*
X141500446Y-91760313D01*
X141498206Y-91765117D01*
X141491229Y-91781961D01*
X141489410Y-91786960D01*
X141482852Y-91824148D01*
X141480512Y-91834703D01*
X141470735Y-91871191D01*
X141470735Y-91871192D01*
X141474028Y-91908817D01*
X141474500Y-91919626D01*
X141474500Y-97131699D01*
X141454815Y-97198738D01*
X141425988Y-97230074D01*
X141371720Y-97271715D01*
X141275463Y-97397160D01*
X141214956Y-97543237D01*
X141214955Y-97543239D01*
X141194318Y-97699998D01*
X141194318Y-97700001D01*
X141214955Y-97856760D01*
X141214956Y-97856762D01*
X141260961Y-97967829D01*
X141275464Y-98002841D01*
X141371718Y-98128282D01*
X141497159Y-98224536D01*
X141643238Y-98285044D01*
X141721619Y-98295363D01*
X141799999Y-98305682D01*
X141800000Y-98305682D01*
X141954160Y-98285386D01*
X142023194Y-98296151D01*
X142075450Y-98342531D01*
X142093283Y-98392140D01*
X142114955Y-98556760D01*
X142114956Y-98556762D01*
X142175464Y-98702841D01*
X142271718Y-98828282D01*
X142325987Y-98869924D01*
X142367189Y-98926349D01*
X142374500Y-98968298D01*
X142374500Y-102680372D01*
X142374028Y-102691181D01*
X142370735Y-102728808D01*
X142380512Y-102765298D01*
X142382852Y-102775852D01*
X142389411Y-102813042D01*
X142391235Y-102818055D01*
X142398197Y-102834861D01*
X142400446Y-102839684D01*
X142422104Y-102870616D01*
X142427914Y-102879734D01*
X142446806Y-102912455D01*
X142475743Y-102936736D01*
X142483718Y-102944044D01*
X142788181Y-103248507D01*
X142821666Y-103309830D01*
X142824500Y-103336188D01*
X142824500Y-104894752D01*
X142836131Y-104953229D01*
X142836132Y-104953230D01*
X142880447Y-105019552D01*
X142946769Y-105063867D01*
X142946770Y-105063868D01*
X143005247Y-105075499D01*
X143005250Y-105075500D01*
X143005252Y-105075500D01*
X144744750Y-105075500D01*
X144744751Y-105075499D01*
X144759568Y-105072552D01*
X144803229Y-105063868D01*
X144803229Y-105063867D01*
X144803231Y-105063867D01*
X144869552Y-105019552D01*
X144913867Y-104953231D01*
X144913867Y-104953229D01*
X144913868Y-104953229D01*
X144925499Y-104894752D01*
X144925500Y-104894750D01*
X144925500Y-104025000D01*
X145359417Y-104025000D01*
X145379699Y-104230932D01*
X145385240Y-104249198D01*
X145439768Y-104428954D01*
X145537315Y-104611450D01*
X145537317Y-104611452D01*
X145668589Y-104771410D01*
X145757122Y-104844066D01*
X145828550Y-104902685D01*
X146011046Y-105000232D01*
X146209066Y-105060300D01*
X146209065Y-105060300D01*
X146227529Y-105062118D01*
X146415000Y-105080583D01*
X146620934Y-105060300D01*
X146818954Y-105000232D01*
X147001450Y-104902685D01*
X147161410Y-104771410D01*
X147292685Y-104611450D01*
X147390232Y-104428954D01*
X147450300Y-104230934D01*
X147470583Y-104025000D01*
X147450300Y-103819066D01*
X147390232Y-103621046D01*
X147292685Y-103438550D01*
X147240702Y-103375209D01*
X147161410Y-103278589D01*
X147011121Y-103155252D01*
X147001450Y-103147315D01*
X146818954Y-103049768D01*
X146620934Y-102989700D01*
X146620932Y-102989699D01*
X146620934Y-102989699D01*
X146415000Y-102969417D01*
X146209067Y-102989699D01*
X146011043Y-103049769D01*
X145923114Y-103096769D01*
X145828550Y-103147315D01*
X145828548Y-103147316D01*
X145828547Y-103147317D01*
X145668589Y-103278589D01*
X145539427Y-103435976D01*
X145537315Y-103438550D01*
X145501067Y-103506365D01*
X145439769Y-103621043D01*
X145379699Y-103819067D01*
X145359417Y-104025000D01*
X144925500Y-104025000D01*
X144925500Y-103155249D01*
X144925499Y-103155247D01*
X144913868Y-103096770D01*
X144913867Y-103096769D01*
X144869552Y-103030447D01*
X144803230Y-102986132D01*
X144803229Y-102986131D01*
X144744752Y-102974500D01*
X144744748Y-102974500D01*
X143486188Y-102974500D01*
X143419149Y-102954815D01*
X143398507Y-102938181D01*
X143061819Y-102601493D01*
X143028334Y-102540170D01*
X143025500Y-102513812D01*
X143025500Y-99572696D01*
X143045185Y-99505657D01*
X143097989Y-99459902D01*
X143167147Y-99449958D01*
X143230703Y-99478983D01*
X143247874Y-99497208D01*
X143271718Y-99528282D01*
X143325987Y-99569924D01*
X143367189Y-99626349D01*
X143374500Y-99668298D01*
X143374500Y-101080372D01*
X143374028Y-101091181D01*
X143370735Y-101128808D01*
X143380512Y-101165298D01*
X143382852Y-101175852D01*
X143389411Y-101213042D01*
X143391235Y-101218055D01*
X143398197Y-101234861D01*
X143400446Y-101239684D01*
X143422104Y-101270616D01*
X143427914Y-101279734D01*
X143446806Y-101312455D01*
X143475743Y-101336736D01*
X143483718Y-101344044D01*
X143855955Y-101716282D01*
X143863262Y-101724256D01*
X143887542Y-101753190D01*
X143887545Y-101753194D01*
X143920261Y-101772082D01*
X143929366Y-101777882D01*
X143960316Y-101799553D01*
X143960318Y-101799553D01*
X143960319Y-101799554D01*
X143965168Y-101801815D01*
X143981947Y-101808765D01*
X143986952Y-101810587D01*
X143986953Y-101810587D01*
X143986955Y-101810588D01*
X144024162Y-101817148D01*
X144034701Y-101819484D01*
X144071193Y-101829263D01*
X144108811Y-101825971D01*
X144119618Y-101825500D01*
X147142606Y-101825500D01*
X147171525Y-101825500D01*
X148013812Y-101825500D01*
X148080851Y-101845185D01*
X148101493Y-101861819D01*
X148438181Y-102198507D01*
X148471666Y-102259830D01*
X148474500Y-102286188D01*
X148474500Y-105713812D01*
X148454815Y-105780851D01*
X148438181Y-105801493D01*
X148036493Y-106203181D01*
X147975170Y-106236666D01*
X147948812Y-106239500D01*
X147505583Y-106239500D01*
X147438544Y-106219815D01*
X147392789Y-106167011D01*
X147391021Y-106162951D01*
X147390233Y-106161051D01*
X147390232Y-106161046D01*
X147292685Y-105978550D01*
X147240702Y-105915209D01*
X147161410Y-105818589D01*
X147001452Y-105687317D01*
X147001453Y-105687317D01*
X147001450Y-105687315D01*
X146818954Y-105589768D01*
X146620934Y-105529700D01*
X146620932Y-105529699D01*
X146620934Y-105529699D01*
X146415000Y-105509417D01*
X146209067Y-105529699D01*
X146011043Y-105589769D01*
X145928044Y-105634134D01*
X145828550Y-105687315D01*
X145828548Y-105687316D01*
X145828547Y-105687317D01*
X145668589Y-105818589D01*
X145554827Y-105957211D01*
X145537315Y-105978550D01*
X145528352Y-105995319D01*
X145439769Y-106161043D01*
X145439768Y-106161045D01*
X145439768Y-106161046D01*
X145435240Y-106175972D01*
X145379699Y-106359067D01*
X145359417Y-106565000D01*
X145379699Y-106770932D01*
X145403231Y-106848507D01*
X145439768Y-106968954D01*
X145537315Y-107151450D01*
X145537317Y-107151452D01*
X145668589Y-107311410D01*
X145765209Y-107390702D01*
X145828550Y-107442685D01*
X146011046Y-107540232D01*
X146077551Y-107560405D01*
X146135989Y-107598702D01*
X146164446Y-107662514D01*
X146153887Y-107731581D01*
X146107663Y-107783975D01*
X146073650Y-107798841D01*
X145951514Y-107831567D01*
X145951507Y-107831570D01*
X145737422Y-107931399D01*
X145737420Y-107931400D01*
X145543926Y-108066886D01*
X145543920Y-108066891D01*
X145376891Y-108233920D01*
X145376886Y-108233926D01*
X145241400Y-108427420D01*
X145241399Y-108427422D01*
X145141570Y-108641507D01*
X145141567Y-108641514D01*
X145108841Y-108763650D01*
X145072476Y-108823310D01*
X145009629Y-108853839D01*
X144940253Y-108845544D01*
X144886375Y-108801059D01*
X144870406Y-108767553D01*
X144850232Y-108701046D01*
X144752685Y-108518550D01*
X144677897Y-108427420D01*
X144621410Y-108358589D01*
X144481625Y-108243872D01*
X144461450Y-108227315D01*
X144278954Y-108129768D01*
X144080934Y-108069700D01*
X144080932Y-108069699D01*
X144080934Y-108069699D01*
X143875000Y-108049417D01*
X143669067Y-108069699D01*
X143471043Y-108129769D01*
X143383112Y-108176770D01*
X143288550Y-108227315D01*
X143288548Y-108227316D01*
X143288547Y-108227317D01*
X143128589Y-108358589D01*
X142997317Y-108518547D01*
X142899769Y-108701043D01*
X142839699Y-108899067D01*
X142819417Y-109105000D01*
X142839699Y-109310932D01*
X142839700Y-109310934D01*
X142899768Y-109508954D01*
X142997315Y-109691450D01*
X142997317Y-109691452D01*
X143128589Y-109851410D01*
X143204308Y-109913550D01*
X143288550Y-109982685D01*
X143471046Y-110080232D01*
X143471051Y-110080233D01*
X143472951Y-110081021D01*
X143473796Y-110081701D01*
X143476419Y-110083104D01*
X143476153Y-110083601D01*
X143527355Y-110124862D01*
X143549421Y-110191156D01*
X143549500Y-110195583D01*
X143549500Y-110955372D01*
X143549028Y-110966181D01*
X143545735Y-111003808D01*
X143555512Y-111040298D01*
X143557852Y-111050852D01*
X143564411Y-111088042D01*
X143566235Y-111093055D01*
X143573197Y-111109861D01*
X143575446Y-111114684D01*
X143597104Y-111145616D01*
X143602914Y-111154734D01*
X143621806Y-111187455D01*
X143650743Y-111211736D01*
X143658718Y-111219044D01*
X143955955Y-111516282D01*
X143963262Y-111524256D01*
X143972530Y-111535300D01*
X143985284Y-111550500D01*
X143987542Y-111553190D01*
X143987545Y-111553194D01*
X144020261Y-111572082D01*
X144029366Y-111577882D01*
X144060316Y-111599553D01*
X144060318Y-111599553D01*
X144060319Y-111599554D01*
X144065168Y-111601815D01*
X144081947Y-111608765D01*
X144086952Y-111610587D01*
X144086953Y-111610587D01*
X144086955Y-111610588D01*
X144124162Y-111617148D01*
X144134701Y-111619484D01*
X144171193Y-111629263D01*
X144208811Y-111625971D01*
X144219618Y-111625500D01*
X148380372Y-111625500D01*
X148391180Y-111625971D01*
X148428807Y-111629264D01*
X148465319Y-111619479D01*
X148475830Y-111617149D01*
X148513045Y-111610588D01*
X148513050Y-111610584D01*
X148518099Y-111608747D01*
X148534824Y-111601819D01*
X148539681Y-111599554D01*
X148539684Y-111599554D01*
X148570625Y-111577887D01*
X148579744Y-111572079D01*
X148612455Y-111553194D01*
X148612457Y-111553192D01*
X148636736Y-111524256D01*
X148644036Y-111516288D01*
X149616290Y-110544034D01*
X149624243Y-110536746D01*
X149653194Y-110512455D01*
X149672082Y-110479739D01*
X149677887Y-110470625D01*
X149699554Y-110439684D01*
X149699554Y-110439681D01*
X149701819Y-110434824D01*
X149708747Y-110418099D01*
X149710584Y-110413050D01*
X149710588Y-110413045D01*
X149717149Y-110375830D01*
X149719479Y-110365319D01*
X149729264Y-110328807D01*
X149725972Y-110291177D01*
X149725500Y-110280369D01*
X149725500Y-103986188D01*
X149745185Y-103919149D01*
X149761819Y-103898507D01*
X150516143Y-103144183D01*
X150884313Y-102776013D01*
X150945635Y-102742529D01*
X151015327Y-102747513D01*
X151071260Y-102789385D01*
X151095677Y-102854849D01*
X151094932Y-102879880D01*
X151085984Y-102947848D01*
X151085984Y-102947853D01*
X151098156Y-103040318D01*
X151087390Y-103109353D01*
X151062898Y-103144183D01*
X150805072Y-103402009D01*
X150797099Y-103409316D01*
X150768162Y-103433597D01*
X150749271Y-103466316D01*
X150743462Y-103475433D01*
X150721803Y-103506365D01*
X150719563Y-103511169D01*
X150712586Y-103528013D01*
X150710767Y-103533012D01*
X150704209Y-103570200D01*
X150701869Y-103580755D01*
X150692092Y-103617243D01*
X150692092Y-103617244D01*
X150695385Y-103654869D01*
X150695857Y-103665678D01*
X150695857Y-105296957D01*
X150695385Y-105307766D01*
X150692092Y-105345393D01*
X150701869Y-105381883D01*
X150704209Y-105392437D01*
X150710768Y-105429627D01*
X150712592Y-105434640D01*
X150719554Y-105451446D01*
X150721803Y-105456269D01*
X150743461Y-105487201D01*
X150749271Y-105496319D01*
X150768163Y-105529040D01*
X150780205Y-105539145D01*
X150818908Y-105597315D01*
X150824500Y-105634134D01*
X150824500Y-111542464D01*
X150804815Y-111609503D01*
X150752011Y-111655258D01*
X150682853Y-111665202D01*
X150619297Y-111636177D01*
X150602125Y-111617951D01*
X150544201Y-111542464D01*
X150528282Y-111521718D01*
X150402841Y-111425464D01*
X150287492Y-111377685D01*
X150256762Y-111364956D01*
X150256760Y-111364955D01*
X150100001Y-111344318D01*
X150099999Y-111344318D01*
X149943239Y-111364955D01*
X149943237Y-111364956D01*
X149797160Y-111425463D01*
X149671718Y-111521718D01*
X149575463Y-111647160D01*
X149514956Y-111793237D01*
X149514955Y-111793239D01*
X149494318Y-111949998D01*
X149494318Y-111950001D01*
X149503246Y-112017818D01*
X149492480Y-112086853D01*
X149467988Y-112121684D01*
X149158715Y-112430957D01*
X149150742Y-112438264D01*
X149121805Y-112462545D01*
X149102914Y-112495264D01*
X149097105Y-112504381D01*
X149075446Y-112535313D01*
X149073206Y-112540117D01*
X149066229Y-112556961D01*
X149064410Y-112561960D01*
X149057852Y-112599148D01*
X149055512Y-112609703D01*
X149045735Y-112646191D01*
X149045735Y-112646192D01*
X149049028Y-112683817D01*
X149049500Y-112694626D01*
X149049500Y-115502416D01*
X149029815Y-115569455D01*
X149013181Y-115590097D01*
X146865097Y-117738181D01*
X146803774Y-117771666D01*
X146777416Y-117774500D01*
X116322585Y-117774500D01*
X116255546Y-117754815D01*
X116234904Y-117738181D01*
X115611819Y-117115096D01*
X115578334Y-117053773D01*
X115575500Y-117027415D01*
X115575500Y-116117654D01*
X116944500Y-116117654D01*
X116950629Y-116174660D01*
X116950630Y-116174665D01*
X116998724Y-116303611D01*
X116998725Y-116303612D01*
X116998726Y-116303614D01*
X117081206Y-116413794D01*
X117191386Y-116496274D01*
X117191387Y-116496274D01*
X117191388Y-116496275D01*
X117320335Y-116544369D01*
X117320334Y-116544369D01*
X117320340Y-116544371D01*
X117377346Y-116550500D01*
X117377356Y-116550500D01*
X118417644Y-116550500D01*
X118417654Y-116550500D01*
X118474660Y-116544371D01*
X118603614Y-116496274D01*
X118713794Y-116413794D01*
X118796274Y-116303614D01*
X118844371Y-116174660D01*
X118850500Y-116117654D01*
X118850500Y-115247346D01*
X118844371Y-115190340D01*
X118842656Y-115185742D01*
X118796275Y-115061388D01*
X118796274Y-115061387D01*
X118796274Y-115061386D01*
X118713794Y-114951206D01*
X118603614Y-114868726D01*
X118603612Y-114868725D01*
X118603611Y-114868724D01*
X118474664Y-114820630D01*
X118474665Y-114820630D01*
X118474661Y-114820629D01*
X118474660Y-114820629D01*
X118417654Y-114814500D01*
X117377346Y-114814500D01*
X117320340Y-114820629D01*
X117320338Y-114820629D01*
X117320334Y-114820630D01*
X117191388Y-114868724D01*
X117191386Y-114868726D01*
X117081206Y-114951206D01*
X116998726Y-115061386D01*
X116998724Y-115061388D01*
X116950630Y-115190334D01*
X116950629Y-115190338D01*
X116950629Y-115190340D01*
X116944500Y-115247346D01*
X116944500Y-116117654D01*
X115575500Y-116117654D01*
X115575500Y-113617654D01*
X116944500Y-113617654D01*
X116950629Y-113674660D01*
X116950630Y-113674665D01*
X116998724Y-113803611D01*
X116998725Y-113803612D01*
X116998726Y-113803614D01*
X117081206Y-113913794D01*
X117191386Y-113996274D01*
X117191387Y-113996274D01*
X117191388Y-113996275D01*
X117320335Y-114044369D01*
X117320334Y-114044369D01*
X117320340Y-114044371D01*
X117377346Y-114050500D01*
X117377356Y-114050500D01*
X118417644Y-114050500D01*
X118417654Y-114050500D01*
X118474660Y-114044371D01*
X118603614Y-113996274D01*
X118713794Y-113913794D01*
X118796274Y-113803614D01*
X118844371Y-113674660D01*
X118850500Y-113617654D01*
X118850500Y-112747346D01*
X118844371Y-112690340D01*
X118838044Y-112673376D01*
X118796275Y-112561388D01*
X118796274Y-112561387D01*
X118796274Y-112561386D01*
X118713794Y-112451206D01*
X118603614Y-112368726D01*
X118603612Y-112368725D01*
X118603611Y-112368724D01*
X118474664Y-112320630D01*
X118474665Y-112320630D01*
X118474661Y-112320629D01*
X118474660Y-112320629D01*
X118417654Y-112314500D01*
X117377346Y-112314500D01*
X117320340Y-112320629D01*
X117320338Y-112320629D01*
X117320334Y-112320630D01*
X117191388Y-112368724D01*
X117191386Y-112368726D01*
X117081206Y-112451206D01*
X116998726Y-112561386D01*
X116998724Y-112561388D01*
X116950630Y-112690334D01*
X116950629Y-112690338D01*
X116950629Y-112690340D01*
X116944500Y-112747346D01*
X116944500Y-113617654D01*
X115575500Y-113617654D01*
X115575500Y-113519615D01*
X115575972Y-113508806D01*
X115578277Y-113482461D01*
X115579263Y-113471193D01*
X115579262Y-113471192D01*
X115579263Y-113471191D01*
X115569487Y-113434707D01*
X115567148Y-113424161D01*
X115560588Y-113386955D01*
X115560587Y-113386954D01*
X115560587Y-113386951D01*
X115558765Y-113381947D01*
X115551815Y-113365168D01*
X115549554Y-113360319D01*
X115549553Y-113360318D01*
X115549553Y-113360316D01*
X115527882Y-113329366D01*
X115522082Y-113320261D01*
X115503194Y-113287545D01*
X115503190Y-113287541D01*
X115474262Y-113263268D01*
X115466286Y-113255959D01*
X115094044Y-112883718D01*
X115086734Y-112875741D01*
X115062456Y-112846807D01*
X115062455Y-112846806D01*
X115029734Y-112827914D01*
X115020616Y-112822104D01*
X114989684Y-112800446D01*
X114984861Y-112798197D01*
X114968055Y-112791235D01*
X114963042Y-112789411D01*
X114925852Y-112782852D01*
X114915298Y-112780512D01*
X114878808Y-112770735D01*
X114841181Y-112774028D01*
X114830372Y-112774500D01*
X111999500Y-112774500D01*
X111932461Y-112754815D01*
X111886706Y-112702011D01*
X111875500Y-112650500D01*
X111875500Y-112445730D01*
X111872646Y-112415300D01*
X111872646Y-112415298D01*
X111833159Y-112302453D01*
X111827793Y-112287118D01*
X111747150Y-112177850D01*
X111637882Y-112097207D01*
X111637880Y-112097206D01*
X111509700Y-112052353D01*
X111479270Y-112049500D01*
X111479266Y-112049500D01*
X109920734Y-112049500D01*
X109920730Y-112049500D01*
X109890300Y-112052353D01*
X109890298Y-112052353D01*
X109762119Y-112097206D01*
X109762117Y-112097207D01*
X109652850Y-112177850D01*
X109572207Y-112287117D01*
X109572206Y-112287119D01*
X109527353Y-112415298D01*
X109527353Y-112415300D01*
X109524500Y-112445730D01*
X109524500Y-113754269D01*
X109527353Y-113784699D01*
X109527353Y-113784701D01*
X109570666Y-113908478D01*
X109572207Y-113912882D01*
X109652850Y-114022150D01*
X109762118Y-114102793D01*
X109804845Y-114117744D01*
X109890299Y-114147646D01*
X109920730Y-114150500D01*
X109920734Y-114150500D01*
X111479270Y-114150500D01*
X111509699Y-114147646D01*
X111509701Y-114147646D01*
X111573790Y-114125219D01*
X111637882Y-114102793D01*
X111747150Y-114022150D01*
X111827793Y-113912882D01*
X111857271Y-113828639D01*
X111872646Y-113784701D01*
X111872646Y-113784699D01*
X111875500Y-113754269D01*
X111875500Y-113549500D01*
X111895185Y-113482461D01*
X111947989Y-113436706D01*
X111999500Y-113425500D01*
X114663812Y-113425500D01*
X114730851Y-113445185D01*
X114751493Y-113461819D01*
X114888181Y-113598507D01*
X114921666Y-113659830D01*
X114924500Y-113686188D01*
X114924500Y-115314812D01*
X114904815Y-115381851D01*
X114852011Y-115427606D01*
X114782853Y-115437550D01*
X114719297Y-115408525D01*
X114712819Y-115402493D01*
X114694044Y-115383718D01*
X114686734Y-115375741D01*
X114662456Y-115346807D01*
X114662455Y-115346806D01*
X114629734Y-115327914D01*
X114620616Y-115322104D01*
X114589684Y-115300446D01*
X114584861Y-115298197D01*
X114568055Y-115291235D01*
X114563042Y-115289411D01*
X114525852Y-115282852D01*
X114515298Y-115280512D01*
X114478808Y-115270735D01*
X114441181Y-115274028D01*
X114430372Y-115274500D01*
X111915583Y-115274500D01*
X111848544Y-115254815D01*
X111802789Y-115202011D01*
X111801021Y-115197951D01*
X111800233Y-115196051D01*
X111800232Y-115196046D01*
X111702685Y-115013550D01*
X111650702Y-114950209D01*
X111571410Y-114853589D01*
X111411452Y-114722317D01*
X111411453Y-114722317D01*
X111411450Y-114722315D01*
X111228954Y-114624768D01*
X111030934Y-114564700D01*
X111030932Y-114564699D01*
X111030934Y-114564699D01*
X110911805Y-114552966D01*
X110876608Y-114549500D01*
X110523392Y-114549500D01*
X110485298Y-114553251D01*
X110369067Y-114564699D01*
X110171043Y-114624769D01*
X110060898Y-114683643D01*
X109988550Y-114722315D01*
X109988548Y-114722316D01*
X109988547Y-114722317D01*
X109828589Y-114853589D01*
X109697317Y-115013547D01*
X109697315Y-115013550D01*
X109671746Y-115061386D01*
X109599769Y-115196043D01*
X109539699Y-115394067D01*
X109519417Y-115600000D01*
X109539699Y-115805932D01*
X109569358Y-115903705D01*
X109599768Y-116003954D01*
X109697315Y-116186450D01*
X109731969Y-116228677D01*
X109828589Y-116346410D01*
X109910697Y-116413793D01*
X109988550Y-116477685D01*
X110171046Y-116575232D01*
X110171048Y-116575232D01*
X110171051Y-116575234D01*
X110176670Y-116577562D01*
X110175825Y-116579601D01*
X110225968Y-116612458D01*
X110254428Y-116676268D01*
X110243872Y-116745336D01*
X110197651Y-116797732D01*
X110163633Y-116812602D01*
X110111514Y-116826567D01*
X110111507Y-116826570D01*
X109897422Y-116926399D01*
X109897420Y-116926400D01*
X109703926Y-117061886D01*
X109703920Y-117061891D01*
X109536894Y-117228917D01*
X109401399Y-117422421D01*
X109301570Y-117636507D01*
X109301567Y-117636513D01*
X109244364Y-117849999D01*
X109244364Y-117850000D01*
X110296031Y-117850000D01*
X110263481Y-117900649D01*
X110225000Y-118031705D01*
X110225000Y-118168295D01*
X110263481Y-118299351D01*
X110296031Y-118350000D01*
X109244364Y-118350000D01*
X109301567Y-118563486D01*
X109301570Y-118563492D01*
X109401399Y-118777577D01*
X109401400Y-118777579D01*
X109536886Y-118971073D01*
X109536891Y-118971079D01*
X109703920Y-119138108D01*
X109703922Y-119138109D01*
X109861468Y-119248425D01*
X109905092Y-119303002D01*
X109912285Y-119372501D01*
X109880763Y-119434855D01*
X109861468Y-119451575D01*
X109703922Y-119561890D01*
X109703920Y-119561891D01*
X109536894Y-119728917D01*
X109401399Y-119922421D01*
X109301570Y-120136507D01*
X109301567Y-120136513D01*
X109244364Y-120349999D01*
X109244364Y-120350000D01*
X110296031Y-120350000D01*
X110263481Y-120400649D01*
X110225000Y-120531705D01*
X110225000Y-120668295D01*
X110263481Y-120799351D01*
X110296031Y-120850000D01*
X109244364Y-120850000D01*
X104000500Y-120850000D01*
X104000500Y-103742605D01*
X106695642Y-103742605D01*
X106706483Y-103801770D01*
X106707610Y-103809171D01*
X106714859Y-103868871D01*
X106714860Y-103868874D01*
X106718451Y-103878343D01*
X106724474Y-103899946D01*
X106726304Y-103909930D01*
X106726305Y-103909932D01*
X106742698Y-103946357D01*
X106750991Y-103964782D01*
X106753854Y-103971694D01*
X106775182Y-104027930D01*
X106775183Y-104027931D01*
X106780936Y-104036266D01*
X106791961Y-104055813D01*
X106796120Y-104065055D01*
X106796124Y-104065060D01*
X106833215Y-104112403D01*
X106837655Y-104118438D01*
X106871812Y-104167924D01*
X106871816Y-104167929D01*
X106916828Y-104207805D01*
X106922283Y-104212940D01*
X108237058Y-105527715D01*
X108242178Y-105533153D01*
X108282071Y-105578183D01*
X108309789Y-105597315D01*
X108331569Y-105612349D01*
X108337601Y-105616788D01*
X108384938Y-105653874D01*
X108384943Y-105653877D01*
X108394174Y-105658031D01*
X108413727Y-105669059D01*
X108422070Y-105674818D01*
X108478322Y-105696151D01*
X108485228Y-105699012D01*
X108540063Y-105723692D01*
X108540064Y-105723692D01*
X108540068Y-105723694D01*
X108550030Y-105725519D01*
X108571651Y-105731546D01*
X108581125Y-105735139D01*
X108581128Y-105735140D01*
X108625234Y-105740495D01*
X108640830Y-105742389D01*
X108648235Y-105743516D01*
X108669400Y-105747394D01*
X108707394Y-105754357D01*
X108767423Y-105750726D01*
X108774910Y-105750500D01*
X109907265Y-105750500D01*
X109974304Y-105770185D01*
X109999119Y-105792274D01*
X109999287Y-105792107D01*
X110002165Y-105794985D01*
X110003115Y-105795831D01*
X110003591Y-105796411D01*
X110129164Y-105899465D01*
X110168499Y-105957211D01*
X110174500Y-105995319D01*
X110174500Y-108050078D01*
X110174274Y-108057566D01*
X110170642Y-108117603D01*
X110170642Y-108117605D01*
X110181483Y-108176770D01*
X110182610Y-108184171D01*
X110189859Y-108243871D01*
X110189860Y-108243874D01*
X110193451Y-108253343D01*
X110199474Y-108274946D01*
X110201304Y-108284930D01*
X110225991Y-108339782D01*
X110228854Y-108346694D01*
X110250182Y-108402930D01*
X110250183Y-108402931D01*
X110255936Y-108411266D01*
X110266961Y-108430813D01*
X110271120Y-108440055D01*
X110271124Y-108440060D01*
X110308215Y-108487403D01*
X110312655Y-108493438D01*
X110346812Y-108542924D01*
X110346816Y-108542929D01*
X110391828Y-108582805D01*
X110397283Y-108587940D01*
X112487058Y-110677715D01*
X112492178Y-110683153D01*
X112532071Y-110728183D01*
X112581573Y-110762352D01*
X112587591Y-110766780D01*
X112617354Y-110790097D01*
X112634947Y-110803880D01*
X112634946Y-110803880D01*
X112644177Y-110808034D01*
X112663731Y-110819062D01*
X112672070Y-110824818D01*
X112728331Y-110846154D01*
X112735208Y-110849003D01*
X112756563Y-110858615D01*
X112790063Y-110873693D01*
X112790066Y-110873693D01*
X112790069Y-110873695D01*
X112800034Y-110875521D01*
X112821656Y-110881548D01*
X112824777Y-110882731D01*
X112831128Y-110885140D01*
X112888689Y-110892128D01*
X112890815Y-110892387D01*
X112898222Y-110893514D01*
X112957394Y-110904358D01*
X113017433Y-110900725D01*
X113024921Y-110900500D01*
X118858481Y-110900500D01*
X118925520Y-110920185D01*
X118946162Y-110936819D01*
X119465681Y-111456338D01*
X119499166Y-111517661D01*
X119502000Y-111544019D01*
X119502000Y-112302453D01*
X119482315Y-112369492D01*
X119452311Y-112401719D01*
X119386208Y-112451204D01*
X119386207Y-112451205D01*
X119386206Y-112451206D01*
X119319648Y-112540117D01*
X119303726Y-112561386D01*
X119303724Y-112561388D01*
X119255630Y-112690334D01*
X119255629Y-112690338D01*
X119255629Y-112690340D01*
X119249500Y-112747346D01*
X119249500Y-113617654D01*
X119255629Y-113674660D01*
X119255630Y-113674665D01*
X119303724Y-113803611D01*
X119303725Y-113803612D01*
X119303726Y-113803614D01*
X119386206Y-113913794D01*
X119452313Y-113963281D01*
X119494181Y-114019211D01*
X119502000Y-114062545D01*
X119502000Y-114802453D01*
X119482315Y-114869492D01*
X119452311Y-114901719D01*
X119386208Y-114951204D01*
X119386207Y-114951205D01*
X119386206Y-114951206D01*
X119339538Y-115013547D01*
X119303726Y-115061386D01*
X119303724Y-115061388D01*
X119255630Y-115190334D01*
X119255629Y-115190338D01*
X119255629Y-115190340D01*
X119249500Y-115247346D01*
X119249500Y-116117654D01*
X119255629Y-116174660D01*
X119255630Y-116174665D01*
X119303724Y-116303611D01*
X119303725Y-116303612D01*
X119303726Y-116303614D01*
X119386206Y-116413794D01*
X119496386Y-116496274D01*
X119496387Y-116496274D01*
X119496388Y-116496275D01*
X119625335Y-116544369D01*
X119625334Y-116544369D01*
X119625340Y-116544371D01*
X119682346Y-116550500D01*
X119682356Y-116550500D01*
X120722644Y-116550500D01*
X120722654Y-116550500D01*
X120779660Y-116544371D01*
X120908614Y-116496274D01*
X121018794Y-116413794D01*
X121101274Y-116303614D01*
X121149371Y-116174660D01*
X121155500Y-116117654D01*
X121155500Y-115247346D01*
X121149371Y-115190340D01*
X121147656Y-115185742D01*
X121101275Y-115061388D01*
X121101274Y-115061387D01*
X121101274Y-115061386D01*
X121018794Y-114951206D01*
X121007898Y-114943049D01*
X120952689Y-114901719D01*
X120910818Y-114845785D01*
X120903000Y-114802453D01*
X120903000Y-114062545D01*
X120922685Y-113995506D01*
X120952683Y-113963283D01*
X121018794Y-113913794D01*
X121018795Y-113913791D01*
X121025894Y-113908478D01*
X121027991Y-113911279D01*
X121074592Y-113885834D01*
X121100950Y-113883000D01*
X137692579Y-113883000D01*
X137700066Y-113883225D01*
X137760106Y-113886858D01*
X137819282Y-113876013D01*
X137826685Y-113874887D01*
X137830421Y-113874433D01*
X137886372Y-113867640D01*
X137895835Y-113864050D01*
X137917461Y-113858022D01*
X137918393Y-113857851D01*
X137927432Y-113856195D01*
X137982308Y-113831496D01*
X137989178Y-113828650D01*
X138045430Y-113807318D01*
X138053766Y-113801562D01*
X138073321Y-113790534D01*
X138082557Y-113786378D01*
X138129913Y-113749275D01*
X138135904Y-113744866D01*
X138185429Y-113710683D01*
X138225322Y-113665651D01*
X138230424Y-113660231D01*
X138994090Y-112896565D01*
X138999510Y-112891463D01*
X139044542Y-112851570D01*
X139078725Y-112802045D01*
X139083134Y-112796054D01*
X139120237Y-112748698D01*
X139124396Y-112739456D01*
X139135421Y-112719909D01*
X139141177Y-112711571D01*
X139144803Y-112702011D01*
X139162505Y-112655331D01*
X139165361Y-112648432D01*
X139190053Y-112593573D01*
X139191879Y-112583606D01*
X139197907Y-112561981D01*
X139201499Y-112552513D01*
X139208748Y-112492810D01*
X139209875Y-112485403D01*
X139211484Y-112476624D01*
X139220716Y-112426247D01*
X139217085Y-112366218D01*
X139216859Y-112358731D01*
X139216859Y-106565000D01*
X142819417Y-106565000D01*
X142839699Y-106770932D01*
X142863231Y-106848507D01*
X142899768Y-106968954D01*
X142997315Y-107151450D01*
X142997317Y-107151452D01*
X143128589Y-107311410D01*
X143225209Y-107390702D01*
X143288550Y-107442685D01*
X143471046Y-107540232D01*
X143669066Y-107600300D01*
X143669065Y-107600300D01*
X143687529Y-107602118D01*
X143875000Y-107620583D01*
X144080934Y-107600300D01*
X144278954Y-107540232D01*
X144461450Y-107442685D01*
X144621410Y-107311410D01*
X144752685Y-107151450D01*
X144850232Y-106968954D01*
X144910300Y-106770934D01*
X144930583Y-106565000D01*
X144910300Y-106359066D01*
X144850232Y-106161046D01*
X144752685Y-105978550D01*
X144700702Y-105915209D01*
X144621410Y-105818589D01*
X144461452Y-105687317D01*
X144461453Y-105687317D01*
X144461450Y-105687315D01*
X144278954Y-105589768D01*
X144080934Y-105529700D01*
X144080932Y-105529699D01*
X144080934Y-105529699D01*
X143875000Y-105509417D01*
X143669067Y-105529699D01*
X143471043Y-105589769D01*
X143388044Y-105634134D01*
X143288550Y-105687315D01*
X143288548Y-105687316D01*
X143288547Y-105687317D01*
X143128589Y-105818589D01*
X143014827Y-105957211D01*
X142997315Y-105978550D01*
X142988352Y-105995319D01*
X142899769Y-106161043D01*
X142899768Y-106161045D01*
X142899768Y-106161046D01*
X142895240Y-106175972D01*
X142839699Y-106359067D01*
X142819417Y-106565000D01*
X139216859Y-106565000D01*
X139216859Y-100857545D01*
X139236544Y-100790506D01*
X139266542Y-100758283D01*
X139332653Y-100708794D01*
X139415133Y-100598614D01*
X139463230Y-100469660D01*
X139469359Y-100412654D01*
X139469359Y-99542346D01*
X139463230Y-99485340D01*
X139453742Y-99459902D01*
X139415134Y-99356388D01*
X139415133Y-99356387D01*
X139415133Y-99356386D01*
X139332653Y-99246206D01*
X139308961Y-99228470D01*
X139266548Y-99196719D01*
X139224677Y-99140785D01*
X139216859Y-99097453D01*
X139216859Y-98448429D01*
X139236544Y-98381390D01*
X139266545Y-98349164D01*
X139354136Y-98283595D01*
X139436616Y-98173415D01*
X139484713Y-98044461D01*
X139490842Y-97987455D01*
X139490842Y-97117147D01*
X139484713Y-97060141D01*
X139466992Y-97012628D01*
X139436617Y-96931189D01*
X139436616Y-96931188D01*
X139436616Y-96931187D01*
X139354136Y-96821007D01*
X139266548Y-96755439D01*
X139224677Y-96699505D01*
X139216859Y-96656172D01*
X139216859Y-96054574D01*
X139236544Y-95987535D01*
X139289348Y-95941780D01*
X139297510Y-95938398D01*
X139319140Y-95930331D01*
X139436315Y-95842615D01*
X139524031Y-95725440D01*
X139575182Y-95588300D01*
X139578315Y-95559158D01*
X139581699Y-95527689D01*
X139581699Y-95527682D01*
X139581700Y-95527673D01*
X139581699Y-94597328D01*
X139575182Y-94536700D01*
X139559066Y-94493493D01*
X139524031Y-94399560D01*
X139524030Y-94399559D01*
X139436315Y-94282385D01*
X139365788Y-94229589D01*
X139323918Y-94173656D01*
X139316100Y-94130323D01*
X139316100Y-93240508D01*
X139316326Y-93233021D01*
X139319957Y-93172994D01*
X139319956Y-93172991D01*
X139318131Y-93163028D01*
X139316100Y-93140678D01*
X139316100Y-83109677D01*
X139335785Y-83042638D01*
X139340825Y-83035377D01*
X139415133Y-82936114D01*
X139463230Y-82807160D01*
X139469359Y-82750154D01*
X139469359Y-81879846D01*
X139463230Y-81822840D01*
X139460349Y-81815116D01*
X139415134Y-81693888D01*
X139415133Y-81693887D01*
X139415133Y-81693886D01*
X139332653Y-81583706D01*
X139297203Y-81557168D01*
X139266548Y-81534219D01*
X139224677Y-81478285D01*
X139216859Y-81434953D01*
X139216859Y-80785929D01*
X139236544Y-80718890D01*
X139266545Y-80686664D01*
X139354136Y-80621095D01*
X139436616Y-80510915D01*
X139484713Y-80381961D01*
X139490842Y-80324955D01*
X139490842Y-79454647D01*
X139484713Y-79397641D01*
X139483276Y-79393787D01*
X139436617Y-79268689D01*
X139436616Y-79268688D01*
X139436616Y-79268687D01*
X139354136Y-79158507D01*
X139266548Y-79092939D01*
X139224677Y-79037005D01*
X139216859Y-78993672D01*
X139216859Y-78500006D01*
X146101419Y-78500006D01*
X146120583Y-78731297D01*
X146120585Y-78731308D01*
X146177561Y-78956300D01*
X146270794Y-79168848D01*
X146397735Y-79363147D01*
X146397738Y-79363151D01*
X146397740Y-79363153D01*
X146554935Y-79533913D01*
X146554938Y-79533915D01*
X146554941Y-79533918D01*
X146738084Y-79676464D01*
X146738090Y-79676468D01*
X146738093Y-79676470D01*
X146942216Y-79786936D01*
X147010375Y-79810335D01*
X147161734Y-79862297D01*
X147161736Y-79862297D01*
X147161738Y-79862298D01*
X147390670Y-79900500D01*
X147390671Y-79900500D01*
X147622767Y-79900500D01*
X147622768Y-79900500D01*
X147851700Y-79862298D01*
X148071222Y-79786936D01*
X148275345Y-79676470D01*
X148458503Y-79533913D01*
X148615698Y-79363153D01*
X148742643Y-79168849D01*
X148835876Y-78956300D01*
X148892853Y-78731305D01*
X148895023Y-78705115D01*
X148912019Y-78500006D01*
X151181419Y-78500006D01*
X151200583Y-78731297D01*
X151200585Y-78731308D01*
X151257561Y-78956300D01*
X151350794Y-79168848D01*
X151477735Y-79363147D01*
X151477738Y-79363151D01*
X151477740Y-79363153D01*
X151634935Y-79533913D01*
X151634938Y-79533915D01*
X151634941Y-79533918D01*
X151818084Y-79676464D01*
X151818090Y-79676468D01*
X151818093Y-79676470D01*
X152022216Y-79786936D01*
X152090375Y-79810335D01*
X152241734Y-79862297D01*
X152241736Y-79862297D01*
X152241738Y-79862298D01*
X152470670Y-79900500D01*
X152470671Y-79900500D01*
X152702767Y-79900500D01*
X152702768Y-79900500D01*
X152931700Y-79862298D01*
X153151222Y-79786936D01*
X153355345Y-79676470D01*
X153538503Y-79533913D01*
X153695698Y-79363153D01*
X153822643Y-79168849D01*
X153915876Y-78956300D01*
X153972853Y-78731305D01*
X153975023Y-78705115D01*
X153992019Y-78500006D01*
X153992019Y-78499993D01*
X153972854Y-78268702D01*
X153972852Y-78268691D01*
X153915876Y-78043699D01*
X153822643Y-77831151D01*
X153695702Y-77636852D01*
X153695699Y-77636849D01*
X153695698Y-77636847D01*
X153538503Y-77466087D01*
X153538498Y-77466083D01*
X153538496Y-77466081D01*
X153355353Y-77323535D01*
X153355347Y-77323531D01*
X153151223Y-77213064D01*
X153151214Y-77213061D01*
X152931703Y-77137702D01*
X152760001Y-77109050D01*
X152702768Y-77099500D01*
X152470670Y-77099500D01*
X152424883Y-77107140D01*
X152241734Y-77137702D01*
X152022223Y-77213061D01*
X152022214Y-77213064D01*
X151818090Y-77323531D01*
X151818084Y-77323535D01*
X151634941Y-77466081D01*
X151634938Y-77466084D01*
X151477735Y-77636852D01*
X151350794Y-77831151D01*
X151257561Y-78043699D01*
X151200585Y-78268691D01*
X151200583Y-78268702D01*
X151181419Y-78499993D01*
X151181419Y-78500006D01*
X148912019Y-78500006D01*
X148912019Y-78499993D01*
X148892854Y-78268702D01*
X148892852Y-78268691D01*
X148835876Y-78043699D01*
X148742643Y-77831151D01*
X148615702Y-77636852D01*
X148615699Y-77636849D01*
X148615698Y-77636847D01*
X148458503Y-77466087D01*
X148458498Y-77466083D01*
X148458496Y-77466081D01*
X148275353Y-77323535D01*
X148275347Y-77323531D01*
X148071223Y-77213064D01*
X148071214Y-77213061D01*
X147851703Y-77137702D01*
X147680001Y-77109050D01*
X147622768Y-77099500D01*
X147390670Y-77099500D01*
X147344883Y-77107140D01*
X147161734Y-77137702D01*
X146942223Y-77213061D01*
X146942214Y-77213064D01*
X146738090Y-77323531D01*
X146738084Y-77323535D01*
X146554941Y-77466081D01*
X146554938Y-77466084D01*
X146397735Y-77636852D01*
X146270794Y-77831151D01*
X146177561Y-78043699D01*
X146120585Y-78268691D01*
X146120583Y-78268702D01*
X146101419Y-78499993D01*
X146101419Y-78500006D01*
X139216859Y-78500006D01*
X139216859Y-78392074D01*
X139236544Y-78325035D01*
X139289348Y-78279280D01*
X139297510Y-78275898D01*
X139319140Y-78267831D01*
X139436315Y-78180115D01*
X139524031Y-78062940D01*
X139575182Y-77925800D01*
X139578293Y-77896861D01*
X139581699Y-77865189D01*
X139581699Y-77865182D01*
X139581700Y-77865173D01*
X139581699Y-76934828D01*
X139575182Y-76874200D01*
X139559066Y-76830993D01*
X139524031Y-76737060D01*
X139524030Y-76737059D01*
X139436315Y-76619885D01*
X139365788Y-76567089D01*
X139323918Y-76511156D01*
X139316100Y-76467823D01*
X139316100Y-74640520D01*
X139316326Y-74633032D01*
X139319958Y-74572994D01*
X139309114Y-74513821D01*
X139307987Y-74506415D01*
X139303393Y-74468581D01*
X139300740Y-74446728D01*
X139297148Y-74437256D01*
X139291121Y-74415634D01*
X139289295Y-74405671D01*
X139289293Y-74405663D01*
X139266299Y-74354576D01*
X139264602Y-74350806D01*
X139261753Y-74343929D01*
X139240418Y-74287670D01*
X139234663Y-74279333D01*
X139223636Y-74259782D01*
X139219479Y-74250546D01*
X139219478Y-74250543D01*
X139191293Y-74214568D01*
X139182385Y-74203197D01*
X139177955Y-74197177D01*
X139143783Y-74147671D01*
X139098753Y-74107778D01*
X139093315Y-74102658D01*
X138212940Y-73222283D01*
X138207805Y-73216828D01*
X138167929Y-73171816D01*
X138167924Y-73171812D01*
X138118438Y-73137655D01*
X138112403Y-73133215D01*
X138065060Y-73096124D01*
X138065055Y-73096120D01*
X138055813Y-73091961D01*
X138036266Y-73080936D01*
X138034657Y-73079826D01*
X138027930Y-73075182D01*
X138008368Y-73067763D01*
X199145787Y-73067763D01*
X199175413Y-73337013D01*
X199175415Y-73337024D01*
X199243926Y-73599082D01*
X199243928Y-73599088D01*
X199349870Y-73848390D01*
X199421998Y-73966575D01*
X199490979Y-74079605D01*
X199490986Y-74079615D01*
X199664253Y-74287819D01*
X199664259Y-74287824D01*
X199738759Y-74354576D01*
X199865998Y-74468582D01*
X200091910Y-74618044D01*
X200337176Y-74733020D01*
X200337183Y-74733022D01*
X200337185Y-74733023D01*
X200596557Y-74811057D01*
X200596564Y-74811058D01*
X200596569Y-74811060D01*
X200864561Y-74850500D01*
X200864566Y-74850500D01*
X201067629Y-74850500D01*
X201067631Y-74850500D01*
X201067636Y-74850499D01*
X201067648Y-74850499D01*
X201105191Y-74847750D01*
X201270156Y-74835677D01*
X201382758Y-74810593D01*
X201534546Y-74776782D01*
X201534548Y-74776781D01*
X201534553Y-74776780D01*
X201787558Y-74680014D01*
X202023777Y-74547441D01*
X202238177Y-74381888D01*
X202426186Y-74186881D01*
X202583799Y-73966579D01*
X202657787Y-73822669D01*
X202707649Y-73725690D01*
X202707651Y-73725684D01*
X202707656Y-73725675D01*
X202795118Y-73469305D01*
X202844319Y-73202933D01*
X202854212Y-72932235D01*
X202824586Y-72662982D01*
X202756072Y-72400912D01*
X202650130Y-72151610D01*
X202509018Y-71920390D01*
X202419747Y-71813119D01*
X202335746Y-71712180D01*
X202335740Y-71712175D01*
X202134002Y-71531418D01*
X201908092Y-71381957D01*
X201908090Y-71381956D01*
X201662824Y-71266980D01*
X201662819Y-71266978D01*
X201662814Y-71266976D01*
X201403442Y-71188942D01*
X201403428Y-71188939D01*
X201287791Y-71171921D01*
X201135439Y-71149500D01*
X200932369Y-71149500D01*
X200932351Y-71149500D01*
X200729844Y-71164323D01*
X200729831Y-71164325D01*
X200465453Y-71223217D01*
X200465446Y-71223220D01*
X200212439Y-71319987D01*
X199976226Y-71452557D01*
X199761822Y-71618112D01*
X199573822Y-71813109D01*
X199573816Y-71813116D01*
X199416202Y-72033419D01*
X199416199Y-72033424D01*
X199292350Y-72274309D01*
X199292343Y-72274327D01*
X199204884Y-72530685D01*
X199204881Y-72530699D01*
X199155681Y-72797068D01*
X199155680Y-72797075D01*
X199145787Y-73067763D01*
X138008368Y-73067763D01*
X137971694Y-73053854D01*
X137964790Y-73050994D01*
X137909932Y-73026305D01*
X137909930Y-73026304D01*
X137899946Y-73024474D01*
X137878343Y-73018451D01*
X137868874Y-73014860D01*
X137868871Y-73014859D01*
X137809171Y-73007610D01*
X137801770Y-73006483D01*
X137742609Y-72995642D01*
X137742603Y-72995642D01*
X137682567Y-72999274D01*
X137675079Y-72999500D01*
X126724921Y-72999500D01*
X126717433Y-72999274D01*
X126657396Y-72995642D01*
X126657388Y-72995642D01*
X126598227Y-73006483D01*
X126590827Y-73007610D01*
X126531128Y-73014860D01*
X126531121Y-73014861D01*
X126521647Y-73018454D01*
X126500049Y-73024475D01*
X126490069Y-73026304D01*
X126435227Y-73050987D01*
X126428309Y-73053852D01*
X126372072Y-73075181D01*
X126372066Y-73075184D01*
X126363722Y-73080943D01*
X126344187Y-73091961D01*
X126334947Y-73096120D01*
X126334945Y-73096121D01*
X126287609Y-73133205D01*
X126281582Y-73137639D01*
X126232070Y-73171817D01*
X126232068Y-73171819D01*
X126192183Y-73216838D01*
X126187051Y-73222290D01*
X125239790Y-74169551D01*
X125234338Y-74174683D01*
X125189319Y-74214568D01*
X125155149Y-74264069D01*
X125150713Y-74270097D01*
X125113624Y-74317438D01*
X125113619Y-74317448D01*
X125109460Y-74326688D01*
X125098442Y-74346223D01*
X125092687Y-74354561D01*
X125092679Y-74354576D01*
X125071353Y-74410805D01*
X125068489Y-74417720D01*
X125043805Y-74472568D01*
X125041977Y-74482542D01*
X125035953Y-74504153D01*
X125032360Y-74513627D01*
X125032360Y-74513628D01*
X125025110Y-74573327D01*
X125023983Y-74580727D01*
X125013142Y-74639889D01*
X125013142Y-74639895D01*
X125016774Y-74699932D01*
X125017000Y-74707420D01*
X125017000Y-76942016D01*
X124997315Y-77009055D01*
X124967311Y-77041283D01*
X124937385Y-77063685D01*
X124849670Y-77180857D01*
X124798517Y-77318003D01*
X124792000Y-77378610D01*
X124792000Y-78390169D01*
X124792001Y-78390175D01*
X124798518Y-78450802D01*
X124849668Y-78587939D01*
X124849669Y-78587940D01*
X124937385Y-78705115D01*
X125054560Y-78792831D01*
X125148494Y-78827867D01*
X125204425Y-78869737D01*
X125228842Y-78935201D01*
X125213990Y-79003474D01*
X125164585Y-79052879D01*
X125132754Y-79064937D01*
X125131484Y-79065226D01*
X124960146Y-79125180D01*
X124960139Y-79125184D01*
X124806428Y-79221766D01*
X124678066Y-79350128D01*
X124581484Y-79503839D01*
X124581483Y-79503841D01*
X124521526Y-79675189D01*
X124506300Y-79810330D01*
X124506300Y-80065600D01*
X126942499Y-80065600D01*
X126942499Y-79810335D01*
X126942498Y-79810329D01*
X126927273Y-79675189D01*
X126927270Y-79675176D01*
X126867319Y-79503846D01*
X126867315Y-79503839D01*
X126770733Y-79350128D01*
X126642371Y-79221766D01*
X126488660Y-79125184D01*
X126488658Y-79125183D01*
X126317307Y-79065225D01*
X126310520Y-79063676D01*
X126310993Y-79061600D01*
X126256057Y-79038514D01*
X126216504Y-78980918D01*
X126214369Y-78911081D01*
X126250329Y-78851176D01*
X126291021Y-78826182D01*
X126380440Y-78792831D01*
X126497615Y-78705115D01*
X126585331Y-78587940D01*
X126636482Y-78450800D01*
X126642796Y-78392074D01*
X126642999Y-78390189D01*
X126642999Y-78390182D01*
X126643000Y-78390173D01*
X126642999Y-77656900D01*
X134918801Y-77656900D01*
X134918801Y-77864670D01*
X134934026Y-77999810D01*
X134934029Y-77999823D01*
X134993980Y-78171153D01*
X134993984Y-78171160D01*
X135090566Y-78324871D01*
X135218928Y-78453233D01*
X135372639Y-78549815D01*
X135372641Y-78549816D01*
X135543989Y-78609773D01*
X135679132Y-78624999D01*
X135934399Y-78624999D01*
X135934400Y-78624998D01*
X135934400Y-77656900D01*
X134918801Y-77656900D01*
X126642999Y-77656900D01*
X126642999Y-77378628D01*
X126636482Y-77318000D01*
X126585331Y-77180860D01*
X126567395Y-77156900D01*
X134918800Y-77156900D01*
X135934400Y-77156900D01*
X135934400Y-76188800D01*
X135679135Y-76188800D01*
X135679129Y-76188801D01*
X135543989Y-76204026D01*
X135543976Y-76204029D01*
X135372646Y-76263980D01*
X135372639Y-76263984D01*
X135218928Y-76360566D01*
X135090566Y-76488928D01*
X134993984Y-76642639D01*
X134993983Y-76642641D01*
X134934026Y-76813989D01*
X134918800Y-76949130D01*
X134918800Y-77156900D01*
X126567395Y-77156900D01*
X126497615Y-77063685D01*
X126467688Y-77041282D01*
X126425818Y-76985349D01*
X126418000Y-76942016D01*
X126418000Y-75024019D01*
X126437685Y-74956980D01*
X126454319Y-74936338D01*
X126953838Y-74436819D01*
X127015161Y-74403334D01*
X127041519Y-74400500D01*
X134207628Y-74400500D01*
X137358481Y-74400500D01*
X137425520Y-74420185D01*
X137446162Y-74436819D01*
X137878781Y-74869438D01*
X137912266Y-74930761D01*
X137915100Y-74957119D01*
X137915100Y-76467823D01*
X137895415Y-76534862D01*
X137865411Y-76567090D01*
X137794885Y-76619885D01*
X137707169Y-76737059D01*
X137672133Y-76830993D01*
X137630262Y-76886926D01*
X137564797Y-76911342D01*
X137496524Y-76896490D01*
X137447119Y-76847084D01*
X137435059Y-76815240D01*
X137434771Y-76813979D01*
X137374819Y-76642646D01*
X137374815Y-76642639D01*
X137278233Y-76488928D01*
X137149871Y-76360566D01*
X136996160Y-76263984D01*
X136996158Y-76263983D01*
X136824810Y-76204026D01*
X136689669Y-76188800D01*
X136434400Y-76188800D01*
X136434400Y-78624999D01*
X136689665Y-78624999D01*
X136689670Y-78624998D01*
X136824810Y-78609773D01*
X136824823Y-78609770D01*
X136996153Y-78549819D01*
X136996160Y-78549815D01*
X137149871Y-78453233D01*
X137278233Y-78324871D01*
X137374815Y-78171160D01*
X137374816Y-78171158D01*
X137434774Y-77999807D01*
X137436324Y-77993020D01*
X137438404Y-77993495D01*
X137461465Y-77938583D01*
X137519050Y-77899014D01*
X137588887Y-77896861D01*
X137648801Y-77932805D01*
X137673817Y-77973523D01*
X137685279Y-78004252D01*
X137707169Y-78062940D01*
X137788181Y-78171160D01*
X137791126Y-78175093D01*
X137815543Y-78240558D01*
X137815859Y-78249404D01*
X137815859Y-79025836D01*
X137796174Y-79092875D01*
X137766171Y-79125102D01*
X137721548Y-79158506D01*
X137639068Y-79268687D01*
X137639066Y-79268689D01*
X137590972Y-79397635D01*
X137590971Y-79397639D01*
X137590971Y-79397641D01*
X137584842Y-79454647D01*
X137584842Y-80324955D01*
X137590971Y-80381961D01*
X137590972Y-80381966D01*
X137639066Y-80510912D01*
X137639067Y-80510913D01*
X137639068Y-80510915D01*
X137721548Y-80621095D01*
X137766169Y-80654498D01*
X137808040Y-80710429D01*
X137815859Y-80753764D01*
X137815859Y-81434953D01*
X137796174Y-81501992D01*
X137766170Y-81534219D01*
X137700067Y-81583704D01*
X137700066Y-81583705D01*
X137700065Y-81583706D01*
X137685181Y-81603589D01*
X137617585Y-81693886D01*
X137617583Y-81693888D01*
X137569489Y-81822834D01*
X137569488Y-81822838D01*
X137569488Y-81822840D01*
X137563359Y-81879846D01*
X137563359Y-82750154D01*
X137567617Y-82789756D01*
X137569489Y-82807165D01*
X137617583Y-82936111D01*
X137617584Y-82936112D01*
X137617585Y-82936114D01*
X137700065Y-83046294D01*
X137810245Y-83128774D01*
X137834432Y-83137795D01*
X137890366Y-83179665D01*
X137914784Y-83245128D01*
X137915100Y-83253977D01*
X137915100Y-91675500D01*
X137895415Y-91742539D01*
X137842611Y-91788294D01*
X137791100Y-91799500D01*
X126824910Y-91799500D01*
X126817423Y-91799274D01*
X126757396Y-91795643D01*
X126757389Y-91795643D01*
X126698243Y-91806481D01*
X126690843Y-91807608D01*
X126631125Y-91814860D01*
X126621642Y-91818456D01*
X126600038Y-91824478D01*
X126598535Y-91824754D01*
X126590065Y-91826306D01*
X126535229Y-91850986D01*
X126528313Y-91853851D01*
X126499701Y-91864702D01*
X126472070Y-91875182D01*
X126472068Y-91875183D01*
X126472066Y-91875184D01*
X126472061Y-91875186D01*
X126463722Y-91880942D01*
X126444190Y-91891959D01*
X126434946Y-91896120D01*
X126387597Y-91933214D01*
X126381569Y-91937649D01*
X126332068Y-91971819D01*
X126292183Y-92016838D01*
X126287051Y-92022290D01*
X125239790Y-93069551D01*
X125234338Y-93074683D01*
X125189319Y-93114568D01*
X125155149Y-93164069D01*
X125150713Y-93170097D01*
X125113624Y-93217438D01*
X125113619Y-93217448D01*
X125109460Y-93226688D01*
X125098442Y-93246223D01*
X125092687Y-93254561D01*
X125092679Y-93254576D01*
X125071353Y-93310805D01*
X125068489Y-93317720D01*
X125043805Y-93372568D01*
X125041977Y-93382542D01*
X125035953Y-93404153D01*
X125032360Y-93413627D01*
X125032360Y-93413628D01*
X125025110Y-93473327D01*
X125023983Y-93480727D01*
X125013142Y-93539889D01*
X125013142Y-93539895D01*
X125016774Y-93599932D01*
X125017000Y-93607420D01*
X125017000Y-94604516D01*
X124997315Y-94671555D01*
X124967311Y-94703783D01*
X124937385Y-94726185D01*
X124849670Y-94843357D01*
X124849669Y-94843360D01*
X124810081Y-94949500D01*
X124798517Y-94980503D01*
X124792000Y-95041110D01*
X124792000Y-96052669D01*
X124792001Y-96052675D01*
X124798518Y-96113302D01*
X124849668Y-96250439D01*
X124865868Y-96272079D01*
X124937385Y-96367615D01*
X125054560Y-96455331D01*
X125148494Y-96490367D01*
X125204425Y-96532237D01*
X125228842Y-96597701D01*
X125213990Y-96665974D01*
X125164585Y-96715379D01*
X125132754Y-96727437D01*
X125131484Y-96727726D01*
X124960146Y-96787680D01*
X124960139Y-96787684D01*
X124806428Y-96884266D01*
X124678066Y-97012628D01*
X124581484Y-97166339D01*
X124581483Y-97166341D01*
X124521526Y-97337689D01*
X124506300Y-97472830D01*
X124506300Y-97728100D01*
X126942499Y-97728100D01*
X126942499Y-97472835D01*
X126942498Y-97472829D01*
X126927273Y-97337689D01*
X126927270Y-97337676D01*
X126867319Y-97166346D01*
X126867315Y-97166339D01*
X126770733Y-97012628D01*
X126642371Y-96884266D01*
X126488660Y-96787684D01*
X126488658Y-96787683D01*
X126317307Y-96727725D01*
X126310520Y-96726176D01*
X126310993Y-96724100D01*
X126256057Y-96701014D01*
X126216504Y-96643418D01*
X126214369Y-96573581D01*
X126250329Y-96513676D01*
X126291021Y-96488682D01*
X126380440Y-96455331D01*
X126497615Y-96367615D01*
X126585331Y-96250440D01*
X126636482Y-96113300D01*
X126642796Y-96054574D01*
X126642999Y-96052689D01*
X126642999Y-96052682D01*
X126643000Y-96052673D01*
X126642999Y-95319400D01*
X134918801Y-95319400D01*
X134918801Y-95527170D01*
X134934026Y-95662310D01*
X134934029Y-95662323D01*
X134993980Y-95833653D01*
X134993984Y-95833660D01*
X135090566Y-95987371D01*
X135218928Y-96115733D01*
X135372639Y-96212315D01*
X135372641Y-96212316D01*
X135543989Y-96272273D01*
X135679132Y-96287499D01*
X135934399Y-96287499D01*
X135934400Y-96287498D01*
X135934400Y-95319400D01*
X134918801Y-95319400D01*
X126642999Y-95319400D01*
X126642999Y-95041128D01*
X126636482Y-94980500D01*
X126630588Y-94964699D01*
X126585331Y-94843360D01*
X126567395Y-94819400D01*
X134918800Y-94819400D01*
X135934400Y-94819400D01*
X135934400Y-93851300D01*
X135679135Y-93851300D01*
X135679129Y-93851301D01*
X135543989Y-93866526D01*
X135543976Y-93866529D01*
X135372646Y-93926480D01*
X135372639Y-93926484D01*
X135218928Y-94023066D01*
X135090566Y-94151428D01*
X134993984Y-94305139D01*
X134993983Y-94305141D01*
X134934026Y-94476489D01*
X134918800Y-94611630D01*
X134918800Y-94819400D01*
X126567395Y-94819400D01*
X126497615Y-94726185D01*
X126467688Y-94703782D01*
X126425818Y-94647849D01*
X126418000Y-94604516D01*
X126418000Y-93924019D01*
X126437685Y-93856980D01*
X126454319Y-93836338D01*
X127053838Y-93236819D01*
X127115161Y-93203334D01*
X127141519Y-93200500D01*
X137558481Y-93200500D01*
X137625520Y-93220185D01*
X137646162Y-93236819D01*
X137878781Y-93469438D01*
X137912266Y-93530761D01*
X137915100Y-93557119D01*
X137915100Y-94130323D01*
X137895415Y-94197362D01*
X137865411Y-94229590D01*
X137794885Y-94282385D01*
X137707169Y-94399559D01*
X137672133Y-94493493D01*
X137630262Y-94549426D01*
X137564797Y-94573842D01*
X137496524Y-94558990D01*
X137447119Y-94509584D01*
X137435059Y-94477740D01*
X137434771Y-94476479D01*
X137374819Y-94305146D01*
X137374815Y-94305139D01*
X137278233Y-94151428D01*
X137149871Y-94023066D01*
X136996160Y-93926484D01*
X136996158Y-93926483D01*
X136824810Y-93866526D01*
X136689669Y-93851300D01*
X136434400Y-93851300D01*
X136434400Y-96287499D01*
X136689665Y-96287499D01*
X136689670Y-96287498D01*
X136824810Y-96272273D01*
X136824823Y-96272270D01*
X136996153Y-96212319D01*
X136996160Y-96212315D01*
X137149871Y-96115733D01*
X137278233Y-95987371D01*
X137374815Y-95833660D01*
X137374816Y-95833658D01*
X137434774Y-95662307D01*
X137436324Y-95655520D01*
X137438404Y-95655995D01*
X137461465Y-95601083D01*
X137519050Y-95561514D01*
X137588887Y-95559361D01*
X137648801Y-95595305D01*
X137673817Y-95636023D01*
X137683627Y-95662323D01*
X137707169Y-95725440D01*
X137788181Y-95833660D01*
X137791126Y-95837593D01*
X137815543Y-95903058D01*
X137815859Y-95911904D01*
X137815859Y-96688336D01*
X137796174Y-96755375D01*
X137766171Y-96787602D01*
X137721548Y-96821006D01*
X137639068Y-96931187D01*
X137639066Y-96931189D01*
X137590972Y-97060135D01*
X137590971Y-97060139D01*
X137590971Y-97060141D01*
X137584842Y-97117147D01*
X137584842Y-97987455D01*
X137590971Y-98044461D01*
X137590972Y-98044466D01*
X137639066Y-98173412D01*
X137639067Y-98173413D01*
X137639068Y-98173415D01*
X137721548Y-98283595D01*
X137766169Y-98316998D01*
X137808040Y-98372929D01*
X137815859Y-98416264D01*
X137815859Y-99097453D01*
X137796174Y-99164492D01*
X137766170Y-99196719D01*
X137700067Y-99246204D01*
X137700066Y-99246205D01*
X137700065Y-99246206D01*
X137657108Y-99303590D01*
X137617585Y-99356386D01*
X137617583Y-99356388D01*
X137569489Y-99485334D01*
X137569488Y-99485338D01*
X137569488Y-99485340D01*
X137563359Y-99542346D01*
X137563359Y-100412654D01*
X137567800Y-100453956D01*
X137569489Y-100469665D01*
X137617583Y-100598611D01*
X137617584Y-100598612D01*
X137617585Y-100598614D01*
X137700065Y-100708794D01*
X137766172Y-100758281D01*
X137808040Y-100814211D01*
X137815859Y-100857545D01*
X137815859Y-112042122D01*
X137796174Y-112109161D01*
X137779540Y-112129803D01*
X137463662Y-112445681D01*
X137402339Y-112479166D01*
X137375981Y-112482000D01*
X121100950Y-112482000D01*
X121033911Y-112462315D01*
X121026204Y-112456104D01*
X121025893Y-112456520D01*
X120952689Y-112401719D01*
X120910818Y-112345785D01*
X120903000Y-112302453D01*
X120903000Y-111227408D01*
X120903226Y-111219921D01*
X120906857Y-111159894D01*
X120896012Y-111100717D01*
X120894888Y-111093326D01*
X120894246Y-111088042D01*
X120889731Y-111050852D01*
X120887640Y-111033627D01*
X120884048Y-111024156D01*
X120878022Y-111002542D01*
X120876195Y-110992568D01*
X120851502Y-110937704D01*
X120848639Y-110930789D01*
X120827319Y-110874571D01*
X120825223Y-110871535D01*
X120821563Y-110866233D01*
X120810536Y-110846682D01*
X120809484Y-110844345D01*
X120806378Y-110837443D01*
X120791977Y-110819062D01*
X120769285Y-110790097D01*
X120764855Y-110784077D01*
X120730683Y-110734571D01*
X120685653Y-110694678D01*
X120680215Y-110689558D01*
X119712940Y-109722283D01*
X119707805Y-109716828D01*
X119667929Y-109671816D01*
X119667924Y-109671812D01*
X119618438Y-109637655D01*
X119612403Y-109633215D01*
X119565060Y-109596124D01*
X119565055Y-109596120D01*
X119555813Y-109591961D01*
X119536266Y-109580936D01*
X119527931Y-109575183D01*
X119527932Y-109575183D01*
X119527930Y-109575182D01*
X119471694Y-109553854D01*
X119464790Y-109550994D01*
X119409932Y-109526305D01*
X119409930Y-109526304D01*
X119399946Y-109524474D01*
X119378343Y-109518451D01*
X119368874Y-109514860D01*
X119368871Y-109514859D01*
X119309171Y-109507610D01*
X119301770Y-109506483D01*
X119242609Y-109495642D01*
X119242603Y-109495642D01*
X119182567Y-109499274D01*
X119175079Y-109499500D01*
X113341519Y-109499500D01*
X113274480Y-109479815D01*
X113253838Y-109463181D01*
X111611819Y-107821162D01*
X111578334Y-107759839D01*
X111575500Y-107733481D01*
X111575500Y-105995319D01*
X111595185Y-105928280D01*
X111620836Y-105899465D01*
X111746410Y-105796410D01*
X111767932Y-105770185D01*
X111877685Y-105636450D01*
X111975232Y-105453954D01*
X112035300Y-105255934D01*
X112055583Y-105050000D01*
X112035300Y-104844066D01*
X111975232Y-104646046D01*
X111877685Y-104463550D01*
X111804718Y-104374639D01*
X111746410Y-104303589D01*
X111586452Y-104172317D01*
X111586453Y-104172317D01*
X111586450Y-104172315D01*
X111403954Y-104074768D01*
X111403953Y-104074767D01*
X111403948Y-104074765D01*
X111398330Y-104072438D01*
X111399172Y-104070404D01*
X111349009Y-104037515D01*
X111320566Y-103973697D01*
X111331141Y-103904632D01*
X111377377Y-103852248D01*
X111411368Y-103837397D01*
X111463481Y-103823434D01*
X111463492Y-103823429D01*
X111677577Y-103723600D01*
X111677579Y-103723599D01*
X111871073Y-103588113D01*
X111871079Y-103588108D01*
X111896681Y-103562506D01*
X119807982Y-103562506D01*
X119827146Y-103793797D01*
X119827148Y-103793808D01*
X119884124Y-104018800D01*
X119977357Y-104231348D01*
X120104298Y-104425647D01*
X120104301Y-104425651D01*
X120104303Y-104425653D01*
X120261498Y-104596413D01*
X120261501Y-104596415D01*
X120261504Y-104596418D01*
X120444647Y-104738964D01*
X120444653Y-104738968D01*
X120444656Y-104738970D01*
X120648779Y-104849436D01*
X120762769Y-104888568D01*
X120868297Y-104924797D01*
X120868299Y-104924797D01*
X120868301Y-104924798D01*
X121097233Y-104963000D01*
X121097234Y-104963000D01*
X121329330Y-104963000D01*
X121329331Y-104963000D01*
X121558263Y-104924798D01*
X121777785Y-104849436D01*
X121981908Y-104738970D01*
X122165066Y-104596413D01*
X122322261Y-104425653D01*
X122449206Y-104231349D01*
X122542439Y-104018800D01*
X122599416Y-103793805D01*
X122599765Y-103789594D01*
X122618582Y-103562506D01*
X124887982Y-103562506D01*
X124907146Y-103793797D01*
X124907148Y-103793808D01*
X124964124Y-104018800D01*
X125057357Y-104231348D01*
X125184298Y-104425647D01*
X125184301Y-104425651D01*
X125184303Y-104425653D01*
X125341498Y-104596413D01*
X125341501Y-104596415D01*
X125341504Y-104596418D01*
X125524647Y-104738964D01*
X125524653Y-104738968D01*
X125524656Y-104738970D01*
X125728779Y-104849436D01*
X125842769Y-104888568D01*
X125948297Y-104924797D01*
X125948299Y-104924797D01*
X125948301Y-104924798D01*
X126177233Y-104963000D01*
X126177234Y-104963000D01*
X126409330Y-104963000D01*
X126409331Y-104963000D01*
X126638263Y-104924798D01*
X126857785Y-104849436D01*
X127061908Y-104738970D01*
X127245066Y-104596413D01*
X127402261Y-104425653D01*
X127529206Y-104231349D01*
X127622439Y-104018800D01*
X127679416Y-103793805D01*
X127679765Y-103789594D01*
X127698582Y-103562506D01*
X127698582Y-103562493D01*
X127679417Y-103331202D01*
X127679415Y-103331191D01*
X127622439Y-103106199D01*
X127529206Y-102893651D01*
X127402265Y-102699352D01*
X127402262Y-102699349D01*
X127402261Y-102699347D01*
X127245066Y-102528587D01*
X127245061Y-102528583D01*
X127245059Y-102528581D01*
X127061916Y-102386035D01*
X127061910Y-102386031D01*
X126857786Y-102275564D01*
X126857777Y-102275561D01*
X126638266Y-102200202D01*
X126466564Y-102171550D01*
X126409331Y-102162000D01*
X126177233Y-102162000D01*
X126131446Y-102169640D01*
X125948297Y-102200202D01*
X125728786Y-102275561D01*
X125728777Y-102275564D01*
X125524653Y-102386031D01*
X125524647Y-102386035D01*
X125341504Y-102528581D01*
X125341501Y-102528584D01*
X125341498Y-102528586D01*
X125341498Y-102528587D01*
X125282549Y-102592622D01*
X125184298Y-102699352D01*
X125057357Y-102893651D01*
X124964124Y-103106199D01*
X124907148Y-103331191D01*
X124907146Y-103331202D01*
X124887982Y-103562493D01*
X124887982Y-103562506D01*
X122618582Y-103562506D01*
X122618582Y-103562493D01*
X122599417Y-103331202D01*
X122599415Y-103331191D01*
X122542439Y-103106199D01*
X122449206Y-102893651D01*
X122322265Y-102699352D01*
X122322262Y-102699349D01*
X122322261Y-102699347D01*
X122165066Y-102528587D01*
X122165061Y-102528583D01*
X122165059Y-102528581D01*
X121981916Y-102386035D01*
X121981910Y-102386031D01*
X121777786Y-102275564D01*
X121777777Y-102275561D01*
X121558266Y-102200202D01*
X121386564Y-102171550D01*
X121329331Y-102162000D01*
X121097233Y-102162000D01*
X121051446Y-102169640D01*
X120868297Y-102200202D01*
X120648786Y-102275561D01*
X120648777Y-102275564D01*
X120444653Y-102386031D01*
X120444647Y-102386035D01*
X120261504Y-102528581D01*
X120261501Y-102528584D01*
X120261498Y-102528586D01*
X120261498Y-102528587D01*
X120202549Y-102592622D01*
X120104298Y-102699352D01*
X119977357Y-102893651D01*
X119884124Y-103106199D01*
X119827148Y-103331191D01*
X119827146Y-103331202D01*
X119807982Y-103562493D01*
X119807982Y-103562506D01*
X111896681Y-103562506D01*
X112038105Y-103421082D01*
X112173600Y-103227578D01*
X112273429Y-103013492D01*
X112273432Y-103013486D01*
X112330636Y-102800000D01*
X111278969Y-102800000D01*
X111311519Y-102749351D01*
X111350000Y-102618295D01*
X111350000Y-102481705D01*
X111311519Y-102350649D01*
X111278969Y-102300000D01*
X112330636Y-102300000D01*
X112330635Y-102299999D01*
X112273432Y-102086513D01*
X112273429Y-102086507D01*
X112173600Y-101872422D01*
X112173599Y-101872420D01*
X112038113Y-101678926D01*
X112038108Y-101678920D01*
X111871079Y-101511891D01*
X111871073Y-101511886D01*
X111677579Y-101376400D01*
X111677577Y-101376399D01*
X111463492Y-101276570D01*
X111463486Y-101276567D01*
X111411366Y-101262602D01*
X111351706Y-101226237D01*
X111321177Y-101163390D01*
X111329472Y-101094014D01*
X111373957Y-101040136D01*
X111398662Y-101028364D01*
X111398330Y-101027562D01*
X111403948Y-101025234D01*
X111403948Y-101025233D01*
X111403954Y-101025232D01*
X111586450Y-100927685D01*
X111746410Y-100796410D01*
X111877685Y-100636450D01*
X111975232Y-100453954D01*
X111987760Y-100412654D01*
X135258359Y-100412654D01*
X135262800Y-100453956D01*
X135264489Y-100469665D01*
X135312583Y-100598611D01*
X135312584Y-100598612D01*
X135312585Y-100598614D01*
X135395065Y-100708794D01*
X135505245Y-100791274D01*
X135505246Y-100791274D01*
X135505247Y-100791275D01*
X135634194Y-100839369D01*
X135634193Y-100839369D01*
X135634199Y-100839371D01*
X135691205Y-100845500D01*
X135691215Y-100845500D01*
X136731503Y-100845500D01*
X136731513Y-100845500D01*
X136788519Y-100839371D01*
X136917473Y-100791274D01*
X137027653Y-100708794D01*
X137110133Y-100598614D01*
X137158230Y-100469660D01*
X137164359Y-100412654D01*
X137164359Y-99542346D01*
X137158230Y-99485340D01*
X137148742Y-99459902D01*
X137110134Y-99356388D01*
X137110133Y-99356387D01*
X137110133Y-99356386D01*
X137027653Y-99246206D01*
X136917473Y-99163726D01*
X136917471Y-99163725D01*
X136917470Y-99163724D01*
X136788523Y-99115630D01*
X136788524Y-99115630D01*
X136788520Y-99115629D01*
X136788519Y-99115629D01*
X136731513Y-99109500D01*
X135691205Y-99109500D01*
X135634199Y-99115629D01*
X135634197Y-99115629D01*
X135634193Y-99115630D01*
X135505247Y-99163724D01*
X135505245Y-99163726D01*
X135395065Y-99246206D01*
X135312585Y-99356386D01*
X135312583Y-99356388D01*
X135264489Y-99485334D01*
X135264488Y-99485338D01*
X135264488Y-99485340D01*
X135258359Y-99542346D01*
X135258359Y-100412654D01*
X111987760Y-100412654D01*
X112035300Y-100255934D01*
X112055583Y-100050000D01*
X112035300Y-99844066D01*
X111975232Y-99646046D01*
X111877685Y-99463550D01*
X111801799Y-99371082D01*
X111746410Y-99303589D01*
X111628677Y-99206969D01*
X111586450Y-99172315D01*
X111403954Y-99074768D01*
X111205934Y-99014700D01*
X111205932Y-99014699D01*
X111205934Y-99014699D01*
X111086805Y-99002966D01*
X111051608Y-98999500D01*
X110698392Y-98999500D01*
X110660298Y-99003251D01*
X110544067Y-99014699D01*
X110346043Y-99074769D01*
X110269601Y-99115629D01*
X110163550Y-99172315D01*
X110163548Y-99172316D01*
X110163547Y-99172317D01*
X110003589Y-99303589D01*
X109872317Y-99463547D01*
X109774769Y-99646043D01*
X109714699Y-99844067D01*
X109694417Y-100050000D01*
X109714699Y-100255932D01*
X109741939Y-100345730D01*
X109774768Y-100453954D01*
X109872315Y-100636450D01*
X109872317Y-100636452D01*
X110003589Y-100796410D01*
X110100209Y-100875702D01*
X110163550Y-100927685D01*
X110346046Y-101025232D01*
X110346048Y-101025232D01*
X110346051Y-101025234D01*
X110351670Y-101027562D01*
X110350825Y-101029601D01*
X110400968Y-101062458D01*
X110429428Y-101126268D01*
X110418872Y-101195336D01*
X110372651Y-101247732D01*
X110338633Y-101262602D01*
X110286514Y-101276567D01*
X110286507Y-101276570D01*
X110072422Y-101376399D01*
X110072420Y-101376400D01*
X109878926Y-101511886D01*
X109878920Y-101511891D01*
X109711894Y-101678917D01*
X109576399Y-101872421D01*
X109476570Y-102086507D01*
X109476567Y-102086513D01*
X109419364Y-102299999D01*
X109419364Y-102300000D01*
X110471031Y-102300000D01*
X110438481Y-102350649D01*
X110400000Y-102481705D01*
X110400000Y-102618295D01*
X110438481Y-102749351D01*
X110471031Y-102800000D01*
X109419364Y-102800000D01*
X109476567Y-103013486D01*
X109476570Y-103013492D01*
X109576399Y-103227577D01*
X109576400Y-103227579D01*
X109711886Y-103421073D01*
X109711891Y-103421079D01*
X109878920Y-103588108D01*
X109878926Y-103588113D01*
X110072420Y-103723599D01*
X110072422Y-103723600D01*
X110286507Y-103823429D01*
X110286518Y-103823434D01*
X110338631Y-103837397D01*
X110398292Y-103873761D01*
X110428822Y-103936608D01*
X110420528Y-104005983D01*
X110376043Y-104059862D01*
X110351339Y-104071641D01*
X110351670Y-104072438D01*
X110346051Y-104074765D01*
X110293009Y-104103117D01*
X110163550Y-104172315D01*
X110163548Y-104172316D01*
X110163547Y-104172317D01*
X110003591Y-104303588D01*
X110003115Y-104304169D01*
X110002787Y-104304391D01*
X109999287Y-104307893D01*
X109998622Y-104307228D01*
X109945368Y-104343501D01*
X109907265Y-104349500D01*
X109091519Y-104349500D01*
X109024480Y-104329815D01*
X109003838Y-104313181D01*
X108136819Y-103446162D01*
X108103334Y-103384839D01*
X108100500Y-103358481D01*
X108100500Y-98204269D01*
X109699500Y-98204269D01*
X109702353Y-98234699D01*
X109702353Y-98234701D01*
X109742406Y-98349162D01*
X109747207Y-98362882D01*
X109827850Y-98472150D01*
X109937118Y-98552793D01*
X109979845Y-98567744D01*
X110065299Y-98597646D01*
X110095730Y-98600500D01*
X110095734Y-98600500D01*
X111654270Y-98600500D01*
X111684699Y-98597646D01*
X111684701Y-98597646D01*
X111748790Y-98575219D01*
X111812882Y-98552793D01*
X111922150Y-98472150D01*
X112002793Y-98362882D01*
X112030537Y-98283594D01*
X112047646Y-98234701D01*
X112047646Y-98234699D01*
X112048265Y-98228100D01*
X124506301Y-98228100D01*
X124506301Y-98483370D01*
X124521526Y-98618510D01*
X124521529Y-98618523D01*
X124581480Y-98789853D01*
X124581484Y-98789860D01*
X124678066Y-98943571D01*
X124806428Y-99071933D01*
X124960139Y-99168515D01*
X124960141Y-99168516D01*
X125131489Y-99228473D01*
X125266632Y-99243699D01*
X125474399Y-99243699D01*
X125474400Y-99243698D01*
X125474400Y-98228100D01*
X125974400Y-98228100D01*
X125974400Y-99243699D01*
X126182165Y-99243699D01*
X126182170Y-99243698D01*
X126317310Y-99228473D01*
X126317323Y-99228470D01*
X126488653Y-99168519D01*
X126488660Y-99168515D01*
X126642371Y-99071933D01*
X126770733Y-98943571D01*
X126867315Y-98789860D01*
X126867316Y-98789858D01*
X126927273Y-98618510D01*
X126942499Y-98483369D01*
X126942500Y-98483365D01*
X126942500Y-98228100D01*
X125974400Y-98228100D01*
X125474400Y-98228100D01*
X124506301Y-98228100D01*
X112048265Y-98228100D01*
X112050500Y-98204269D01*
X112050500Y-97987455D01*
X135279842Y-97987455D01*
X135285971Y-98044461D01*
X135285972Y-98044466D01*
X135334066Y-98173412D01*
X135334067Y-98173413D01*
X135334068Y-98173415D01*
X135416548Y-98283595D01*
X135526728Y-98366075D01*
X135526729Y-98366075D01*
X135526730Y-98366076D01*
X135655677Y-98414170D01*
X135655676Y-98414170D01*
X135655682Y-98414172D01*
X135712688Y-98420301D01*
X135712698Y-98420301D01*
X136752986Y-98420301D01*
X136752996Y-98420301D01*
X136810002Y-98414172D01*
X136938956Y-98366075D01*
X137049136Y-98283595D01*
X137131616Y-98173415D01*
X137179713Y-98044461D01*
X137185842Y-97987455D01*
X137185842Y-97117147D01*
X137179713Y-97060141D01*
X137161992Y-97012628D01*
X137131617Y-96931189D01*
X137131616Y-96931188D01*
X137131616Y-96931187D01*
X137049136Y-96821007D01*
X136938956Y-96738527D01*
X136938954Y-96738526D01*
X136938953Y-96738525D01*
X136810006Y-96690431D01*
X136810007Y-96690431D01*
X136810003Y-96690430D01*
X136810002Y-96690430D01*
X136752996Y-96684301D01*
X135712688Y-96684301D01*
X135655682Y-96690430D01*
X135655680Y-96690430D01*
X135655676Y-96690431D01*
X135526730Y-96738525D01*
X135526728Y-96738527D01*
X135416548Y-96821007D01*
X135334068Y-96931187D01*
X135334066Y-96931189D01*
X135285972Y-97060135D01*
X135285971Y-97060139D01*
X135285971Y-97060141D01*
X135279842Y-97117147D01*
X135279842Y-97987455D01*
X112050500Y-97987455D01*
X112050500Y-96895730D01*
X112047646Y-96865300D01*
X112047646Y-96865298D01*
X112009181Y-96755375D01*
X112002793Y-96737118D01*
X111922150Y-96627850D01*
X111812882Y-96547207D01*
X111812880Y-96547206D01*
X111684700Y-96502353D01*
X111654270Y-96499500D01*
X111654266Y-96499500D01*
X110095734Y-96499500D01*
X110095730Y-96499500D01*
X110065300Y-96502353D01*
X110065298Y-96502353D01*
X109937119Y-96547206D01*
X109937117Y-96547207D01*
X109827850Y-96627850D01*
X109747207Y-96737117D01*
X109747206Y-96737119D01*
X109702353Y-96865298D01*
X109702353Y-96865300D01*
X109699500Y-96895730D01*
X109699500Y-98204269D01*
X108100500Y-98204269D01*
X108100500Y-90641518D01*
X108120185Y-90574479D01*
X108136814Y-90553842D01*
X110308361Y-88382294D01*
X110369682Y-88348811D01*
X110432034Y-88351315D01*
X110544066Y-88385300D01*
X110544065Y-88385300D01*
X110582647Y-88389100D01*
X110698392Y-88400500D01*
X110698395Y-88400500D01*
X111051605Y-88400500D01*
X111051608Y-88400500D01*
X111205934Y-88385300D01*
X111403954Y-88325232D01*
X111586450Y-88227685D01*
X111746410Y-88096410D01*
X111877685Y-87936450D01*
X111975232Y-87753954D01*
X112035300Y-87555934D01*
X112055583Y-87350000D01*
X112035300Y-87144066D01*
X111975232Y-86946046D01*
X111877685Y-86763550D01*
X111822024Y-86695726D01*
X111746410Y-86603589D01*
X111586452Y-86472317D01*
X111586453Y-86472317D01*
X111586450Y-86472315D01*
X111403954Y-86374768D01*
X111403953Y-86374767D01*
X111403948Y-86374765D01*
X111398330Y-86372438D01*
X111399172Y-86370404D01*
X111349009Y-86337515D01*
X111320566Y-86273697D01*
X111331141Y-86204632D01*
X111377377Y-86152248D01*
X111411368Y-86137397D01*
X111463481Y-86123434D01*
X111463492Y-86123429D01*
X111677577Y-86023600D01*
X111677579Y-86023599D01*
X111854088Y-85900006D01*
X119807982Y-85900006D01*
X119827146Y-86131297D01*
X119827148Y-86131308D01*
X119884124Y-86356300D01*
X119977357Y-86568848D01*
X120104298Y-86763147D01*
X120104301Y-86763151D01*
X120104303Y-86763153D01*
X120261498Y-86933913D01*
X120261501Y-86933915D01*
X120261504Y-86933918D01*
X120444647Y-87076464D01*
X120444653Y-87076468D01*
X120444656Y-87076470D01*
X120648779Y-87186936D01*
X120709219Y-87207685D01*
X120868297Y-87262297D01*
X120868299Y-87262297D01*
X120868301Y-87262298D01*
X121097233Y-87300500D01*
X121097234Y-87300500D01*
X121329330Y-87300500D01*
X121329331Y-87300500D01*
X121558263Y-87262298D01*
X121777785Y-87186936D01*
X121981908Y-87076470D01*
X122000018Y-87062375D01*
X122082074Y-86998508D01*
X122165066Y-86933913D01*
X122322261Y-86763153D01*
X122449206Y-86568849D01*
X122542439Y-86356300D01*
X122599416Y-86131305D01*
X122599417Y-86131297D01*
X122618582Y-85900006D01*
X124887982Y-85900006D01*
X124907146Y-86131297D01*
X124907148Y-86131308D01*
X124964124Y-86356300D01*
X125057357Y-86568848D01*
X125184298Y-86763147D01*
X125184301Y-86763151D01*
X125184303Y-86763153D01*
X125341498Y-86933913D01*
X125341501Y-86933915D01*
X125341504Y-86933918D01*
X125524647Y-87076464D01*
X125524653Y-87076468D01*
X125524656Y-87076470D01*
X125728779Y-87186936D01*
X125789219Y-87207685D01*
X125948297Y-87262297D01*
X125948299Y-87262297D01*
X125948301Y-87262298D01*
X126177233Y-87300500D01*
X126177234Y-87300500D01*
X126409330Y-87300500D01*
X126409331Y-87300500D01*
X126638263Y-87262298D01*
X126857785Y-87186936D01*
X127061908Y-87076470D01*
X127080018Y-87062375D01*
X127162074Y-86998508D01*
X127245066Y-86933913D01*
X127402261Y-86763153D01*
X127529206Y-86568849D01*
X127622439Y-86356300D01*
X127679416Y-86131305D01*
X127679417Y-86131297D01*
X127698582Y-85900006D01*
X127698582Y-85899993D01*
X127679417Y-85668702D01*
X127679415Y-85668691D01*
X127622439Y-85443699D01*
X127529206Y-85231151D01*
X127402265Y-85036852D01*
X127402262Y-85036849D01*
X127402261Y-85036847D01*
X127245066Y-84866087D01*
X127245061Y-84866083D01*
X127245059Y-84866081D01*
X127061916Y-84723535D01*
X127061910Y-84723531D01*
X126857786Y-84613064D01*
X126857777Y-84613061D01*
X126638266Y-84537702D01*
X126466564Y-84509050D01*
X126409331Y-84499500D01*
X126177233Y-84499500D01*
X126131446Y-84507140D01*
X125948297Y-84537702D01*
X125728786Y-84613061D01*
X125728777Y-84613064D01*
X125524653Y-84723531D01*
X125524647Y-84723535D01*
X125341504Y-84866081D01*
X125341501Y-84866084D01*
X125341498Y-84866086D01*
X125341498Y-84866087D01*
X125282549Y-84930122D01*
X125184298Y-85036852D01*
X125057357Y-85231151D01*
X124964124Y-85443699D01*
X124907148Y-85668691D01*
X124907146Y-85668702D01*
X124887982Y-85899993D01*
X124887982Y-85900006D01*
X122618582Y-85900006D01*
X122618582Y-85899993D01*
X122599417Y-85668702D01*
X122599415Y-85668691D01*
X122542439Y-85443699D01*
X122449206Y-85231151D01*
X122322265Y-85036852D01*
X122322262Y-85036849D01*
X122322261Y-85036847D01*
X122165066Y-84866087D01*
X122165061Y-84866083D01*
X122165059Y-84866081D01*
X121981916Y-84723535D01*
X121981910Y-84723531D01*
X121777786Y-84613064D01*
X121777777Y-84613061D01*
X121558266Y-84537702D01*
X121386564Y-84509050D01*
X121329331Y-84499500D01*
X121097233Y-84499500D01*
X121051446Y-84507140D01*
X120868297Y-84537702D01*
X120648786Y-84613061D01*
X120648777Y-84613064D01*
X120444653Y-84723531D01*
X120444647Y-84723535D01*
X120261504Y-84866081D01*
X120261501Y-84866084D01*
X120261498Y-84866086D01*
X120261498Y-84866087D01*
X120202549Y-84930122D01*
X120104298Y-85036852D01*
X119977357Y-85231151D01*
X119884124Y-85443699D01*
X119827148Y-85668691D01*
X119827146Y-85668702D01*
X119807982Y-85899993D01*
X119807982Y-85900006D01*
X111854088Y-85900006D01*
X111871073Y-85888113D01*
X111871079Y-85888108D01*
X112038105Y-85721082D01*
X112173600Y-85527578D01*
X112273429Y-85313492D01*
X112273432Y-85313486D01*
X112330636Y-85100000D01*
X111278969Y-85100000D01*
X111311519Y-85049351D01*
X111350000Y-84918295D01*
X111350000Y-84781705D01*
X111311519Y-84650649D01*
X111278969Y-84600000D01*
X112330636Y-84600000D01*
X112330635Y-84599999D01*
X112273432Y-84386513D01*
X112273429Y-84386507D01*
X112173600Y-84172422D01*
X112173599Y-84172420D01*
X112038113Y-83978926D01*
X112038108Y-83978920D01*
X111871079Y-83811891D01*
X111871073Y-83811886D01*
X111677579Y-83676400D01*
X111677577Y-83676399D01*
X111463492Y-83576570D01*
X111463486Y-83576567D01*
X111411366Y-83562602D01*
X111351706Y-83526237D01*
X111321177Y-83463390D01*
X111329472Y-83394014D01*
X111373957Y-83340136D01*
X111398662Y-83328364D01*
X111398330Y-83327562D01*
X111403948Y-83325234D01*
X111403948Y-83325233D01*
X111403954Y-83325232D01*
X111586450Y-83227685D01*
X111746410Y-83096410D01*
X111877685Y-82936450D01*
X111975232Y-82753954D01*
X111976385Y-82750154D01*
X135258359Y-82750154D01*
X135262617Y-82789756D01*
X135264489Y-82807165D01*
X135312583Y-82936111D01*
X135312584Y-82936112D01*
X135312585Y-82936114D01*
X135395065Y-83046294D01*
X135505245Y-83128774D01*
X135505246Y-83128774D01*
X135505247Y-83128775D01*
X135589424Y-83160171D01*
X135610098Y-83167882D01*
X135634194Y-83176869D01*
X135634193Y-83176869D01*
X135634199Y-83176871D01*
X135691205Y-83183000D01*
X135691215Y-83183000D01*
X136731503Y-83183000D01*
X136731513Y-83183000D01*
X136788519Y-83176871D01*
X136917473Y-83128774D01*
X137027653Y-83046294D01*
X137110133Y-82936114D01*
X137158230Y-82807160D01*
X137164359Y-82750154D01*
X137164359Y-81879846D01*
X137158230Y-81822840D01*
X137155349Y-81815116D01*
X137110134Y-81693888D01*
X137110133Y-81693887D01*
X137110133Y-81693886D01*
X137027653Y-81583706D01*
X136917473Y-81501226D01*
X136917471Y-81501225D01*
X136917470Y-81501224D01*
X136788523Y-81453130D01*
X136788524Y-81453130D01*
X136788520Y-81453129D01*
X136788519Y-81453129D01*
X136731513Y-81447000D01*
X135691205Y-81447000D01*
X135634199Y-81453129D01*
X135634197Y-81453129D01*
X135634193Y-81453130D01*
X135505247Y-81501224D01*
X135505245Y-81501226D01*
X135395065Y-81583706D01*
X135312585Y-81693886D01*
X135312583Y-81693888D01*
X135264489Y-81822834D01*
X135264488Y-81822838D01*
X135264488Y-81822840D01*
X135258359Y-81879846D01*
X135258359Y-82750154D01*
X111976385Y-82750154D01*
X112035300Y-82555934D01*
X112055583Y-82350000D01*
X112035300Y-82144066D01*
X111975232Y-81946046D01*
X111877685Y-81763550D01*
X111820514Y-81693886D01*
X111746410Y-81603589D01*
X111619127Y-81499132D01*
X111586450Y-81472315D01*
X111403954Y-81374768D01*
X111205934Y-81314700D01*
X111205932Y-81314699D01*
X111205934Y-81314699D01*
X111086805Y-81302966D01*
X111051608Y-81299500D01*
X110698392Y-81299500D01*
X110660298Y-81303251D01*
X110544067Y-81314699D01*
X110346043Y-81374769D01*
X110235898Y-81433643D01*
X110163550Y-81472315D01*
X110163548Y-81472316D01*
X110163547Y-81472317D01*
X110003589Y-81603589D01*
X109872317Y-81763547D01*
X109774769Y-81946043D01*
X109714699Y-82144067D01*
X109694417Y-82350000D01*
X109714699Y-82555932D01*
X109740778Y-82641902D01*
X109774768Y-82753954D01*
X109872315Y-82936450D01*
X109894975Y-82964061D01*
X110003589Y-83096410D01*
X110090679Y-83167882D01*
X110163550Y-83227685D01*
X110346046Y-83325232D01*
X110346048Y-83325232D01*
X110346051Y-83325234D01*
X110351670Y-83327562D01*
X110350825Y-83329601D01*
X110400968Y-83362458D01*
X110429428Y-83426268D01*
X110418872Y-83495336D01*
X110372651Y-83547732D01*
X110338633Y-83562602D01*
X110286514Y-83576567D01*
X110286507Y-83576570D01*
X110072422Y-83676399D01*
X110072420Y-83676400D01*
X109878926Y-83811886D01*
X109878920Y-83811891D01*
X109711894Y-83978917D01*
X109576399Y-84172421D01*
X109476570Y-84386507D01*
X109476567Y-84386513D01*
X109419364Y-84599999D01*
X109419364Y-84600000D01*
X110471031Y-84600000D01*
X110438481Y-84650649D01*
X110400000Y-84781705D01*
X110400000Y-84918295D01*
X110438481Y-85049351D01*
X110471031Y-85100000D01*
X109419364Y-85100000D01*
X109476567Y-85313486D01*
X109476570Y-85313492D01*
X109576399Y-85527577D01*
X109576400Y-85527579D01*
X109711886Y-85721073D01*
X109711891Y-85721079D01*
X109878920Y-85888108D01*
X109878926Y-85888113D01*
X110072420Y-86023599D01*
X110072422Y-86023600D01*
X110286507Y-86123429D01*
X110286518Y-86123434D01*
X110338631Y-86137397D01*
X110398292Y-86173761D01*
X110428822Y-86236608D01*
X110420528Y-86305983D01*
X110376043Y-86359862D01*
X110351339Y-86371641D01*
X110351670Y-86372438D01*
X110346051Y-86374765D01*
X110279047Y-86410580D01*
X110163550Y-86472315D01*
X110163548Y-86472316D01*
X110163547Y-86472317D01*
X110003589Y-86603589D01*
X109872315Y-86763548D01*
X109796608Y-86905183D01*
X109774932Y-86934409D01*
X106922290Y-89787051D01*
X106916838Y-89792183D01*
X106871819Y-89832068D01*
X106837649Y-89881569D01*
X106833213Y-89887597D01*
X106796124Y-89934938D01*
X106796119Y-89934948D01*
X106791960Y-89944188D01*
X106780942Y-89963723D01*
X106775187Y-89972061D01*
X106775179Y-89972076D01*
X106753853Y-90028305D01*
X106750989Y-90035220D01*
X106726305Y-90090068D01*
X106724477Y-90100042D01*
X106718453Y-90121653D01*
X106714860Y-90131127D01*
X106714860Y-90131128D01*
X106707610Y-90190827D01*
X106706483Y-90198227D01*
X106695642Y-90257389D01*
X106695642Y-90257395D01*
X106699274Y-90317432D01*
X106699500Y-90324920D01*
X106699500Y-103675078D01*
X106699274Y-103682566D01*
X106695642Y-103742603D01*
X106695642Y-103742605D01*
X104000500Y-103742605D01*
X104000500Y-80504269D01*
X109699500Y-80504269D01*
X109702353Y-80534699D01*
X109702353Y-80534701D01*
X109747206Y-80662880D01*
X109747207Y-80662882D01*
X109827850Y-80772150D01*
X109937118Y-80852793D01*
X109979845Y-80867744D01*
X110065299Y-80897646D01*
X110095730Y-80900500D01*
X110095734Y-80900500D01*
X111654270Y-80900500D01*
X111684699Y-80897646D01*
X111684701Y-80897646D01*
X111748790Y-80875219D01*
X111812882Y-80852793D01*
X111922150Y-80772150D01*
X112002793Y-80662882D01*
X112025219Y-80598790D01*
X112036833Y-80565600D01*
X124506301Y-80565600D01*
X124506301Y-80820870D01*
X124521526Y-80956010D01*
X124521529Y-80956023D01*
X124581480Y-81127353D01*
X124581484Y-81127360D01*
X124678066Y-81281071D01*
X124806428Y-81409433D01*
X124960139Y-81506015D01*
X124960141Y-81506016D01*
X125131489Y-81565973D01*
X125266632Y-81581199D01*
X125474399Y-81581199D01*
X125474400Y-81581198D01*
X125474400Y-80565600D01*
X125974400Y-80565600D01*
X125974400Y-81581199D01*
X126182165Y-81581199D01*
X126182170Y-81581198D01*
X126317310Y-81565973D01*
X126317323Y-81565970D01*
X126488653Y-81506019D01*
X126488660Y-81506015D01*
X126642371Y-81409433D01*
X126770733Y-81281071D01*
X126867315Y-81127360D01*
X126867316Y-81127358D01*
X126927273Y-80956010D01*
X126942499Y-80820869D01*
X126942500Y-80820865D01*
X126942500Y-80565600D01*
X125974400Y-80565600D01*
X125474400Y-80565600D01*
X124506301Y-80565600D01*
X112036833Y-80565600D01*
X112047646Y-80534701D01*
X112047646Y-80534699D01*
X112050500Y-80504269D01*
X112050500Y-80324955D01*
X135279842Y-80324955D01*
X135285971Y-80381961D01*
X135285972Y-80381966D01*
X135334066Y-80510912D01*
X135334067Y-80510913D01*
X135334068Y-80510915D01*
X135416548Y-80621095D01*
X135526728Y-80703575D01*
X135526729Y-80703575D01*
X135526730Y-80703576D01*
X135598947Y-80730511D01*
X135646389Y-80748206D01*
X135655677Y-80751670D01*
X135655676Y-80751670D01*
X135655682Y-80751672D01*
X135712688Y-80757801D01*
X135712698Y-80757801D01*
X136752986Y-80757801D01*
X136752996Y-80757801D01*
X136810002Y-80751672D01*
X136938956Y-80703575D01*
X137049136Y-80621095D01*
X137131616Y-80510915D01*
X137179713Y-80381961D01*
X137185842Y-80324955D01*
X137185842Y-79454647D01*
X137179713Y-79397641D01*
X137178276Y-79393787D01*
X137131617Y-79268689D01*
X137131616Y-79268688D01*
X137131616Y-79268687D01*
X137049136Y-79158507D01*
X136938956Y-79076027D01*
X136938954Y-79076026D01*
X136938953Y-79076025D01*
X136810006Y-79027931D01*
X136810007Y-79027931D01*
X136810003Y-79027930D01*
X136810002Y-79027930D01*
X136752996Y-79021801D01*
X135712688Y-79021801D01*
X135655682Y-79027930D01*
X135655680Y-79027930D01*
X135655676Y-79027931D01*
X135526730Y-79076025D01*
X135526728Y-79076027D01*
X135416548Y-79158507D01*
X135334068Y-79268687D01*
X135334066Y-79268689D01*
X135285972Y-79397635D01*
X135285971Y-79397639D01*
X135285971Y-79397641D01*
X135279842Y-79454647D01*
X135279842Y-80324955D01*
X112050500Y-80324955D01*
X112050500Y-79195730D01*
X112047646Y-79165300D01*
X112047646Y-79165298D01*
X112002793Y-79037119D01*
X112002792Y-79037117D01*
X111922150Y-78927850D01*
X111812882Y-78847207D01*
X111812880Y-78847206D01*
X111684700Y-78802353D01*
X111654270Y-78799500D01*
X111654266Y-78799500D01*
X110095734Y-78799500D01*
X110095730Y-78799500D01*
X110065300Y-78802353D01*
X110065298Y-78802353D01*
X109937119Y-78847206D01*
X109937117Y-78847207D01*
X109827850Y-78927850D01*
X109747207Y-79037117D01*
X109747206Y-79037119D01*
X109702353Y-79165298D01*
X109702353Y-79165300D01*
X109699500Y-79195730D01*
X109699500Y-80504269D01*
X104000500Y-80504269D01*
X104000500Y-73067763D01*
X106145787Y-73067763D01*
X106175413Y-73337013D01*
X106175415Y-73337024D01*
X106243926Y-73599082D01*
X106243928Y-73599088D01*
X106349870Y-73848390D01*
X106421998Y-73966575D01*
X106490979Y-74079605D01*
X106490986Y-74079615D01*
X106664253Y-74287819D01*
X106664259Y-74287824D01*
X106738759Y-74354576D01*
X106865998Y-74468582D01*
X107091910Y-74618044D01*
X107337176Y-74733020D01*
X107337183Y-74733022D01*
X107337185Y-74733023D01*
X107596557Y-74811057D01*
X107596564Y-74811058D01*
X107596569Y-74811060D01*
X107864561Y-74850500D01*
X107864566Y-74850500D01*
X108067629Y-74850500D01*
X108067631Y-74850500D01*
X108067636Y-74850499D01*
X108067648Y-74850499D01*
X108105191Y-74847750D01*
X108270156Y-74835677D01*
X108382758Y-74810593D01*
X108534546Y-74776782D01*
X108534548Y-74776781D01*
X108534553Y-74776780D01*
X108787558Y-74680014D01*
X109023777Y-74547441D01*
X109238177Y-74381888D01*
X109426186Y-74186881D01*
X109583799Y-73966579D01*
X109657787Y-73822669D01*
X109707649Y-73725690D01*
X109707651Y-73725684D01*
X109707656Y-73725675D01*
X109795118Y-73469305D01*
X109844319Y-73202933D01*
X109854212Y-72932235D01*
X109824586Y-72662982D01*
X109756072Y-72400912D01*
X109650130Y-72151610D01*
X109509018Y-71920390D01*
X109419747Y-71813119D01*
X109335746Y-71712180D01*
X109335740Y-71712175D01*
X109134002Y-71531418D01*
X108908092Y-71381957D01*
X108908090Y-71381956D01*
X108662824Y-71266980D01*
X108662819Y-71266978D01*
X108662814Y-71266976D01*
X108403442Y-71188942D01*
X108403428Y-71188939D01*
X108287791Y-71171921D01*
X108135439Y-71149500D01*
X107932369Y-71149500D01*
X107932351Y-71149500D01*
X107729844Y-71164323D01*
X107729831Y-71164325D01*
X107465453Y-71223217D01*
X107465446Y-71223220D01*
X107212439Y-71319987D01*
X106976226Y-71452557D01*
X106761822Y-71618112D01*
X106573822Y-71813109D01*
X106573816Y-71813116D01*
X106416202Y-72033419D01*
X106416199Y-72033424D01*
X106292350Y-72274309D01*
X106292343Y-72274327D01*
X106204884Y-72530685D01*
X106204881Y-72530699D01*
X106155681Y-72797068D01*
X106155680Y-72797075D01*
X106145787Y-73067763D01*
X104000500Y-73067763D01*
X104000500Y-69124500D01*
X104020185Y-69057461D01*
X104072989Y-69011706D01*
X104124500Y-69000500D01*
X204875500Y-69000500D01*
X204942539Y-69020185D01*
G37*
%TD.AperFunction*%
%TD*%
M02*
