%TF.GenerationSoftware,KiCad,Pcbnew,7.0.11-rc3*%
%TF.CreationDate,2026-02-10T16:16:17+08:00*%
%TF.ProjectId,front_dash_unit,66726f6e-745f-4646-9173-685f756e6974,rev?*%
%TF.SameCoordinates,Original*%
%TF.FileFunction,Soldermask,Bot*%
%TF.FilePolarity,Negative*%
%FSLAX46Y46*%
G04 Gerber Fmt 4.6, Leading zero omitted, Abs format (unit mm)*
G04 Created by KiCad (PCBNEW 7.0.11-rc3) date 2026-02-10 16:16:17*
%MOMM*%
%LPD*%
G01*
G04 APERTURE LIST*
G04 Aperture macros list*
%AMRoundRect*
0 Rectangle with rounded corners*
0 $1 Rounding radius*
0 $2 $3 $4 $5 $6 $7 $8 $9 X,Y pos of 4 corners*
0 Add a 4 corners polygon primitive as box body*
4,1,4,$2,$3,$4,$5,$6,$7,$8,$9,$2,$3,0*
0 Add four circle primitives for the rounded corners*
1,1,$1+$1,$2,$3*
1,1,$1+$1,$4,$5*
1,1,$1+$1,$6,$7*
1,1,$1+$1,$8,$9*
0 Add four rect primitives between the rounded corners*
20,1,$1+$1,$2,$3,$4,$5,0*
20,1,$1+$1,$4,$5,$6,$7,0*
20,1,$1+$1,$6,$7,$8,$9,0*
20,1,$1+$1,$8,$9,$2,$3,0*%
G04 Aperture macros list end*
%ADD10C,2.400000*%
%ADD11C,3.200000*%
%ADD12R,2.000000X2.000000*%
%ADD13O,2.000000X3.000000*%
%ADD14RoundRect,0.250000X0.725000X-0.600000X0.725000X0.600000X-0.725000X0.600000X-0.725000X-0.600000X0*%
%ADD15O,1.950000X1.700000*%
%ADD16RoundRect,0.250000X-0.600000X-0.725000X0.600000X-0.725000X0.600000X0.725000X-0.600000X0.725000X0*%
%ADD17O,1.700000X1.950000*%
%ADD18RoundRect,0.250001X-1.099999X-1.099999X1.099999X-1.099999X1.099999X1.099999X-1.099999X1.099999X0*%
%ADD19C,2.700000*%
%ADD20RoundRect,0.250000X-0.725000X0.600000X-0.725000X-0.600000X0.725000X-0.600000X0.725000X0.600000X0*%
%ADD21R,1.700000X1.700000*%
%ADD22O,1.700000X1.700000*%
%ADD23O,4.014000X2.109000*%
%ADD24C,2.134400*%
%ADD25O,4.064800X2.134400*%
%ADD26RoundRect,0.305575X0.460025X0.412525X-0.460025X0.412525X-0.460025X-0.412525X0.460025X-0.412525X0*%
%ADD27RoundRect,0.308511X0.457089X0.416489X-0.457089X0.416489X-0.457089X-0.416489X0.457089X-0.416489X0*%
%ADD28RoundRect,0.305575X-0.460025X-0.412525X0.460025X-0.412525X0.460025X0.412525X-0.460025X0.412525X0*%
%ADD29RoundRect,0.308511X-0.457089X-0.416489X0.457089X-0.416489X0.457089X0.416489X-0.457089X0.416489X0*%
%ADD30RoundRect,0.278125X-0.474375X-0.389375X0.474375X-0.389375X0.474375X0.389375X-0.474375X0.389375X0*%
%ADD31RoundRect,0.305575X0.412525X-0.460025X0.412525X0.460025X-0.412525X0.460025X-0.412525X-0.460025X0*%
%ADD32RoundRect,0.308511X0.416489X-0.457089X0.416489X0.457089X-0.416489X0.457089X-0.416489X-0.457089X0*%
G04 APERTURE END LIST*
G36*
X163700000Y-117100000D02*
G01*
X174700000Y-117100000D01*
X174700000Y-131100000D01*
X163700000Y-131100000D01*
X163700000Y-117100000D01*
G37*
D10*
%TO.C,Y5*%
X126293282Y-85900000D03*
X121213282Y-85900000D03*
%TD*%
D11*
%TO.C,H4*%
X108000000Y-128000000D03*
%TD*%
D10*
%TO.C,Y1*%
X126293282Y-103562500D03*
X121213282Y-103562500D03*
%TD*%
D12*
%TO.C,C17*%
X157000000Y-121632323D03*
D13*
X157000000Y-126632323D03*
%TD*%
D14*
%TO.C,J3*%
X200000000Y-115500000D03*
D15*
X200000000Y-113000000D03*
X200000000Y-110500000D03*
X200000000Y-108000000D03*
%TD*%
D11*
%TO.C,H3*%
X201000000Y-128000000D03*
%TD*%
D14*
%TO.C,J4*%
X200000000Y-101000000D03*
D15*
X200000000Y-98500000D03*
X200000000Y-96000000D03*
X200000000Y-93500000D03*
%TD*%
D12*
%TO.C,C15*%
X181000000Y-121632323D03*
D13*
X181000000Y-126632323D03*
%TD*%
D16*
%TO.C,J7*%
X120950000Y-126475000D03*
D17*
X123450000Y-126475000D03*
X125950000Y-126475000D03*
X128450000Y-126475000D03*
%TD*%
D18*
%TO.C,J5*%
X190242500Y-124450000D03*
D19*
X194202500Y-124450000D03*
%TD*%
D20*
%TO.C,J1*%
X110875000Y-79850000D03*
D15*
X110875000Y-82350000D03*
X110875000Y-84850000D03*
X110875000Y-87350000D03*
%TD*%
D11*
%TO.C,H1*%
X108000000Y-73000000D03*
%TD*%
D21*
%TO.C,AVR-ISP1*%
X143875000Y-104025000D03*
D22*
X146415000Y-104025000D03*
X143875000Y-106565000D03*
X146415000Y-106565000D03*
X143875000Y-109105000D03*
X146415000Y-109105000D03*
%TD*%
D20*
%TO.C,J6*%
X110700000Y-113100000D03*
D15*
X110700000Y-115600000D03*
X110700000Y-118100000D03*
X110700000Y-120600000D03*
%TD*%
D23*
%TO.C,M1*%
X175187300Y-78220000D03*
X175187300Y-80760000D03*
X175187300Y-83300000D03*
X175187300Y-85840000D03*
X175187300Y-88380000D03*
D24*
X199787300Y-81600000D03*
D25*
X200787300Y-79000000D03*
X200787300Y-84200000D03*
%TD*%
D10*
%TO.C,Y2*%
X147506719Y-78500000D03*
X152586719Y-78500000D03*
%TD*%
D20*
%TO.C,J2*%
X110875000Y-97550000D03*
D15*
X110875000Y-100050000D03*
X110875000Y-102550000D03*
X110875000Y-105050000D03*
%TD*%
D11*
%TO.C,H2*%
X201000000Y-73000000D03*
%TD*%
D16*
%TO.C,J8*%
X135250000Y-126475000D03*
D17*
X137750000Y-126475000D03*
X140250000Y-126475000D03*
X142750000Y-126475000D03*
%TD*%
D26*
%TO.C,C12*%
X159215600Y-97093100D03*
D27*
X156784400Y-97100000D03*
%TD*%
D28*
%TO.C,C3*%
X136184400Y-95069400D03*
D29*
X138615600Y-95062500D03*
%TD*%
D30*
%TO.C,R11*%
X136211359Y-82315000D03*
X138516359Y-82315000D03*
%TD*%
D31*
%TO.C,C22*%
X125724400Y-80315600D03*
D32*
X125717500Y-77884400D03*
%TD*%
D28*
%TO.C,C23*%
X136184400Y-77406900D03*
D29*
X138615600Y-77400000D03*
%TD*%
D30*
%TO.C,R14*%
X117897500Y-115682500D03*
X120202500Y-115682500D03*
%TD*%
D31*
%TO.C,C2*%
X125724400Y-97978100D03*
D32*
X125717500Y-95546900D03*
%TD*%
D30*
%TO.C,R12*%
X136211359Y-99977500D03*
X138516359Y-99977500D03*
%TD*%
%TO.C,R13*%
X117897500Y-113182500D03*
X120202500Y-113182500D03*
%TD*%
%TO.C,R10*%
X136232842Y-97552301D03*
X138537842Y-97552301D03*
%TD*%
%TO.C,R9*%
X136232842Y-79889801D03*
X138537842Y-79889801D03*
%TD*%
M02*
