%TF.GenerationSoftware,KiCad,Pcbnew,7.0.11-rc3*%
%TF.CreationDate,2026-02-10T16:16:19+08:00*%
%TF.ProjectId,front_dash_unit,66726f6e-745f-4646-9173-685f756e6974,rev?*%
%TF.SameCoordinates,Original*%
%TF.FileFunction,Drillmap*%
%TF.FilePolarity,Positive*%
%FSLAX45Y45*%
G04 Gerber Fmt 4.5, Leading zero omitted, Abs format (unit mm)*
G04 Created by KiCad (PCBNEW 7.0.11-rc3) date 2026-02-10 16:16:19*
%MOMM*%
%LPD*%
G01*
G04 APERTURE LIST*
%ADD10C,0.100000*%
%ADD11C,0.200000*%
%ADD12C,0.320000*%
G04 APERTURE END LIST*
D10*
X10400000Y-6900000D02*
X20500000Y-6900000D01*
X20500000Y-13200000D01*
X10400000Y-13200000D01*
X10400000Y-6900000D01*
D11*
D12*
X10640000Y-7140000D02*
X10960000Y-7460000D01*
X10960000Y-7140000D02*
X10640000Y-7460000D01*
X10640000Y-12640000D02*
X10960000Y-12960000D01*
X10960000Y-12640000D02*
X10640000Y-12960000D01*
X19940000Y-7140000D02*
X20260000Y-7460000D01*
X20260000Y-7140000D02*
X19940000Y-7460000D01*
X19940000Y-12640000D02*
X20260000Y-12960000D01*
X20260000Y-12640000D02*
X19940000Y-12960000D01*
D11*
X10655777Y-13516484D02*
X10655777Y-13316484D01*
X10655777Y-13316484D02*
X10703396Y-13316484D01*
X10703396Y-13316484D02*
X10731967Y-13326008D01*
X10731967Y-13326008D02*
X10751015Y-13345055D01*
X10751015Y-13345055D02*
X10760539Y-13364103D01*
X10760539Y-13364103D02*
X10770063Y-13402198D01*
X10770063Y-13402198D02*
X10770063Y-13430769D01*
X10770063Y-13430769D02*
X10760539Y-13468865D01*
X10760539Y-13468865D02*
X10751015Y-13487912D01*
X10751015Y-13487912D02*
X10731967Y-13506960D01*
X10731967Y-13506960D02*
X10703396Y-13516484D01*
X10703396Y-13516484D02*
X10655777Y-13516484D01*
X10855777Y-13516484D02*
X10855777Y-13383150D01*
X10855777Y-13421246D02*
X10865301Y-13402198D01*
X10865301Y-13402198D02*
X10874824Y-13392674D01*
X10874824Y-13392674D02*
X10893872Y-13383150D01*
X10893872Y-13383150D02*
X10912920Y-13383150D01*
X10979586Y-13516484D02*
X10979586Y-13383150D01*
X10979586Y-13316484D02*
X10970063Y-13326008D01*
X10970063Y-13326008D02*
X10979586Y-13335531D01*
X10979586Y-13335531D02*
X10989110Y-13326008D01*
X10989110Y-13326008D02*
X10979586Y-13316484D01*
X10979586Y-13316484D02*
X10979586Y-13335531D01*
X11103396Y-13516484D02*
X11084348Y-13506960D01*
X11084348Y-13506960D02*
X11074824Y-13487912D01*
X11074824Y-13487912D02*
X11074824Y-13316484D01*
X11208158Y-13516484D02*
X11189110Y-13506960D01*
X11189110Y-13506960D02*
X11179586Y-13487912D01*
X11179586Y-13487912D02*
X11179586Y-13316484D01*
X11436729Y-13516484D02*
X11436729Y-13316484D01*
X11436729Y-13316484D02*
X11503396Y-13459341D01*
X11503396Y-13459341D02*
X11570062Y-13316484D01*
X11570062Y-13316484D02*
X11570062Y-13516484D01*
X11751015Y-13516484D02*
X11751015Y-13411722D01*
X11751015Y-13411722D02*
X11741491Y-13392674D01*
X11741491Y-13392674D02*
X11722443Y-13383150D01*
X11722443Y-13383150D02*
X11684348Y-13383150D01*
X11684348Y-13383150D02*
X11665301Y-13392674D01*
X11751015Y-13506960D02*
X11731967Y-13516484D01*
X11731967Y-13516484D02*
X11684348Y-13516484D01*
X11684348Y-13516484D02*
X11665301Y-13506960D01*
X11665301Y-13506960D02*
X11655777Y-13487912D01*
X11655777Y-13487912D02*
X11655777Y-13468865D01*
X11655777Y-13468865D02*
X11665301Y-13449817D01*
X11665301Y-13449817D02*
X11684348Y-13440293D01*
X11684348Y-13440293D02*
X11731967Y-13440293D01*
X11731967Y-13440293D02*
X11751015Y-13430769D01*
X11846253Y-13383150D02*
X11846253Y-13583150D01*
X11846253Y-13392674D02*
X11865301Y-13383150D01*
X11865301Y-13383150D02*
X11903396Y-13383150D01*
X11903396Y-13383150D02*
X11922443Y-13392674D01*
X11922443Y-13392674D02*
X11931967Y-13402198D01*
X11931967Y-13402198D02*
X11941491Y-13421246D01*
X11941491Y-13421246D02*
X11941491Y-13478388D01*
X11941491Y-13478388D02*
X11931967Y-13497436D01*
X11931967Y-13497436D02*
X11922443Y-13506960D01*
X11922443Y-13506960D02*
X11903396Y-13516484D01*
X11903396Y-13516484D02*
X11865301Y-13516484D01*
X11865301Y-13516484D02*
X11846253Y-13506960D01*
X12027205Y-13497436D02*
X12036729Y-13506960D01*
X12036729Y-13506960D02*
X12027205Y-13516484D01*
X12027205Y-13516484D02*
X12017682Y-13506960D01*
X12017682Y-13506960D02*
X12027205Y-13497436D01*
X12027205Y-13497436D02*
X12027205Y-13516484D01*
X12027205Y-13392674D02*
X12036729Y-13402198D01*
X12036729Y-13402198D02*
X12027205Y-13411722D01*
X12027205Y-13411722D02*
X12017682Y-13402198D01*
X12017682Y-13402198D02*
X12027205Y-13392674D01*
X12027205Y-13392674D02*
X12027205Y-13411722D01*
X10195000Y-13745000D02*
X10395000Y-13945000D01*
X10395000Y-13745000D02*
X10195000Y-13945000D01*
X10636729Y-13736484D02*
X10760539Y-13736484D01*
X10760539Y-13736484D02*
X10693872Y-13812674D01*
X10693872Y-13812674D02*
X10722444Y-13812674D01*
X10722444Y-13812674D02*
X10741491Y-13822198D01*
X10741491Y-13822198D02*
X10751015Y-13831722D01*
X10751015Y-13831722D02*
X10760539Y-13850769D01*
X10760539Y-13850769D02*
X10760539Y-13898388D01*
X10760539Y-13898388D02*
X10751015Y-13917436D01*
X10751015Y-13917436D02*
X10741491Y-13926960D01*
X10741491Y-13926960D02*
X10722444Y-13936484D01*
X10722444Y-13936484D02*
X10665301Y-13936484D01*
X10665301Y-13936484D02*
X10646253Y-13926960D01*
X10646253Y-13926960D02*
X10636729Y-13917436D01*
X10846253Y-13917436D02*
X10855777Y-13926960D01*
X10855777Y-13926960D02*
X10846253Y-13936484D01*
X10846253Y-13936484D02*
X10836729Y-13926960D01*
X10836729Y-13926960D02*
X10846253Y-13917436D01*
X10846253Y-13917436D02*
X10846253Y-13936484D01*
X10931967Y-13755531D02*
X10941491Y-13746008D01*
X10941491Y-13746008D02*
X10960539Y-13736484D01*
X10960539Y-13736484D02*
X11008158Y-13736484D01*
X11008158Y-13736484D02*
X11027205Y-13746008D01*
X11027205Y-13746008D02*
X11036729Y-13755531D01*
X11036729Y-13755531D02*
X11046253Y-13774579D01*
X11046253Y-13774579D02*
X11046253Y-13793627D01*
X11046253Y-13793627D02*
X11036729Y-13822198D01*
X11036729Y-13822198D02*
X10922444Y-13936484D01*
X10922444Y-13936484D02*
X11046253Y-13936484D01*
X11170063Y-13736484D02*
X11189110Y-13736484D01*
X11189110Y-13736484D02*
X11208158Y-13746008D01*
X11208158Y-13746008D02*
X11217682Y-13755531D01*
X11217682Y-13755531D02*
X11227205Y-13774579D01*
X11227205Y-13774579D02*
X11236729Y-13812674D01*
X11236729Y-13812674D02*
X11236729Y-13860293D01*
X11236729Y-13860293D02*
X11227205Y-13898388D01*
X11227205Y-13898388D02*
X11217682Y-13917436D01*
X11217682Y-13917436D02*
X11208158Y-13926960D01*
X11208158Y-13926960D02*
X11189110Y-13936484D01*
X11189110Y-13936484D02*
X11170063Y-13936484D01*
X11170063Y-13936484D02*
X11151015Y-13926960D01*
X11151015Y-13926960D02*
X11141491Y-13917436D01*
X11141491Y-13917436D02*
X11131967Y-13898388D01*
X11131967Y-13898388D02*
X11122444Y-13860293D01*
X11122444Y-13860293D02*
X11122444Y-13812674D01*
X11122444Y-13812674D02*
X11131967Y-13774579D01*
X11131967Y-13774579D02*
X11141491Y-13755531D01*
X11141491Y-13755531D02*
X11151015Y-13746008D01*
X11151015Y-13746008D02*
X11170063Y-13736484D01*
X11360539Y-13736484D02*
X11379586Y-13736484D01*
X11379586Y-13736484D02*
X11398634Y-13746008D01*
X11398634Y-13746008D02*
X11408158Y-13755531D01*
X11408158Y-13755531D02*
X11417682Y-13774579D01*
X11417682Y-13774579D02*
X11427205Y-13812674D01*
X11427205Y-13812674D02*
X11427205Y-13860293D01*
X11427205Y-13860293D02*
X11417682Y-13898388D01*
X11417682Y-13898388D02*
X11408158Y-13917436D01*
X11408158Y-13917436D02*
X11398634Y-13926960D01*
X11398634Y-13926960D02*
X11379586Y-13936484D01*
X11379586Y-13936484D02*
X11360539Y-13936484D01*
X11360539Y-13936484D02*
X11341491Y-13926960D01*
X11341491Y-13926960D02*
X11331967Y-13917436D01*
X11331967Y-13917436D02*
X11322443Y-13898388D01*
X11322443Y-13898388D02*
X11312920Y-13860293D01*
X11312920Y-13860293D02*
X11312920Y-13812674D01*
X11312920Y-13812674D02*
X11322443Y-13774579D01*
X11322443Y-13774579D02*
X11331967Y-13755531D01*
X11331967Y-13755531D02*
X11341491Y-13746008D01*
X11341491Y-13746008D02*
X11360539Y-13736484D01*
X11512920Y-13936484D02*
X11512920Y-13803150D01*
X11512920Y-13822198D02*
X11522443Y-13812674D01*
X11522443Y-13812674D02*
X11541491Y-13803150D01*
X11541491Y-13803150D02*
X11570063Y-13803150D01*
X11570063Y-13803150D02*
X11589110Y-13812674D01*
X11589110Y-13812674D02*
X11598634Y-13831722D01*
X11598634Y-13831722D02*
X11598634Y-13936484D01*
X11598634Y-13831722D02*
X11608158Y-13812674D01*
X11608158Y-13812674D02*
X11627205Y-13803150D01*
X11627205Y-13803150D02*
X11655777Y-13803150D01*
X11655777Y-13803150D02*
X11674824Y-13812674D01*
X11674824Y-13812674D02*
X11684348Y-13831722D01*
X11684348Y-13831722D02*
X11684348Y-13936484D01*
X11779586Y-13936484D02*
X11779586Y-13803150D01*
X11779586Y-13822198D02*
X11789110Y-13812674D01*
X11789110Y-13812674D02*
X11808158Y-13803150D01*
X11808158Y-13803150D02*
X11836729Y-13803150D01*
X11836729Y-13803150D02*
X11855777Y-13812674D01*
X11855777Y-13812674D02*
X11865301Y-13831722D01*
X11865301Y-13831722D02*
X11865301Y-13936484D01*
X11865301Y-13831722D02*
X11874824Y-13812674D01*
X11874824Y-13812674D02*
X11893872Y-13803150D01*
X11893872Y-13803150D02*
X11922443Y-13803150D01*
X11922443Y-13803150D02*
X11941491Y-13812674D01*
X11941491Y-13812674D02*
X11951015Y-13831722D01*
X11951015Y-13831722D02*
X11951015Y-13936484D01*
X12341491Y-13726960D02*
X12170063Y-13984103D01*
X12598634Y-13736484D02*
X12617682Y-13736484D01*
X12617682Y-13736484D02*
X12636729Y-13746008D01*
X12636729Y-13746008D02*
X12646253Y-13755531D01*
X12646253Y-13755531D02*
X12655777Y-13774579D01*
X12655777Y-13774579D02*
X12665301Y-13812674D01*
X12665301Y-13812674D02*
X12665301Y-13860293D01*
X12665301Y-13860293D02*
X12655777Y-13898388D01*
X12655777Y-13898388D02*
X12646253Y-13917436D01*
X12646253Y-13917436D02*
X12636729Y-13926960D01*
X12636729Y-13926960D02*
X12617682Y-13936484D01*
X12617682Y-13936484D02*
X12598634Y-13936484D01*
X12598634Y-13936484D02*
X12579586Y-13926960D01*
X12579586Y-13926960D02*
X12570063Y-13917436D01*
X12570063Y-13917436D02*
X12560539Y-13898388D01*
X12560539Y-13898388D02*
X12551015Y-13860293D01*
X12551015Y-13860293D02*
X12551015Y-13812674D01*
X12551015Y-13812674D02*
X12560539Y-13774579D01*
X12560539Y-13774579D02*
X12570063Y-13755531D01*
X12570063Y-13755531D02*
X12579586Y-13746008D01*
X12579586Y-13746008D02*
X12598634Y-13736484D01*
X12751015Y-13917436D02*
X12760539Y-13926960D01*
X12760539Y-13926960D02*
X12751015Y-13936484D01*
X12751015Y-13936484D02*
X12741491Y-13926960D01*
X12741491Y-13926960D02*
X12751015Y-13917436D01*
X12751015Y-13917436D02*
X12751015Y-13936484D01*
X12951015Y-13936484D02*
X12836729Y-13936484D01*
X12893872Y-13936484D02*
X12893872Y-13736484D01*
X12893872Y-13736484D02*
X12874825Y-13765055D01*
X12874825Y-13765055D02*
X12855777Y-13784103D01*
X12855777Y-13784103D02*
X12836729Y-13793627D01*
X13027206Y-13755531D02*
X13036729Y-13746008D01*
X13036729Y-13746008D02*
X13055777Y-13736484D01*
X13055777Y-13736484D02*
X13103396Y-13736484D01*
X13103396Y-13736484D02*
X13122444Y-13746008D01*
X13122444Y-13746008D02*
X13131967Y-13755531D01*
X13131967Y-13755531D02*
X13141491Y-13774579D01*
X13141491Y-13774579D02*
X13141491Y-13793627D01*
X13141491Y-13793627D02*
X13131967Y-13822198D01*
X13131967Y-13822198D02*
X13017682Y-13936484D01*
X13017682Y-13936484D02*
X13141491Y-13936484D01*
X13312920Y-13736484D02*
X13274825Y-13736484D01*
X13274825Y-13736484D02*
X13255777Y-13746008D01*
X13255777Y-13746008D02*
X13246253Y-13755531D01*
X13246253Y-13755531D02*
X13227206Y-13784103D01*
X13227206Y-13784103D02*
X13217682Y-13822198D01*
X13217682Y-13822198D02*
X13217682Y-13898388D01*
X13217682Y-13898388D02*
X13227206Y-13917436D01*
X13227206Y-13917436D02*
X13236729Y-13926960D01*
X13236729Y-13926960D02*
X13255777Y-13936484D01*
X13255777Y-13936484D02*
X13293872Y-13936484D01*
X13293872Y-13936484D02*
X13312920Y-13926960D01*
X13312920Y-13926960D02*
X13322444Y-13917436D01*
X13322444Y-13917436D02*
X13331967Y-13898388D01*
X13331967Y-13898388D02*
X13331967Y-13850769D01*
X13331967Y-13850769D02*
X13322444Y-13831722D01*
X13322444Y-13831722D02*
X13312920Y-13822198D01*
X13312920Y-13822198D02*
X13293872Y-13812674D01*
X13293872Y-13812674D02*
X13255777Y-13812674D01*
X13255777Y-13812674D02*
X13236729Y-13822198D01*
X13236729Y-13822198D02*
X13227206Y-13831722D01*
X13227206Y-13831722D02*
X13217682Y-13850769D01*
X13455777Y-13736484D02*
X13474825Y-13736484D01*
X13474825Y-13736484D02*
X13493872Y-13746008D01*
X13493872Y-13746008D02*
X13503396Y-13755531D01*
X13503396Y-13755531D02*
X13512920Y-13774579D01*
X13512920Y-13774579D02*
X13522444Y-13812674D01*
X13522444Y-13812674D02*
X13522444Y-13860293D01*
X13522444Y-13860293D02*
X13512920Y-13898388D01*
X13512920Y-13898388D02*
X13503396Y-13917436D01*
X13503396Y-13917436D02*
X13493872Y-13926960D01*
X13493872Y-13926960D02*
X13474825Y-13936484D01*
X13474825Y-13936484D02*
X13455777Y-13936484D01*
X13455777Y-13936484D02*
X13436729Y-13926960D01*
X13436729Y-13926960D02*
X13427206Y-13917436D01*
X13427206Y-13917436D02*
X13417682Y-13898388D01*
X13417682Y-13898388D02*
X13408158Y-13860293D01*
X13408158Y-13860293D02*
X13408158Y-13812674D01*
X13408158Y-13812674D02*
X13417682Y-13774579D01*
X13417682Y-13774579D02*
X13427206Y-13755531D01*
X13427206Y-13755531D02*
X13436729Y-13746008D01*
X13436729Y-13746008D02*
X13455777Y-13736484D01*
X13598634Y-13736484D02*
X13598634Y-13774579D01*
X13674825Y-13736484D02*
X13674825Y-13774579D01*
X13970063Y-14012674D02*
X13960539Y-14003150D01*
X13960539Y-14003150D02*
X13941491Y-13974579D01*
X13941491Y-13974579D02*
X13931968Y-13955531D01*
X13931968Y-13955531D02*
X13922444Y-13926960D01*
X13922444Y-13926960D02*
X13912920Y-13879341D01*
X13912920Y-13879341D02*
X13912920Y-13841246D01*
X13912920Y-13841246D02*
X13922444Y-13793627D01*
X13922444Y-13793627D02*
X13931968Y-13765055D01*
X13931968Y-13765055D02*
X13941491Y-13746008D01*
X13941491Y-13746008D02*
X13960539Y-13717436D01*
X13960539Y-13717436D02*
X13970063Y-13707912D01*
X14131968Y-13803150D02*
X14131968Y-13936484D01*
X14084348Y-13726960D02*
X14036729Y-13869817D01*
X14036729Y-13869817D02*
X14160539Y-13869817D01*
X14389110Y-13936484D02*
X14389110Y-13736484D01*
X14474825Y-13936484D02*
X14474825Y-13831722D01*
X14474825Y-13831722D02*
X14465301Y-13812674D01*
X14465301Y-13812674D02*
X14446253Y-13803150D01*
X14446253Y-13803150D02*
X14417682Y-13803150D01*
X14417682Y-13803150D02*
X14398634Y-13812674D01*
X14398634Y-13812674D02*
X14389110Y-13822198D01*
X14598634Y-13936484D02*
X14579587Y-13926960D01*
X14579587Y-13926960D02*
X14570063Y-13917436D01*
X14570063Y-13917436D02*
X14560539Y-13898388D01*
X14560539Y-13898388D02*
X14560539Y-13841246D01*
X14560539Y-13841246D02*
X14570063Y-13822198D01*
X14570063Y-13822198D02*
X14579587Y-13812674D01*
X14579587Y-13812674D02*
X14598634Y-13803150D01*
X14598634Y-13803150D02*
X14627206Y-13803150D01*
X14627206Y-13803150D02*
X14646253Y-13812674D01*
X14646253Y-13812674D02*
X14655777Y-13822198D01*
X14655777Y-13822198D02*
X14665301Y-13841246D01*
X14665301Y-13841246D02*
X14665301Y-13898388D01*
X14665301Y-13898388D02*
X14655777Y-13917436D01*
X14655777Y-13917436D02*
X14646253Y-13926960D01*
X14646253Y-13926960D02*
X14627206Y-13936484D01*
X14627206Y-13936484D02*
X14598634Y-13936484D01*
X14779587Y-13936484D02*
X14760539Y-13926960D01*
X14760539Y-13926960D02*
X14751015Y-13907912D01*
X14751015Y-13907912D02*
X14751015Y-13736484D01*
X14931968Y-13926960D02*
X14912920Y-13936484D01*
X14912920Y-13936484D02*
X14874825Y-13936484D01*
X14874825Y-13936484D02*
X14855777Y-13926960D01*
X14855777Y-13926960D02*
X14846253Y-13907912D01*
X14846253Y-13907912D02*
X14846253Y-13831722D01*
X14846253Y-13831722D02*
X14855777Y-13812674D01*
X14855777Y-13812674D02*
X14874825Y-13803150D01*
X14874825Y-13803150D02*
X14912920Y-13803150D01*
X14912920Y-13803150D02*
X14931968Y-13812674D01*
X14931968Y-13812674D02*
X14941491Y-13831722D01*
X14941491Y-13831722D02*
X14941491Y-13850769D01*
X14941491Y-13850769D02*
X14846253Y-13869817D01*
X15017682Y-13926960D02*
X15036730Y-13936484D01*
X15036730Y-13936484D02*
X15074825Y-13936484D01*
X15074825Y-13936484D02*
X15093872Y-13926960D01*
X15093872Y-13926960D02*
X15103396Y-13907912D01*
X15103396Y-13907912D02*
X15103396Y-13898388D01*
X15103396Y-13898388D02*
X15093872Y-13879341D01*
X15093872Y-13879341D02*
X15074825Y-13869817D01*
X15074825Y-13869817D02*
X15046253Y-13869817D01*
X15046253Y-13869817D02*
X15027206Y-13860293D01*
X15027206Y-13860293D02*
X15017682Y-13841246D01*
X15017682Y-13841246D02*
X15017682Y-13831722D01*
X15017682Y-13831722D02*
X15027206Y-13812674D01*
X15027206Y-13812674D02*
X15046253Y-13803150D01*
X15046253Y-13803150D02*
X15074825Y-13803150D01*
X15074825Y-13803150D02*
X15093872Y-13812674D01*
X15170063Y-14012674D02*
X15179587Y-14003150D01*
X15179587Y-14003150D02*
X15198634Y-13974579D01*
X15198634Y-13974579D02*
X15208158Y-13955531D01*
X15208158Y-13955531D02*
X15217682Y-13926960D01*
X15217682Y-13926960D02*
X15227206Y-13879341D01*
X15227206Y-13879341D02*
X15227206Y-13841246D01*
X15227206Y-13841246D02*
X15217682Y-13793627D01*
X15217682Y-13793627D02*
X15208158Y-13765055D01*
X15208158Y-13765055D02*
X15198634Y-13746008D01*
X15198634Y-13746008D02*
X15179587Y-13717436D01*
X15179587Y-13717436D02*
X15170063Y-13707912D01*
X15531968Y-14012674D02*
X15522444Y-14003150D01*
X15522444Y-14003150D02*
X15503396Y-13974579D01*
X15503396Y-13974579D02*
X15493872Y-13955531D01*
X15493872Y-13955531D02*
X15484349Y-13926960D01*
X15484349Y-13926960D02*
X15474825Y-13879341D01*
X15474825Y-13879341D02*
X15474825Y-13841246D01*
X15474825Y-13841246D02*
X15484349Y-13793627D01*
X15484349Y-13793627D02*
X15493872Y-13765055D01*
X15493872Y-13765055D02*
X15503396Y-13746008D01*
X15503396Y-13746008D02*
X15522444Y-13717436D01*
X15522444Y-13717436D02*
X15531968Y-13707912D01*
X15608158Y-13803150D02*
X15608158Y-13936484D01*
X15608158Y-13822198D02*
X15617682Y-13812674D01*
X15617682Y-13812674D02*
X15636730Y-13803150D01*
X15636730Y-13803150D02*
X15665301Y-13803150D01*
X15665301Y-13803150D02*
X15684349Y-13812674D01*
X15684349Y-13812674D02*
X15693872Y-13831722D01*
X15693872Y-13831722D02*
X15693872Y-13936484D01*
X15817682Y-13936484D02*
X15798634Y-13926960D01*
X15798634Y-13926960D02*
X15789111Y-13917436D01*
X15789111Y-13917436D02*
X15779587Y-13898388D01*
X15779587Y-13898388D02*
X15779587Y-13841246D01*
X15779587Y-13841246D02*
X15789111Y-13822198D01*
X15789111Y-13822198D02*
X15798634Y-13812674D01*
X15798634Y-13812674D02*
X15817682Y-13803150D01*
X15817682Y-13803150D02*
X15846253Y-13803150D01*
X15846253Y-13803150D02*
X15865301Y-13812674D01*
X15865301Y-13812674D02*
X15874825Y-13822198D01*
X15874825Y-13822198D02*
X15884349Y-13841246D01*
X15884349Y-13841246D02*
X15884349Y-13898388D01*
X15884349Y-13898388D02*
X15874825Y-13917436D01*
X15874825Y-13917436D02*
X15865301Y-13926960D01*
X15865301Y-13926960D02*
X15846253Y-13936484D01*
X15846253Y-13936484D02*
X15817682Y-13936484D01*
X15941492Y-13803150D02*
X16017682Y-13803150D01*
X15970063Y-13736484D02*
X15970063Y-13907912D01*
X15970063Y-13907912D02*
X15979587Y-13926960D01*
X15979587Y-13926960D02*
X15998634Y-13936484D01*
X15998634Y-13936484D02*
X16017682Y-13936484D01*
X16236730Y-13803150D02*
X16236730Y-14003150D01*
X16236730Y-13812674D02*
X16255777Y-13803150D01*
X16255777Y-13803150D02*
X16293873Y-13803150D01*
X16293873Y-13803150D02*
X16312920Y-13812674D01*
X16312920Y-13812674D02*
X16322444Y-13822198D01*
X16322444Y-13822198D02*
X16331968Y-13841246D01*
X16331968Y-13841246D02*
X16331968Y-13898388D01*
X16331968Y-13898388D02*
X16322444Y-13917436D01*
X16322444Y-13917436D02*
X16312920Y-13926960D01*
X16312920Y-13926960D02*
X16293873Y-13936484D01*
X16293873Y-13936484D02*
X16255777Y-13936484D01*
X16255777Y-13936484D02*
X16236730Y-13926960D01*
X16446253Y-13936484D02*
X16427206Y-13926960D01*
X16427206Y-13926960D02*
X16417682Y-13907912D01*
X16417682Y-13907912D02*
X16417682Y-13736484D01*
X16608158Y-13936484D02*
X16608158Y-13831722D01*
X16608158Y-13831722D02*
X16598634Y-13812674D01*
X16598634Y-13812674D02*
X16579587Y-13803150D01*
X16579587Y-13803150D02*
X16541492Y-13803150D01*
X16541492Y-13803150D02*
X16522444Y-13812674D01*
X16608158Y-13926960D02*
X16589111Y-13936484D01*
X16589111Y-13936484D02*
X16541492Y-13936484D01*
X16541492Y-13936484D02*
X16522444Y-13926960D01*
X16522444Y-13926960D02*
X16512920Y-13907912D01*
X16512920Y-13907912D02*
X16512920Y-13888865D01*
X16512920Y-13888865D02*
X16522444Y-13869817D01*
X16522444Y-13869817D02*
X16541492Y-13860293D01*
X16541492Y-13860293D02*
X16589111Y-13860293D01*
X16589111Y-13860293D02*
X16608158Y-13850769D01*
X16674825Y-13803150D02*
X16751015Y-13803150D01*
X16703396Y-13736484D02*
X16703396Y-13907912D01*
X16703396Y-13907912D02*
X16712920Y-13926960D01*
X16712920Y-13926960D02*
X16731968Y-13936484D01*
X16731968Y-13936484D02*
X16751015Y-13936484D01*
X16893873Y-13926960D02*
X16874825Y-13936484D01*
X16874825Y-13936484D02*
X16836730Y-13936484D01*
X16836730Y-13936484D02*
X16817682Y-13926960D01*
X16817682Y-13926960D02*
X16808158Y-13907912D01*
X16808158Y-13907912D02*
X16808158Y-13831722D01*
X16808158Y-13831722D02*
X16817682Y-13812674D01*
X16817682Y-13812674D02*
X16836730Y-13803150D01*
X16836730Y-13803150D02*
X16874825Y-13803150D01*
X16874825Y-13803150D02*
X16893873Y-13812674D01*
X16893873Y-13812674D02*
X16903396Y-13831722D01*
X16903396Y-13831722D02*
X16903396Y-13850769D01*
X16903396Y-13850769D02*
X16808158Y-13869817D01*
X17074825Y-13936484D02*
X17074825Y-13736484D01*
X17074825Y-13926960D02*
X17055777Y-13936484D01*
X17055777Y-13936484D02*
X17017682Y-13936484D01*
X17017682Y-13936484D02*
X16998635Y-13926960D01*
X16998635Y-13926960D02*
X16989111Y-13917436D01*
X16989111Y-13917436D02*
X16979587Y-13898388D01*
X16979587Y-13898388D02*
X16979587Y-13841246D01*
X16979587Y-13841246D02*
X16989111Y-13822198D01*
X16989111Y-13822198D02*
X16998635Y-13812674D01*
X16998635Y-13812674D02*
X17017682Y-13803150D01*
X17017682Y-13803150D02*
X17055777Y-13803150D01*
X17055777Y-13803150D02*
X17074825Y-13812674D01*
X17151016Y-14012674D02*
X17160539Y-14003150D01*
X17160539Y-14003150D02*
X17179587Y-13974579D01*
X17179587Y-13974579D02*
X17189111Y-13955531D01*
X17189111Y-13955531D02*
X17198635Y-13926960D01*
X17198635Y-13926960D02*
X17208158Y-13879341D01*
X17208158Y-13879341D02*
X17208158Y-13841246D01*
X17208158Y-13841246D02*
X17198635Y-13793627D01*
X17198635Y-13793627D02*
X17189111Y-13765055D01*
X17189111Y-13765055D02*
X17179587Y-13746008D01*
X17179587Y-13746008D02*
X17160539Y-13717436D01*
X17160539Y-13717436D02*
X17151016Y-13707912D01*
M02*
